<svg width="766" height="487" viewBox="0 0 766 487" fill="none" xmlns="http://www.w3.org/2000/svg">
<g opacity="0.5">
<path d="M368 331.492L176.64 2H16.192C7.35998 2 0 9.35474 0 18.1804C0 19.6514 -2.24829e-05 22.5933 1.47198 24.0642L2.94396 27.0061L242.88 435.93C251.712 453.581 263.488 465.349 273.792 472.703C281.152 478.587 291.456 481.529 301.76 483C292.928 466.82 306.176 441.813 315.008 422.691L368 331.492Z" fill="#46A5A5"/>
<path d="M592.496 1.4713L357.237 410.492C345.474 431.091 308.714 485.529 346.944 487H433.696H436.637C460.163 487 479.278 482.586 492.511 473.758C504.274 466.402 514.566 454.631 523.389 436.976L763.059 25.0121L764.53 22.0695C764.53 20.5982 766 19.1269 766 16.1843C766 7.3565 758.648 0 749.826 0H592.496V1.4713Z" fill="#46A5A5"/>
</g>
</svg>
