<svg width="71" height="27" viewBox="0 0 71 27" fill="none" xmlns="http://www.w3.org/2000/svg">
<g clip-path="url(#clip0_1227_1545)">
<path d="M7.09588 2.62607C9.32246 1.09748 11.8134 0.388765 14.4993 0.513832C20.5667 0.791758 24.4214 5.62767 24.658 11.1723C24.9085 17.1616 21.1372 23.1231 15.5151 25.4994C10.8115 27.4866 5.66252 26.4999 2.57315 22.7062C0.485731 20.1632 -0.251823 17.1894 0.0682476 13.9794C0.541395 9.43526 2.68448 5.80833 6.34441 3.07075C6.45574 2.98737 6.58099 2.94569 6.70623 2.8901C6.58099 3.08465 6.44183 3.2653 6.3305 3.45985C5.78777 4.47428 6.20525 5.64157 7.29071 6.10015C8.3205 6.54483 9.51729 6.03067 9.90694 4.97455C10.2966 3.94622 9.71211 2.80672 8.59882 2.57049C8.12568 2.47321 7.59686 2.61217 7.09588 2.62607ZM12.1057 10.0467C12.1057 11.7143 12.0918 13.354 12.1057 14.9938C12.1196 16.1333 12.0779 17.2728 12.2448 18.3845C12.4814 20.1076 13.4277 21.3444 15.1672 21.8169C16.698 22.2338 18.2566 22.0392 19.7735 21.6779C19.9265 21.6362 20.1631 21.4417 20.177 21.3166C20.2049 20.3856 20.1909 19.4545 20.1909 18.6624C19.0777 18.8292 18.0757 19.0932 17.0598 19.121C16.0857 19.1488 15.5151 18.6346 15.4595 17.648C15.3481 15.633 15.3621 13.6181 15.3342 11.6031C15.3203 11.075 15.3342 10.547 15.3342 9.94943C15.6682 9.94943 15.9048 9.94943 16.1553 9.94943C17.3103 9.94943 18.4793 9.96332 19.6343 9.93553C19.8152 9.93553 20.1631 9.78267 20.1631 9.6715C20.2049 8.85162 20.1909 8.03174 20.1909 7.14237C18.5071 7.14237 16.9346 7.14237 15.3064 7.14237C15.3064 5.83612 15.3064 4.58545 15.3064 3.34868C14.207 3.34868 13.1911 3.34868 12.0918 3.34868C12.0918 4.65493 12.0918 5.8917 12.0918 7.19796C11.549 7.19796 11.0759 7.19796 10.5332 7.19796C10.5332 7.58705 10.5192 7.90667 10.5332 8.24018C10.5471 8.76824 10.4079 9.40747 10.6584 9.79657C10.8115 10.0745 11.5351 9.97722 12.1057 10.0467ZM9.6147 21.8169C9.6147 16.8976 9.6147 12.0756 9.6147 7.26744C8.52924 7.26744 7.49945 7.26744 6.41399 7.26744C6.41399 8.32356 6.41399 9.3102 6.41399 10.2968C6.41399 13.9099 6.41399 17.5229 6.41399 21.136C6.41399 21.4278 6.28875 21.8308 6.83148 21.8308C7.73602 21.8169 8.64057 21.8169 9.6147 21.8169Z" fill="#333333"/>
<path d="M58.0441 15.1744C54.6347 15.1744 51.2948 15.1744 47.9828 15.1744C47.7184 16.4946 48.5951 18.1066 49.9171 18.7319C52.1437 19.788 54.245 19.2738 56.2768 18.1343C56.7082 17.8981 57.1674 17.7314 57.7797 17.4395C57.7797 18.6346 57.7936 19.5935 57.7658 20.5523C57.7658 20.6635 57.6127 20.8302 57.4875 20.8719C54.8852 21.928 52.2272 22.5117 49.4301 21.6779C46.5912 20.8302 44.8378 18.579 44.6429 15.6191C44.5316 13.9099 44.629 12.2562 45.3805 10.672C46.6051 8.08731 49.4718 6.50313 52.422 6.85054C55.9985 7.28133 57.9606 9.43526 58.0302 13.0483C58.058 13.7292 58.0441 14.3962 58.0441 15.1744ZM54.8017 12.5897C54.9408 11.214 54.0363 9.97721 53.0204 9.78266C52.3524 9.6437 51.6427 9.56032 50.9608 9.61591C49.3327 9.75487 48.122 10.9916 47.955 12.5897C50.2511 12.5897 52.5334 12.5897 54.8017 12.5897Z" fill="#333333"/>
<path d="M71 17.0504C71 18.2594 71.0139 19.3711 70.9861 20.4689C70.9861 20.6079 70.8608 20.8163 70.7356 20.8858C67.9524 22.192 65.1274 22.6645 62.2607 21.1915C60.3959 20.2327 59.4496 18.5512 59.0739 16.564C58.726 14.7158 58.7956 12.8815 59.5192 11.1028C60.5212 8.64315 62.4138 7.323 64.9882 6.97559C66.9504 6.71156 68.8152 7.12845 70.5686 8.01782C70.7495 8.11509 70.9722 8.36522 70.9861 8.54588C71.0278 9.67148 71 10.7971 71 11.9088C70.2207 11.3668 69.511 10.7832 68.7317 10.3524C66.9504 9.36576 64.6543 9.50472 63.4714 10.6998C62.9704 11.2001 62.5251 11.9088 62.4138 12.5897C62.2189 13.757 62.1215 15.0077 62.3163 16.1611C62.7338 18.6624 64.8769 19.8297 67.4653 19.121C68.1054 18.9403 68.7317 18.6763 69.3022 18.3428C69.8589 17.9954 70.3599 17.5368 71 17.0504Z" fill="#333333"/>
<path d="M24.7568 7.22567C25.8423 7.22567 26.8582 7.19788 27.8601 7.25346C28.041 7.26736 28.2776 7.51749 28.3611 7.71204C29.6553 10.7414 30.9356 13.7986 32.2576 16.9531C32.522 16.3833 32.7447 15.897 32.9534 15.4106C34.025 12.8537 35.0826 10.2968 36.1263 7.72594C36.2794 7.36463 36.4603 7.18398 36.8778 7.21177C37.7823 7.25346 38.6869 7.22567 39.6888 7.22567C39.3548 8.00386 39.0487 8.72647 38.7425 9.43518C37.0308 13.3678 35.3052 17.3005 33.6075 21.247C33.4266 21.6778 33.1761 21.7612 32.7447 21.8168C31.4505 21.9974 30.8382 21.525 30.3372 20.2743C28.6533 16.1054 26.7886 11.9921 25.0073 7.8649C24.9099 7.68425 24.8542 7.4897 24.7568 7.22567Z" fill="#333333"/>
<path d="M43.5989 21.7753C42.5413 21.7753 41.5811 21.7753 40.5513 21.7753C40.5513 16.9394 40.5513 12.1174 40.5513 7.26758C41.5532 7.26758 42.5413 7.26758 43.5989 7.26758C43.5989 12.0896 43.5989 16.9116 43.5989 21.7753Z" fill="#333333"/>
<path d="M42.0549 2.50098C43.1264 2.50098 43.9753 3.32086 43.9892 4.34919C44.0031 5.4192 43.1403 6.25298 42.027 6.23909C40.9972 6.22519 40.0927 5.33583 40.1066 4.34919C40.1205 3.33476 41.0112 2.50098 42.0549 2.50098Z" fill="#333333"/>
</g>
<defs>
<clipPath id="clip0_1227_1545">
<rect width="71" height="26" fill="white" transform="translate(0 0.5)"/>
</clipPath>
</defs>
</svg>
