<svg width="98" height="25" viewBox="0 0 98 25" fill="none" xmlns="http://www.w3.org/2000/svg">
<path d="M38.675 14.6429L44.0825 21.4286H39.8125L35 15.1964V21.4286H31.5V3.57143H35V14.0714L39.445 8.92857H43.9075L38.675 14.6429ZM24.675 8.57143C23.9086 8.58313 23.1565 8.78418 22.4829 9.15738C21.8094 9.53058 21.2345 10.0648 20.8075 10.7143V8.92857H17.5V21.4286H21V15.5893C20.954 15.1655 20.9941 14.7365 21.1176 14.3291C21.2411 13.9218 21.4455 13.5447 21.718 13.2214C21.9905 12.8981 22.3253 12.6355 22.7015 12.45C23.0778 12.2644 23.4874 12.1599 23.905 12.1429C25.935 12.1429 26.25 14.1786 26.25 15.5893V21.4286H29.75V14.8036C29.75 10.875 28.4725 8.57143 24.745 8.57143H24.675ZM56 15.4643C56.0134 15.726 56.0134 15.9883 56 16.25H46.8125V16.375C46.9616 17.1197 47.3659 17.7857 47.9528 18.2537C48.5397 18.7217 49.2708 18.9609 50.015 18.9286C50.6053 18.9548 51.1948 18.8591 51.7481 18.6474C52.3014 18.4357 52.8071 18.1123 53.235 17.6964L55.5625 19.4821C54.8248 20.2503 53.9376 20.8521 52.958 21.2489C51.9784 21.6457 50.9281 21.8285 49.875 21.7857C49.0028 21.842 48.129 21.7066 47.3125 21.3887C46.496 21.0709 45.7559 20.5779 45.1421 19.9431C44.5283 19.3083 44.0551 18.5465 43.7546 17.7092C43.4541 16.8718 43.3332 15.9784 43.4 15.0893C43.3821 14.2116 43.5415 13.3395 43.8684 12.5274C44.1952 11.7153 44.6825 10.9806 45.2999 10.3691C45.9172 9.7576 46.6513 9.2824 47.4565 8.97312C48.2617 8.66383 49.1207 8.5271 49.98 8.57143C53.27 8.57143 56 10.9464 56 15.4643ZM52.745 13.9286C52.7321 13.5749 52.6488 13.2275 52.5002 12.9077C52.3515 12.5879 52.1405 12.3024 51.8802 12.0685C51.6199 11.8346 51.3156 11.6572 50.9859 11.5472C50.6562 11.4372 50.308 11.3968 49.9625 11.4286C49.2222 11.3469 48.4798 11.562 47.892 12.0285C47.3042 12.495 46.9172 13.1763 46.8125 13.9286H52.745ZM3.5 3.57143H0V21.4286H10.5V17.8571H3.5V3.57143ZM66.5 3.57143H70V21.4286H66.6925V20.1786C66.2725 20.7066 65.7372 21.1269 65.1294 21.406C64.5217 21.6851 63.8583 21.8151 63.1925 21.7857C62.3791 21.7644 61.5785 21.5736 60.84 21.2249C60.1015 20.8763 59.4407 20.3772 58.8982 19.7584C58.3556 19.1396 57.9429 18.4141 57.6852 17.6265C57.4276 16.8389 57.3305 16.0058 57.4 15.1786C57.3174 14.3501 57.4046 13.5131 57.6562 12.721C57.9079 11.9288 58.3183 11.1987 58.8616 10.5773C59.4048 9.95578 60.0688 9.45649 60.8114 9.11116C61.554 8.76583 62.359 8.58202 63.175 8.57143C63.7828 8.54427 64.3898 8.64081 64.9606 8.85542C65.5315 9.07002 66.0548 9.3984 66.5 9.82143V3.57143ZM66.7625 15.1786C66.8176 14.7662 66.7853 14.3466 66.6679 13.948C66.5506 13.5495 66.3508 13.1812 66.0821 12.8681C65.8134 12.5551 65.4821 12.3044 65.1104 12.1331C64.7387 11.9617 64.3353 11.8737 63.9275 11.875C63.1227 11.9346 62.373 12.3141 61.8396 12.9319C61.3062 13.5497 61.0316 14.3564 61.075 15.1786C61.0316 16.0007 61.3062 16.8075 61.8396 17.4252C62.373 18.043 63.1227 18.4225 63.9275 18.4821C64.3353 18.4834 64.7387 18.3954 65.1104 18.2241C65.4821 18.0528 65.8134 17.8021 66.0821 17.489C66.3508 17.1759 66.5506 16.8077 66.6679 16.4091C66.7853 16.0105 66.8176 15.5909 66.7625 15.1786ZM14 3.21429C13.4372 3.22246 12.8985 3.44819 12.4925 3.84591C12.0865 4.24363 11.8435 4.78372 11.8125 5.35714C11.8125 5.94914 12.043 6.5169 12.4532 6.93551C12.8634 7.35411 13.4198 7.58929 14 7.58929C14.5802 7.58929 15.1366 7.35411 15.5468 6.93551C15.957 6.5169 16.1875 5.94914 16.1875 5.35714C16.1565 4.78372 15.9135 4.24363 15.5075 3.84591C15.1015 3.44819 14.5628 3.22246 14 3.21429ZM12.25 21.4286H15.75V8.92857H12.25V21.4286ZM98 1.78571V23.2143C98 23.6879 97.8156 24.1421 97.4874 24.477C97.1592 24.8119 96.7141 25 96.25 25H75.25C74.7859 25 74.3408 24.8119 74.0126 24.477C73.6844 24.1421 73.5 23.6879 73.5 23.2143V1.78571C73.5 1.31211 73.6844 0.85791 74.0126 0.523024C74.3408 0.188137 74.7859 0 75.25 0L96.25 0C96.7141 0 97.1592 0.188137 97.4874 0.523024C97.8156 0.85791 98 1.31211 98 1.78571ZM80.5 8.92857H77V21.4286H80.5V8.92857ZM80.9375 5.35714C80.9375 4.76514 80.707 4.19739 80.2968 3.77878C79.8866 3.36017 79.3302 3.125 78.75 3.125C78.1698 3.125 77.6134 3.36017 77.2032 3.77878C76.793 4.19739 76.5625 4.76514 76.5625 5.35714C76.5625 5.94914 76.793 6.5169 77.2032 6.93551C77.6134 7.35411 78.1698 7.58929 78.75 7.58929C79.3302 7.58929 79.8866 7.35411 80.2968 6.93551C80.707 6.5169 80.9375 5.94914 80.9375 5.35714ZM94.5 14.8036C94.5 10.875 93.2225 8.57143 89.495 8.57143C88.7168 8.57153 87.9505 8.76705 87.2638 9.14076C86.5771 9.51446 85.9911 10.0549 85.5575 10.7143V8.92857H82.25V21.4286H85.75V15.5893C85.704 15.1655 85.7441 14.7365 85.8676 14.3291C85.9911 13.9218 86.1955 13.5447 86.468 13.2214C86.7405 12.8981 87.0753 12.6355 87.4515 12.45C87.8278 12.2644 88.2374 12.1599 88.655 12.1429C90.685 12.1429 91 14.1786 91 15.5893V21.4286H94.5V14.8036Z" fill="#333333"/>
</svg>
