<svg width="102" height="36" viewBox="0 0 102 36" fill="none" xmlns="http://www.w3.org/2000/svg">
<g clip-path="url(#clip0_1462_6013)">
<path d="M27.1884 8.04944C27.2291 7.92809 27.2291 7.84719 27.107 7.84719V7.64494C27.0663 7.4427 26.9442 7.48315 26.9442 7.48315C26.9442 7.48315 26.9849 7.32135 26.9442 7.2809C26.822 7.1191 26.5778 7.24045 26.5778 7.24045C26.5778 7.24045 26.5371 7.2809 26.415 7.2C26.2522 7.1191 25.601 7.4427 25.4382 7.56404C25.3161 7.68539 24.6648 8.25169 24.502 8.21124C24.3392 8.17079 24.2985 7.4427 24.2985 7.4427C24.2985 7.4427 24.0543 7.40225 24.0543 7.56404C24.0543 7.72584 24.1357 8.49438 24.1357 8.49438L24.0136 8.85843L23.9729 8.93933C23.8508 8.77753 23.7287 8.65618 23.7287 8.65618C23.3216 9.06067 23.1181 9.74831 21.8564 9.82921C20.6353 9.91011 19.6584 9.95056 19.3735 9.70786C19.0886 9.42472 18.2746 8.21124 18.1932 8.00899C18.1118 7.80674 17.0942 7.68539 17.0942 7.68539L16.1987 6.79551C16.1987 6.79551 16.8093 5.82472 16.2801 5.05618C16.0766 4.77303 15.9545 4.28764 14.3671 4.28764C12.7797 4.28764 13.4717 4.69213 13.2682 4.97528C13.0647 5.25843 12.9426 5.74382 12.9426 5.74382L11.3959 3.80225L11.2738 3.9236C11.1517 3.6809 10.9074 3.2764 10.8667 3.15506C10.826 3.03371 10.3376 2.87191 10.012 2.79101L9.88985 0.566292L8.26176 0L6.95929 0.0404494L6.63367 6.02697L8.9944 6.79551H10.0527V4.28764L10.419 4.65169L11.3145 6.22921L11.8029 6.79551L11.6808 7.40225L12.7797 9.30337L12.2913 10.8L12.3727 11.5685L11.5994 13.1461C11.5994 13.1461 8.62808 15.4921 8.58738 15.7348C8.50598 16.018 9.80845 16.5438 10.0527 16.5438C10.2562 16.5438 10.2562 17.2315 10.2562 17.2315L8.46527 18.809L6.79648 19.982L4.67996 21.2764C4.67996 21.2764 3.17397 21.6 3.09257 21.964C3.01116 22.2876 2.60414 22.8539 2.60414 22.8539L1.58658 22.773L0.487619 22.6517C0.487619 22.6517 -0.122916 22.7326 0.0805956 23.0562C0.284107 23.3798 1.22026 24.1079 1.50518 24.1483C2.19712 24.2292 1.99361 24.7146 1.99361 24.7146L2.56344 25.2L3.17397 24.7955C3.17397 24.7955 3.98802 24.7955 4.19153 24.5933C4.39504 24.391 4.96488 23.7034 4.96488 23.7034C4.96488 23.7034 7.0814 22.6112 7.44772 22.4899C7.77333 22.3685 9.72705 21.5191 10.1341 21.4787C10.5411 21.3978 11.925 20.9124 11.925 20.9124C11.925 20.9124 12.2506 22.2876 12.9426 23.3798C13.6345 24.4719 13.2682 26.4539 13.3496 26.818C13.431 27.1416 13.7566 28.9213 13.838 29.3663C13.9194 29.7708 14.53 30.8225 14.53 30.8225C14.53 30.8225 14.4078 32.6022 14.4485 32.8045C14.4485 32.8449 14.4892 32.8449 14.4892 32.8045L14.4485 33.4921V34.382C14.4485 34.382 14.2857 35.1506 14.53 35.5955C14.8963 36.2022 15.5475 36.0404 15.9138 35.6764C16.2394 35.3528 16.2394 34.018 16.2394 34.018L16.0359 33.209V32.6427L17.0128 32.5213L16.6872 30.1348V28.9213L16.0766 26.2517L16.3616 25.2404L16.0766 24.2697L16.2801 19.4562C16.2801 19.4562 18.1932 18.364 18.2746 18.1618C18.356 17.9596 18.1932 17.4742 18.1932 17.4742L17.4198 16.7056L17.5012 14.9258L17.2163 14.6427V12.9843L18.3153 11.609C18.3153 11.609 21.775 11.8921 22.1006 11.7303C22.4262 11.609 24.8683 10.5573 24.8683 10.2337C24.8683 10.1528 24.8276 10.0719 24.7462 9.95056C24.8683 9.91011 25.0311 9.86966 25.1533 9.86966C25.6417 9.82921 25.9266 9.50562 25.9673 9.46517C26.008 9.38427 26.822 9.02022 26.9035 8.97978C26.9849 8.89888 26.9849 8.77753 26.9035 8.73708C26.822 8.65618 26.3336 8.93933 26.3336 8.93933C26.3336 8.93933 27.1477 8.25169 27.1884 8.04944Z" fill="#333333"/>
<path d="M27.432 15.573L24.827 21.7213H24.42L21.6523 15.573H22.3035L24.5828 20.6697L26.7808 15.573H27.432Z" fill="#333333"/>
<path d="M29.3857 12.418V13.5101H28.7344V12.418H29.3857ZM29.3857 15.573V21.6H28.7344V15.573H29.3857Z" fill="#333333"/>
<path d="M36.2653 18.364H31.5438C31.5438 18.4854 31.5438 18.5663 31.5438 18.6876C31.5438 19.3753 31.788 19.9416 32.2764 20.3865C32.7649 20.8719 33.3347 21.0742 33.9859 21.0742C34.7593 21.0742 35.4919 20.791 36.2246 20.1843V20.9124C35.5326 21.4382 34.7593 21.7213 33.9045 21.7213C33.0498 21.7213 32.3171 21.4382 31.7473 20.8315C31.1775 20.2247 30.8926 19.4562 30.8926 18.5258C30.8926 17.636 31.1368 16.9079 31.6659 16.3416C32.195 15.7753 32.8463 15.4517 33.6603 15.4517C34.393 15.4517 35.0442 15.6944 35.5733 16.2202C36.0211 16.7461 36.2653 17.4742 36.2653 18.364ZM31.6252 17.8382H35.5326C35.2884 16.6652 34.6779 16.0989 33.6196 16.0989C33.1312 16.0989 32.6835 16.2607 32.3578 16.5438C31.9508 16.8674 31.7066 17.2719 31.6252 17.8382Z" fill="#333333"/>
<path d="M38.9098 13.5506V15.5326H40.6193V16.0584H38.9098V19.6584C38.9098 20.2247 38.9505 20.6292 39.0319 20.791C39.1134 20.9528 39.3983 21.0742 39.8053 21.0742C40.1309 21.0742 40.4972 20.9933 40.9043 20.791V21.3978C40.4565 21.6 40.0495 21.7213 39.6425 21.7213C39.2355 21.7213 38.9098 21.6 38.6249 21.3978C38.34 21.1551 38.2179 20.8719 38.2179 20.4674V16.0989H36.5898V15.573H38.2179V14.1169L38.6656 13.5506H38.9098Z" fill="#333333"/>
<path d="M42.9403 15.573V16.6247H42.981C43.5101 15.8562 44.1614 15.4517 44.9754 15.4517C45.6673 15.4517 46.1965 15.6539 46.6442 16.0989C47.0512 16.5438 47.2547 17.1506 47.2547 17.9191V21.6H46.6035V18.1618C46.6035 16.7865 46.0337 16.0989 44.9347 16.0989C44.1207 16.0989 43.4694 16.5438 42.9403 17.3933V21.6H42.2891V15.573H42.9403Z" fill="#333333"/>
<path d="M53.7662 20.5483V21.0742C53.1964 21.4786 52.7893 21.6809 52.5451 21.6809C52.3823 21.6809 52.3009 21.6404 52.2195 21.5191C52.1788 21.4382 52.1381 21.236 52.0974 20.9124C51.4462 21.4382 50.8356 21.6809 50.1844 21.6809C49.7367 21.6809 49.3296 21.5191 49.004 21.236C48.6784 20.9528 48.5156 20.5888 48.5156 20.1438C48.5156 19.4966 48.8005 18.9708 49.4517 18.6067C50.0623 18.2427 50.9577 18 52.0974 17.9595V17.191C52.0974 16.382 51.6497 15.9371 50.7542 15.9371C50.1844 15.9371 49.5739 16.1798 48.8819 16.7056V16.0584C49.5739 15.6135 50.2251 15.4112 50.8356 15.4112C51.4055 15.4112 51.8532 15.5326 52.1788 15.8157C52.5451 16.0989 52.7079 16.4629 52.7079 16.9888V20.7506C52.7079 20.9528 52.7486 21.0742 52.8707 21.0742C53.0335 21.0742 53.3185 20.9124 53.7662 20.5483ZM52.0974 20.3865V18.5258C51.2426 18.4854 50.5507 18.6472 50.0216 18.9708C49.4517 19.2944 49.2075 19.6989 49.2075 20.1843C49.2075 20.4674 49.3296 20.7101 49.5331 20.8719C49.7774 21.0742 50.0623 21.1551 50.3879 21.1551C50.9577 21.1955 51.5276 20.9124 52.0974 20.3865Z" fill="#333333"/>
<path d="M55.5985 15.573V16.6247H55.6392C56.1277 15.8157 56.7789 15.4112 57.5929 15.4112C58.5291 15.4112 59.1803 15.8966 59.5467 16.8674C60.1165 15.8966 60.8084 15.4112 61.6632 15.4112C62.3144 15.4112 62.8028 15.6539 63.2099 16.0989C63.6169 16.5438 63.7797 17.1506 63.7797 17.8786V21.6H63.1285V18.2022C63.1285 17.5551 63.0064 17.0292 62.7214 16.6652C62.4365 16.3011 62.0702 16.0989 61.5411 16.0989C61.1748 16.0989 60.8491 16.2202 60.5642 16.4225C60.2793 16.6247 59.9944 16.9888 59.7095 17.5146V21.6H59.0582V18.1618C59.0582 17.4742 58.8954 16.9888 58.6105 16.6247C58.3256 16.2607 57.9186 16.0989 57.4301 16.0989C56.7382 16.0989 56.1277 16.5438 55.5985 17.3933V21.6H54.9473V15.573H55.5985Z" fill="#333333"/>
<path d="M75.095 15.2899L72.6122 21.6H71.1876L69.763 18.1618L68.3385 21.6H66.9139L64.3496 15.2899H66.629L67.7686 18.4854L68.9897 15.2899H70.4143L71.6761 18.4854L72.775 15.2899H75.095Z" fill="#333333"/>
<path d="M82.2177 18.4449C82.2177 19.0921 82.0956 19.618 81.8107 20.1034C81.5258 20.5888 81.1188 20.9933 80.5897 21.2764C80.0605 21.5595 79.3686 21.7213 78.5952 21.7213C77.8219 21.7213 77.1707 21.5595 76.6008 21.2764C76.0717 20.9933 75.6647 20.5888 75.3798 20.1034C75.0948 19.618 74.9727 19.0517 74.9727 18.4449C74.9727 17.9596 75.0541 17.5551 75.2169 17.1506C75.3798 16.7461 75.5833 16.4225 75.9089 16.0989C76.2345 15.8157 76.6008 15.573 77.0486 15.4112C77.4963 15.2494 78.0254 15.1685 78.5952 15.1685C79.2058 15.1685 79.7349 15.2494 80.1826 15.4112C80.6304 15.573 81.0374 15.8157 81.3223 16.0989C81.6072 16.382 81.8514 16.7461 82.0142 17.1101C82.1363 17.5551 82.2177 17.9596 82.2177 18.4449ZM79.8977 18.4449C79.8977 17.9596 79.7756 17.5551 79.5721 17.2719C79.3686 16.9888 79.043 16.8674 78.6359 16.8674C78.2289 16.8674 77.9033 16.9888 77.6998 17.2719C77.4963 17.5551 77.3742 17.9596 77.3742 18.4449C77.3742 18.9303 77.4963 19.3348 77.6998 19.618C77.9033 19.9011 78.2289 20.0629 78.6359 20.0629C79.043 20.0629 79.3686 19.9011 79.5721 19.618C79.7756 19.3348 79.8977 18.9708 79.8977 18.4449Z" fill="#333333"/>
<path d="M88.6488 15.6539L87.8348 17.8786C87.5092 17.5551 87.1428 17.3933 86.8172 17.3933C86.4916 17.3933 86.2474 17.5146 86.0032 17.7168C85.759 17.9191 85.5554 18.3236 85.3519 18.8899V21.6H83.1133V15.2899H85.3519V16.827C85.474 16.4629 85.759 16.0989 86.0846 15.7348C86.4509 15.3708 86.8579 15.209 87.3464 15.209C87.5906 15.209 87.8348 15.2494 87.9976 15.3303C88.1604 15.3708 88.3639 15.4921 88.6488 15.6539Z" fill="#333333"/>
<path d="M96.7074 21.6H93.8582L91.4161 18.6067V21.6H89.1367V13.0247H91.4161V18.0809L93.6547 15.3303H96.341L93.8582 18.2831L96.7074 21.6Z" fill="#333333"/>
<path d="M102 19.7798C102 20.3461 101.796 20.8315 101.349 21.1955C100.942 21.5596 100.29 21.7213 99.4763 21.7213C99.0286 21.7213 98.5809 21.6809 98.2146 21.6C97.8483 21.5191 97.4412 21.3978 97.0342 21.236V19.6584C97.4005 19.8607 97.7262 20.0225 98.0111 20.1438C98.296 20.2652 98.5809 20.3056 98.9065 20.3056C99.4763 20.3056 99.7613 20.1438 99.7613 19.8607C99.7613 19.7393 99.7206 19.6584 99.6392 19.5775C99.5578 19.4966 99.4356 19.4157 99.2321 19.2944C99.0286 19.2135 98.7437 19.0921 98.4181 18.9303C98.0111 18.7685 97.6447 18.5258 97.3598 18.2022C97.0749 17.8787 96.9121 17.5146 96.9121 17.0697C96.9121 16.7461 96.9935 16.4629 97.197 16.1798C97.4005 15.8966 97.6854 15.6539 98.0518 15.4517C98.4588 15.2494 98.9065 15.1685 99.4763 15.1685C99.5985 15.1685 99.7613 15.1685 99.9648 15.209C100.168 15.209 100.412 15.2899 100.738 15.3708C101.064 15.4517 101.349 15.573 101.634 15.6944V17.2315C101.511 17.1506 101.389 17.0697 101.308 17.0292C101.227 16.9888 101.104 16.9079 100.942 16.8674C100.779 16.7865 100.616 16.7461 100.412 16.7056C100.209 16.6652 100.005 16.6247 99.802 16.6247C99.5577 16.6247 99.3542 16.6652 99.2728 16.7865C99.1914 16.8674 99.11 16.9888 99.11 17.0697C99.11 17.191 99.1507 17.2719 99.2728 17.3528C99.3542 17.4337 99.5985 17.5551 99.9241 17.6764C100.412 17.8787 100.82 18.0404 101.104 18.2427C101.389 18.4449 101.634 18.6472 101.756 18.8899C101.959 19.173 102 19.4562 102 19.7798Z" fill="#333333"/>
</g>
<defs>
<clipPath id="clip0_1462_6013">
<rect width="102" height="36" fill="white"/>
</clipPath>
</defs>
</svg>
