<svg width="38" height="38" viewBox="0 0 38 38" fill="none" xmlns="http://www.w3.org/2000/svg">
<path d="M19 38C29.4934 38 38 29.4934 38 19C38 8.50659 29.4934 0 19 0C8.50659 0 0 8.50659 0 19C0 29.4934 8.50659 38 19 38Z" fill="white"/>
<path fill-rule="evenodd" clip-rule="evenodd" d="M19 3C10.1634 3 3 10.1634 3 19C3 27.8366 10.1634 35 19 35C27.8366 35 35 27.8366 35 19C35 10.1634 27.8366 3 19 3ZM0 19C0 8.50659 8.50659 0 19 0C29.4934 0 38 8.50659 38 19C38 29.4934 29.4934 38 19 38C8.50659 38 0 29.4934 0 19Z" fill="url(#paint0_linear_1097_1456)"/>
<path d="M12.4377 16.75C12.4128 16.7489 12.3879 16.7531 12.3647 16.7621C12.3414 16.7712 12.3203 16.7849 12.3027 16.8026C12.2851 16.8202 12.2713 16.8413 12.2623 16.8645C12.2532 16.8877 12.2491 16.9126 12.2502 16.9375V18.25C12.2502 18.3495 12.2897 18.4448 12.36 18.5152C12.4303 18.5855 12.5257 18.625 12.6252 18.625H14.6952C14.749 18.6245 14.8024 18.6357 14.8516 18.6577C14.9007 18.6797 14.9446 18.712 14.9802 18.7525C15.0153 18.7919 15.0415 18.8385 15.0571 18.8889C15.0726 18.9394 15.0771 18.9926 15.0702 19.045C15.0662 19.0924 15.0662 19.1401 15.0702 19.1875C15.0702 19.5356 15.2084 19.8694 15.4546 20.1156C15.7007 20.3617 16.0346 20.5 16.3827 20.5C16.7308 20.5 17.0646 20.3617 17.3107 20.1156C17.5569 19.8694 17.6952 19.5356 17.6952 19.1875C17.6991 19.1401 17.6991 19.0924 17.6952 19.045C17.6883 18.9926 17.6927 18.9394 17.7083 18.8889C17.7238 18.8385 17.75 18.7919 17.7852 18.7525C17.8207 18.712 17.8646 18.6797 17.9138 18.6577C17.9629 18.6357 18.0163 18.6245 18.0702 18.625H19.2027C19.3021 18.625 19.3975 18.5855 19.4678 18.5152C19.5382 18.4448 19.5777 18.3495 19.5777 18.25V17.4325C19.5781 17.3491 19.5501 17.2679 19.4983 17.2025C19.4465 17.1371 19.374 17.0912 19.2927 17.0725C18.81 16.9822 18.3755 16.7227 18.0671 16.3406C17.7587 15.9586 17.5967 15.479 17.6102 14.9882C17.6238 14.4974 17.812 14.0275 18.141 13.6631C18.47 13.2986 18.9183 13.0635 19.4052 13C19.4489 12.9914 19.4884 12.9682 19.517 12.9341C19.5457 12.8999 19.5618 12.857 19.5627 12.8125V11.125H13.0002C12.8013 11.125 12.6105 11.204 12.4698 11.3447C12.3292 11.4853 12.2502 11.6761 12.2502 11.875V13.1875C12.2502 13.2372 12.2699 13.2849 12.3051 13.3201C12.3402 13.3552 12.3879 13.375 12.4377 13.375C12.8852 13.375 13.3144 13.5528 13.6309 13.8693C13.9474 14.1857 14.1252 14.6149 14.1252 15.0625C14.1252 15.5101 13.9474 15.9393 13.6309 16.2557C13.3144 16.5722 12.8852 16.75 12.4377 16.75Z" fill="#132A3E"/>
<path d="M20.6876 11.125C20.5881 11.125 20.4927 11.1645 20.4224 11.2348C20.3521 11.3052 20.3126 11.4005 20.3126 11.5V13.3825C20.313 13.4364 20.3019 13.4897 20.2799 13.5389C20.2579 13.5881 20.2255 13.6319 20.1851 13.6675C20.1456 13.7026 20.0991 13.7289 20.0486 13.7444C19.9981 13.7599 19.9449 13.7644 19.8926 13.7575C19.7094 13.7378 19.5242 13.7569 19.349 13.8136C19.1737 13.8702 19.0123 13.9631 18.8753 14.0861C18.7383 14.2092 18.6287 14.3598 18.5537 14.528C18.4787 14.6962 18.4399 14.8783 18.4399 15.0625C18.4399 15.2467 18.4787 15.4288 18.5537 15.597C18.6287 15.7652 18.7383 15.9158 18.8753 16.0389C19.0123 16.1619 19.1737 16.2548 19.349 16.3114C19.5242 16.3681 19.7094 16.3872 19.8926 16.3675C19.9438 16.3607 19.9958 16.3652 20.0451 16.3808C20.0943 16.3964 20.1395 16.4225 20.1776 16.4575C20.218 16.4931 20.2504 16.5369 20.2724 16.5861C20.2944 16.6353 20.3055 16.6886 20.3051 16.7425V18.2425C20.3051 18.342 20.3446 18.4373 20.4149 18.5077C20.4852 18.578 20.5806 18.6175 20.6801 18.6175H21.3101C21.3935 18.6179 21.4746 18.5899 21.54 18.5381C21.6055 18.4863 21.6513 18.4138 21.6701 18.3325C21.7747 17.8777 22.0304 17.4719 22.3955 17.1813C22.7606 16.8906 23.2134 16.7324 23.6801 16.7324C24.1467 16.7324 24.5995 16.8906 24.9646 17.1813C25.3297 17.4719 25.5854 17.8777 25.6901 18.3325C25.7088 18.4138 25.7546 18.4863 25.8201 18.5381C25.8855 18.5899 25.9666 18.6179 26.0501 18.6175H27.2501C27.3495 18.6175 27.4449 18.578 27.5152 18.5077C27.5855 18.4373 27.6251 18.342 27.6251 18.2425V11.875C27.6251 11.6761 27.546 11.4853 27.4054 11.3447C27.2647 11.204 27.074 11.125 26.8751 11.125H25.5626C25.5128 11.125 25.4651 11.1448 25.43 11.1799C25.3948 11.2151 25.3751 11.2628 25.3751 11.3125C25.3751 11.7601 25.1973 12.1893 24.8808 12.5057C24.5643 12.8222 24.1351 13 23.6876 13C23.24 13 22.8108 12.8222 22.4943 12.5057C22.1778 12.1893 22.0001 11.7601 22.0001 11.3125C21.9985 11.2628 21.98 11.2152 21.9476 11.1775C21.9099 11.1451 21.8622 11.1266 21.8126 11.125H20.6876Z" fill="#132A3E"/>
<path d="M19.5625 24.6175C19.562 24.5636 19.5732 24.5103 19.5952 24.4611C19.6172 24.4119 19.6495 24.3681 19.69 24.3325C19.7287 24.2989 19.7742 24.2741 19.8234 24.2598C19.8726 24.2456 19.9244 24.2422 19.975 24.25C20.1581 24.2697 20.3433 24.2506 20.5186 24.1939C20.6939 24.1373 20.8552 24.0445 20.9923 23.9214C21.1293 23.7983 21.2388 23.6477 21.3138 23.4795C21.3888 23.3113 21.4276 23.1292 21.4276 22.945C21.4276 22.7608 21.3888 22.5787 21.3138 22.4105C21.2388 22.2423 21.1293 22.0917 20.9923 21.9686C20.8552 21.8456 20.6939 21.7527 20.5186 21.6961C20.3433 21.6394 20.1581 21.6203 19.975 21.64C19.8695 21.6494 19.7645 21.6171 19.6825 21.55C19.642 21.5144 19.6097 21.4706 19.5877 21.4214C19.5657 21.3722 19.5545 21.3189 19.555 21.265V19.75C19.555 19.6505 19.5155 19.5552 19.4452 19.4848C19.3748 19.4145 19.2795 19.375 19.18 19.375H18.7375C18.6541 19.3746 18.5729 19.4026 18.5075 19.4544C18.4421 19.5062 18.3962 19.5787 18.3775 19.66C18.2729 20.1148 18.0171 20.5206 17.6521 20.8112C17.287 21.1019 16.8341 21.2601 16.3675 21.2601C15.9009 21.2601 15.448 21.1019 15.0829 20.8112C14.7179 20.5206 14.4621 20.1148 14.3575 19.66C14.3388 19.5787 14.2929 19.5062 14.2275 19.4544C14.1621 19.4026 14.0809 19.3746 13.9975 19.375H12.625C12.5255 19.375 12.4302 19.4145 12.3598 19.4848C12.2895 19.5552 12.25 19.6505 12.25 19.75V21.0625C12.25 21.1122 12.2302 21.1599 12.1951 21.1951C12.1599 21.2303 12.1122 21.25 12.0625 21.25C11.6149 21.25 11.1857 21.4278 10.8693 21.7443C10.5528 22.0607 10.375 22.49 10.375 22.9375C10.375 23.3851 10.5528 23.8143 10.8693 24.1307C11.1857 24.4472 11.6149 24.625 12.0625 24.625C12.1122 24.6266 12.1598 24.6451 12.1975 24.6775C12.2299 24.7152 12.2484 24.7628 12.25 24.8125V26.125C12.25 26.3239 12.329 26.5147 12.4697 26.6553C12.6103 26.796 12.8011 26.875 13 26.875H19.5625V24.6175Z" fill="#132A3E"/>
<path d="M25.3675 19.375C25.3136 19.3755 25.2603 19.3643 25.2111 19.3423C25.1619 19.3203 25.1181 19.288 25.0825 19.2475C25.0474 19.2081 25.0211 19.1615 25.0056 19.1111C24.9901 19.0606 24.9856 19.0074 24.9925 18.955C24.9964 18.9076 24.9964 18.8599 24.9925 18.8125C24.9925 18.4644 24.8542 18.1306 24.6081 17.8844C24.3619 17.6383 24.0281 17.5 23.68 17.5C23.3319 17.5 22.9981 17.6383 22.7519 17.8844C22.5058 18.1306 22.3675 18.4644 22.3675 18.8125C22.3636 18.8599 22.3636 18.9076 22.3675 18.955C22.3744 19.0074 22.3699 19.0606 22.3544 19.1111C22.3389 19.1615 22.3126 19.2081 22.2775 19.2475C22.2419 19.288 22.1981 19.3203 22.1489 19.3423C22.0997 19.3643 22.0464 19.3755 21.9925 19.375H20.6875C20.588 19.375 20.4927 19.4145 20.4223 19.4848C20.352 19.5552 20.3125 19.6505 20.3125 19.75V20.5675C20.3121 20.6509 20.3401 20.7321 20.3919 20.7975C20.4437 20.8629 20.5162 20.9088 20.5975 20.9275C21.0523 21.0321 21.4581 21.2879 21.7487 21.6529C22.0394 22.018 22.1976 22.4709 22.1976 22.9375C22.1976 23.4041 22.0394 23.857 21.7487 24.2221C21.4581 24.5871 21.0523 24.8429 20.5975 24.9475C20.5162 24.9662 20.4437 25.0121 20.3919 25.0775C20.3401 25.1429 20.3121 25.2241 20.3125 25.3075V26.5C20.3125 26.5995 20.352 26.6948 20.4223 26.7652C20.4927 26.8355 20.588 26.875 20.6875 26.875H26.875C27.0739 26.875 27.2647 26.796 27.4053 26.6553C27.546 26.5147 27.625 26.3239 27.625 26.125V19.75C27.625 19.6505 27.5855 19.5552 27.5152 19.4848C27.4448 19.4145 27.3495 19.375 27.25 19.375H25.3675Z" fill="#132A3E"/>
<defs>
<linearGradient id="paint0_linear_1097_1456" x1="31.5472" y1="2.5094" x2="19" y2="38" gradientUnits="userSpaceOnUse">
<stop stop-color="#F952C1"/>
<stop offset="1" stop-color="#F8AF6F"/>
</linearGradient>
</defs>
</svg>
