<svg width="38" height="38" viewBox="0 0 38 38" fill="none" xmlns="http://www.w3.org/2000/svg">
<path d="M24.4296 19.75C23.8498 19.749 23.284 19.9282 22.8104 20.2627C22.3368 20.5973 21.9789 21.0708 21.7862 21.6177C21.5935 22.1646 21.5755 22.7578 21.7346 23.3154C21.8938 23.8729 22.2223 24.3673 22.6746 24.73C22.6987 24.7497 22.7175 24.7752 22.7292 24.804C22.741 24.8328 22.7455 24.8641 22.7421 24.895C22.7382 24.9267 22.7266 24.9569 22.7083 24.9831C22.69 25.0092 22.6656 25.0305 22.6371 25.045C22.1495 25.2937 21.7223 25.6462 21.3854 26.0777C21.0485 26.5091 20.8102 27.0091 20.6871 27.5425C20.6761 27.5974 20.6773 27.654 20.6906 27.7083C20.7039 27.7627 20.7289 27.8135 20.764 27.8571C20.799 27.9007 20.8432 27.9362 20.8934 27.9608C20.9437 27.9855 20.9987 27.9989 21.0546 28H27.6246C27.6806 27.9989 27.7356 27.9855 27.7858 27.9608C27.836 27.9362 27.8802 27.9007 27.9153 27.8571C27.9503 27.8135 27.9754 27.7627 27.9886 27.7083C28.0019 27.654 28.0031 27.5974 27.9921 27.5425C27.8732 27.0254 27.646 26.5394 27.3254 26.1166C27.0047 25.6939 26.598 25.3439 26.1321 25.09C26.1051 25.0746 26.0821 25.0529 26.0652 25.0268C26.0482 25.0007 26.0377 24.971 26.0346 24.94C26.0334 24.9096 26.0396 24.8794 26.0527 24.852C26.0658 24.8246 26.0853 24.8007 26.1096 24.7825C26.5782 24.4298 26.9241 23.9387 27.0983 23.3786C27.2726 22.8186 27.2664 22.218 27.0807 21.6617C26.895 21.1053 26.5391 20.6215 26.0634 20.2784C25.5876 19.9354 25.0161 19.7505 24.4296 19.75ZM25.7496 22.555C25.7626 22.8919 25.6439 23.2206 25.4187 23.4715C25.1935 23.7225 24.8795 23.8759 24.5431 23.8993C24.2068 23.9227 23.8745 23.8142 23.6168 23.5969C23.359 23.3796 23.1959 23.0705 23.1621 22.735C23.1584 22.7066 23.1613 22.6776 23.1706 22.6505C23.1799 22.6233 23.1952 22.5987 23.2155 22.5784C23.2358 22.5581 23.2605 22.5427 23.2876 22.5335C23.3148 22.5242 23.3437 22.5213 23.3721 22.525C23.5045 22.5327 23.6372 22.5327 23.7696 22.525C24.3546 22.5245 24.9291 22.3693 25.4346 22.075C25.4607 22.0639 25.4888 22.0581 25.5171 22.0581C25.5455 22.0581 25.5735 22.0639 25.5996 22.075C25.6249 22.0861 25.6474 22.1025 25.6655 22.1233C25.6837 22.144 25.697 22.1685 25.7046 22.195C25.7369 22.3122 25.7521 22.4335 25.7496 22.555Z" fill="#132A3E"/>
<path d="M12.8125 17.3125C12.8145 17.66 12.9534 17.9927 13.1991 18.2384C13.4448 18.4841 13.7775 18.623 14.125 18.625H18.4375C18.537 18.625 18.6323 18.6645 18.7027 18.7348C18.773 18.8052 18.8125 18.9005 18.8125 19V20.3125C18.8117 20.4233 18.8442 20.5319 18.9057 20.6241C18.9672 20.7164 19.0549 20.7881 19.1575 20.83C19.2602 20.8743 19.3738 20.8865 19.4836 20.8651C19.5933 20.8437 19.694 20.7896 19.7725 20.71L21.745 18.73C21.8151 18.6662 21.9053 18.6291 22 18.625H24.625C24.9725 18.623 25.3052 18.4841 25.5509 18.2384C25.7966 17.9927 25.9355 17.66 25.9375 17.3125V11.3125C25.9355 10.965 25.7966 10.6323 25.5509 10.3866C25.3052 10.1409 24.9725 10.002 24.625 10H14.125C13.7775 10.002 13.4448 10.1409 13.1991 10.3866C12.9534 10.6323 12.8145 10.965 12.8125 11.3125V17.3125ZM21.6025 13.21C21.5472 13.1585 21.5029 13.0964 21.4722 13.0274C21.4414 12.9584 21.4249 12.8839 21.4236 12.8084C21.4222 12.7329 21.4361 12.6578 21.4644 12.5878C21.4927 12.5178 21.5348 12.4541 21.5882 12.4007C21.6416 12.3473 21.7053 12.3052 21.7753 12.2769C21.8453 12.2486 21.9204 12.2347 21.9959 12.2361C22.0714 12.2374 22.1459 12.2539 22.2149 12.2847C22.2839 12.3154 22.346 12.3597 22.3975 12.415L23.8975 13.915C24.0028 14.0205 24.062 14.1634 24.062 14.3125C24.062 14.4616 24.0028 14.6045 23.8975 14.71L22.3975 16.21C22.292 16.3153 22.1491 16.3745 22 16.3745C21.8509 16.3745 21.708 16.3153 21.6025 16.21C21.4972 16.1045 21.438 15.9616 21.438 15.8125C21.438 15.6634 21.4972 15.5205 21.6025 15.415L22.57 14.4475C22.5881 14.43 22.6026 14.409 22.6124 14.3858C22.6223 14.3626 22.6274 14.3377 22.6274 14.3125C22.6274 14.2873 22.6223 14.2624 22.6124 14.2392C22.6026 14.216 22.5881 14.195 22.57 14.1775L21.6025 13.21ZM18.1225 15.565L19.6225 12.565C19.6537 12.4978 19.6981 12.4377 19.7532 12.3882C19.8083 12.3387 19.8728 12.3008 19.9429 12.277C20.013 12.2532 20.0873 12.2438 20.1611 12.2495C20.2349 12.2551 20.3069 12.2757 20.3725 12.31C20.439 12.342 20.4984 12.3869 20.5473 12.4421C20.5962 12.4973 20.6336 12.5617 20.6574 12.6315C20.6811 12.7013 20.6907 12.7752 20.6856 12.8488C20.6804 12.9223 20.6607 12.9941 20.6275 13.06L19.1275 16.06C19.0804 16.1527 19.0084 16.2305 18.9197 16.2848C18.831 16.3391 18.729 16.3677 18.625 16.3675C18.539 16.3664 18.4544 16.3459 18.3775 16.3075C18.3113 16.2763 18.252 16.2321 18.2032 16.1776C18.1543 16.1231 18.1169 16.0593 18.0932 15.9901C18.0694 15.9209 18.0597 15.8476 18.0648 15.7746C18.0698 15.7016 18.0894 15.6303 18.1225 15.565ZM14.8525 13.915L16.3525 12.415C16.404 12.3597 16.4661 12.3154 16.5351 12.2847C16.6041 12.2539 16.6786 12.2374 16.7541 12.2361C16.8296 12.2347 16.9047 12.2486 16.9747 12.2769C17.0447 12.3052 17.1084 12.3473 17.1618 12.4007C17.2152 12.4541 17.2573 12.5178 17.2856 12.5878C17.3139 12.6578 17.3278 12.7329 17.3264 12.8084C17.3251 12.8839 17.3086 12.9584 17.2778 13.0274C17.2471 13.0964 17.2028 13.1585 17.1475 13.21L16.18 14.1775C16.1619 14.195 16.1474 14.216 16.1376 14.2392C16.1277 14.2624 16.1226 14.2873 16.1226 14.3125C16.1226 14.3377 16.1277 14.3626 16.1376 14.3858C16.1474 14.409 16.1619 14.43 16.18 14.4475L17.1475 15.415C17.2528 15.5205 17.312 15.6634 17.312 15.8125C17.312 15.9616 17.2528 16.1045 17.1475 16.21C17.042 16.3153 16.8991 16.3745 16.75 16.3745C16.6009 16.3745 16.458 16.3153 16.3525 16.21L14.8525 14.71C14.7472 14.6045 14.688 14.4616 14.688 14.3125C14.688 14.1634 14.7472 14.0205 14.8525 13.915Z" fill="#132A3E"/>
<path d="M9.9998 27.5425C9.9874 27.5972 9.9877 27.6541 10.0007 27.7087C10.0137 27.7633 10.0391 27.8142 10.0748 27.8575C10.1101 27.9031 10.1556 27.9398 10.2078 27.9646C10.2599 27.9893 10.3171 28.0015 10.3748 28H16.9448C17.0007 27.9989 17.0558 27.9855 17.106 27.9608C17.1562 27.9362 17.2004 27.9007 17.2354 27.8571C17.2705 27.8135 17.2955 27.7627 17.3088 27.7083C17.3221 27.654 17.3233 27.5974 17.3123 27.5425C17.1894 27.0071 16.9504 26.5052 16.6121 26.0723C16.2739 25.6394 15.8446 25.2862 15.3548 25.0375C15.3259 25.0236 15.3011 25.0025 15.2827 24.9762C15.2643 24.9499 15.253 24.9194 15.2498 24.8875C15.2457 24.8565 15.2498 24.825 15.2617 24.7961C15.2735 24.7671 15.2927 24.7418 15.3173 24.7225C15.7672 24.3586 16.0932 23.8641 16.2503 23.3072C16.4074 22.7503 16.388 22.1583 16.1947 21.6129C16.0014 21.0675 15.6437 20.5954 15.1709 20.2618C14.6981 19.9282 14.1334 19.7494 13.5548 19.75C12.8115 19.752 12.0991 20.0481 11.5735 20.5738C11.0479 21.0994 10.7518 21.8117 10.7498 22.555C10.7462 22.9922 10.8463 23.4241 11.0419 23.8152C11.2374 24.2063 11.5228 24.5455 11.8748 24.805C11.9008 24.8234 11.9214 24.8484 11.9346 24.8774C11.9477 24.9064 11.953 24.9383 11.9498 24.97C11.9497 25.0017 11.9404 25.0328 11.9231 25.0594C11.9058 25.086 11.8812 25.107 11.8523 25.12C11.391 25.3715 10.9878 25.7171 10.6687 26.1344C10.3495 26.5518 10.1216 27.0315 9.9998 27.5425ZM12.2873 22.2175C12.2951 22.19 12.3095 22.1648 12.329 22.1439C12.3486 22.123 12.3728 22.1071 12.3998 22.0975C12.4259 22.0864 12.4539 22.0806 12.4823 22.0806C12.5106 22.0806 12.5387 22.0864 12.5648 22.0975C13.0699 22.3928 13.6447 22.5481 14.2298 22.5475C14.3597 22.5552 14.4899 22.5552 14.6198 22.5475C14.6483 22.5441 14.6772 22.5471 14.7044 22.5562C14.7316 22.5652 14.7565 22.5802 14.7773 22.6C14.7975 22.6205 14.8128 22.6453 14.8219 22.6726C14.831 22.6999 14.8337 22.729 14.8298 22.7575C14.7801 23.0813 14.6099 23.3743 14.3532 23.5777C14.0965 23.7812 13.7723 23.88 13.4457 23.8544C13.1192 23.8288 12.8144 23.6806 12.5926 23.4396C12.3708 23.1985 12.2483 22.8826 12.2498 22.555C12.2494 22.441 12.2646 22.3274 12.2948 22.2175H12.2873Z" fill="#132A3E"/>
<path fill-rule="evenodd" clip-rule="evenodd" d="M19 3C10.1634 3 3 10.1634 3 19C3 27.8366 10.1634 35 19 35C27.8366 35 35 27.8366 35 19C35 10.1634 27.8366 3 19 3ZM0 19C0 8.50659 8.50659 0 19 0C29.4934 0 38 8.50659 38 19C38 29.4934 29.4934 38 19 38C8.50659 38 0 29.4934 0 19Z" fill="url(#paint0_linear_0_1)"/>
<defs>
<linearGradient id="paint0_linear_0_1" x1="31.5472" y1="2.5094" x2="19" y2="38" gradientUnits="userSpaceOnUse">
<stop stop-color="#F952C1"/>
<stop offset="1" stop-color="#F8AF6F"/>
</linearGradient>
</defs>
</svg>
