<svg width="38" height="38" viewBox="0 0 38 38" fill="none" xmlns="http://www.w3.org/2000/svg">
<path d="M19 38C29.4934 38 38 29.4934 38 19C38 8.50659 29.4934 0 19 0C8.50659 0 0 8.50659 0 19C0 29.4934 8.50659 38 19 38Z" fill="white"/>
<path d="M19 36.5C28.665 36.5 36.5 28.665 36.5 19C36.5 9.33502 28.665 1.5 19 1.5C9.33502 1.5 1.5 9.33502 1.5 19C1.5 28.665 9.33502 36.5 19 36.5Z" stroke="url(#paint0_linear_1421_6014)" stroke-width="3"/>
<path d="M20.3125 13.75C21.348 13.75 22.1875 12.9105 22.1875 11.875C22.1875 10.8395 21.348 10 20.3125 10C19.277 10 18.4375 10.8395 18.4375 11.875C18.4375 12.9105 19.277 13.75 20.3125 13.75Z" fill="#132A3E"/>
<path d="M26.6275 18.34L25.75 16.2025C25.9072 15.9691 25.9706 15.685 25.9275 15.4069C25.8844 15.1289 25.738 14.8773 25.5175 14.7025C25.3795 14.6011 25.2207 14.5319 25.0525 14.5L24.3475 12.7975C24.3101 12.7064 24.2551 12.6235 24.1856 12.5537C24.1162 12.4838 24.0337 12.4283 23.9428 12.3904C23.8519 12.3524 23.7544 12.3327 23.6559 12.3325C23.5574 12.3322 23.4599 12.3513 23.3688 12.3887C23.2776 12.4261 23.1948 12.4811 23.125 12.5506C23.0551 12.62 22.9996 12.7026 22.9617 12.7934C22.9237 12.8843 22.904 12.9818 22.9037 13.0803C22.9035 13.1788 22.9226 13.2764 22.96 13.3675L23.71 15.175C23.395 15.565 22.96 16.1575 22.21 15.8575L16.96 13.9525C16.3065 13.7166 15.5963 13.6873 14.9256 13.8684C14.2549 14.0495 13.656 14.4323 13.21 14.965L12.325 16C12.1518 16.2305 12.0737 16.5188 12.1069 16.8053C12.1401 17.0918 12.2821 17.3546 12.5035 17.5394C12.7249 17.7242 13.0088 17.8169 13.2966 17.7984C13.5844 17.7799 13.8541 17.6516 14.05 17.44L14.9125 16.405C15.0629 16.2289 15.2629 16.1025 15.4865 16.0423C15.71 15.982 15.9466 15.9908 16.165 16.0675L17.245 16.4575C17.2917 16.4744 17.3298 16.5092 17.3509 16.5542C17.372 16.5992 17.3744 16.6507 17.3575 16.6975L16 20.5C15.9242 20.7213 15.7803 20.9129 15.5891 21.0476C15.3978 21.1823 15.1689 21.2531 14.935 21.25H12.4375C12.1391 21.25 11.853 21.3685 11.642 21.5795C11.431 21.7905 11.3125 22.0766 11.3125 22.375C11.3125 22.6733 11.431 22.9595 11.642 23.1705C11.853 23.3814 12.1391 23.5 12.4375 23.5H14.9425C15.5473 23.4994 16.1409 23.3371 16.6618 23.0298C17.1827 22.7226 17.612 22.2815 17.905 21.7525C17.9271 21.7127 17.9625 21.6819 18.005 21.6655C18.0475 21.649 18.0943 21.648 18.1375 21.6625L18.82 21.94C19.0724 22.0421 19.2796 22.2317 19.4035 22.4742C19.5275 22.7166 19.56 22.9956 19.495 23.26L18.13 26.5975C18.0574 26.8869 18.1027 27.1933 18.256 27.4493C18.4094 27.7053 18.6581 27.8899 18.9475 27.9625C19.2369 28.0351 19.5433 27.9897 19.7993 27.8364C20.0553 27.6831 20.2399 27.4344 20.3125 27.145L21.6775 23.8C21.8704 23.0078 21.772 22.1727 21.4002 21.4471C21.0284 20.7214 20.4081 20.1537 19.6525 19.8475L18.9025 19.555C18.8803 19.5466 18.86 19.534 18.8427 19.5178C18.8254 19.5016 18.8115 19.4821 18.8017 19.4605C18.7919 19.4389 18.7866 19.4156 18.7858 19.3919C18.7851 19.3682 18.7891 19.3446 18.7975 19.3225L19.4725 17.5C19.4898 17.4534 19.5249 17.4157 19.57 17.395C19.6156 17.3762 19.6669 17.3762 19.7125 17.395L21.4075 18.01C21.7769 18.1484 22.168 18.2196 22.5625 18.22C23.3216 18.2088 24.0553 17.9449 24.6475 17.47L25.2475 18.9175C25.278 19.0175 25.329 19.11 25.3973 19.1892C25.4657 19.2683 25.5498 19.3323 25.6443 19.377C25.7389 19.4217 25.8417 19.4461 25.9462 19.4487C26.0507 19.4513 26.1546 19.4321 26.2513 19.3922C26.3479 19.3522 26.4351 19.2926 26.5074 19.2169C26.5796 19.1413 26.6352 19.0514 26.6706 18.9531C26.706 18.8547 26.7205 18.75 26.7131 18.6457C26.7056 18.5414 26.6765 18.4398 26.6275 18.3475V18.34Z" fill="#132A3E"/>
<defs>
<linearGradient id="paint0_linear_1421_6014" x1="31.5472" y1="2.5094" x2="19" y2="38" gradientUnits="userSpaceOnUse">
<stop stop-color="#F952C1"/>
<stop offset="1" stop-color="#F8AF6F"/>
</linearGradient>
</defs>
</svg>
