<svg width="35" height="28" viewBox="0 0 35 28" fill="none" xmlns="http://www.w3.org/2000/svg">
<path opacity="0.8" d="M13.5054 0C14.7736 0.322952 15.5978 1.3564 15.9783 3.10034C14.1395 4.13379 12.269 5.68397 10.3668 7.75086C8.46467 9.81776 7.13315 12.0784 6.37228 14.5329H6.65761C9.06703 14.5329 10.9375 15.1788 12.269 16.4706C13.6639 17.6978 14.3614 19.3126 14.3614 21.3149C14.3614 23.188 13.6639 24.7705 12.269 26.0623C10.9375 27.3541 9.32065 28 7.41848 28C5.13587 28 3.3288 27.1926 1.99728 25.5779C0.665761 23.8985 0 21.8962 0 19.5709C0 15.6309 1.23641 12.1107 3.70924 9.01038C6.18207 5.91003 9.44746 2.90657 13.5054 0ZM32.5272 0C33.7953 0.322952 34.6196 1.3564 35 3.10034C33.1612 4.13379 31.2908 5.68397 29.3886 7.75086C27.4864 9.81776 26.1549 12.0784 25.394 14.5329H25.6793C28.0888 14.5329 29.9592 15.1788 31.2908 16.4706C32.6857 17.6978 33.3832 19.3126 33.3832 21.3149C33.3832 23.188 32.6857 24.7705 31.2908 26.0623C29.9592 27.3541 28.3424 28 26.4402 28C24.1576 28 22.3505 27.1926 21.019 25.5779C19.6875 23.8985 19.0217 21.8962 19.0217 19.5709C19.0217 15.6309 20.2582 12.1107 22.731 9.01038C25.2038 5.91003 28.4692 2.90657 32.5272 0Z" fill="white"/>
</svg>
