<svg width="40" height="40" viewBox="0 0 40 40" fill="none" xmlns="http://www.w3.org/2000/svg">
<circle opacity="0.26" cx="20" cy="20" r="20" fill="#1D3A53"/>
<path d="M26.6774 11.7071L11.8282 26.5563C11.4377 26.9468 11.4377 27.58 11.8282 27.9705L12.5353 28.6776C12.9258 29.0682 13.559 29.0682 13.9495 28.6776L28.7988 13.8284C29.1893 13.4379 29.1893 12.8047 28.7988 12.4142L28.0917 11.7071C27.7011 11.3166 27.068 11.3166 26.6774 11.7071Z" fill="white"/>
<path d="M28.6774 26.8198L13.8282 11.9705C13.4377 11.58 12.8045 11.58 12.414 11.9705L11.7069 12.6776C11.3164 13.0682 11.3164 13.7013 11.7069 14.0919L26.5561 28.9411C26.9466 29.3316 27.5798 29.3316 27.9703 28.9411L28.6774 28.234C29.068 27.8435 29.068 27.2103 28.6774 26.8198Z" fill="white"/>
</svg>
