<svg width="38" height="38" viewBox="0 0 38 38" fill="none" xmlns="http://www.w3.org/2000/svg">
<path d="M19 38C29.4934 38 38 29.4934 38 19C38 8.5066 29.4934 0 19 0C8.5066 0 0 8.5066 0 19C0 29.4934 8.5066 38 19 38Z" fill="white"/>
<path fill-rule="evenodd" clip-rule="evenodd" d="M19 3C10.1634 3 3 10.1634 3 19C3 27.8366 10.1634 35 19 35C27.8366 35 35 27.8366 35 19C35 10.1634 27.8366 3 19 3ZM0 19C0 8.5066 8.5066 0 19 0C29.4934 0 38 8.5066 38 19C38 29.4934 29.4934 38 19 38C8.5066 38 0 29.4934 0 19Z" fill="url(#paint0_linear_1421_6077)"/>
<path d="M26.5 12.25H25.18L25.33 11.2375C25.3443 11.0807 25.3264 10.9227 25.2774 10.7731C25.2284 10.6234 25.1493 10.4854 25.045 10.3675C24.9435 10.2565 24.821 10.1669 24.6845 10.1038C24.548 10.0407 24.4003 10.0054 24.25 10H13.7875C13.6309 10.0004 13.476 10.0332 13.3327 10.0965C13.1894 10.1597 13.0608 10.252 12.955 10.3675C12.8475 10.4907 12.7672 10.6353 12.7194 10.7916C12.6716 10.948 12.6573 11.1127 12.6775 11.275L12.82 12.25H11.5C11.1022 12.25 10.7206 12.408 10.4393 12.6893C10.158 12.9706 10 13.3522 10 13.75V16C10.0002 16.661 10.1751 17.3102 10.507 17.8818C10.8389 18.4534 11.316 18.9271 11.89 19.255C11.9754 19.3093 12.0708 19.3457 12.1706 19.3621C12.2704 19.3785 12.3725 19.3746 12.4708 19.3505C12.569 19.3265 12.6614 19.2828 12.7423 19.2221C12.8233 19.1614 12.8911 19.085 12.9417 18.9974C12.9923 18.9098 13.0247 18.8129 13.0369 18.7125C13.0491 18.6121 13.0408 18.5102 13.0127 18.4131C12.9845 18.316 12.9369 18.2255 12.8729 18.1472C12.8088 18.0689 12.7296 18.0044 12.64 17.9575C12.2938 17.7612 12.006 17.4766 11.8057 17.1327C11.6054 16.7888 11.4999 16.3979 11.5 16V13.75H13.045L13.5175 16.9075C13.6525 17.7775 14.7625 21.625 19 21.625C23.2375 21.625 24.3475 17.7775 24.4825 16.9075L24.955 13.75H26.5V16C26.5008 16.3972 26.3965 16.7876 26.1976 17.1314C25.9986 17.4752 25.7123 17.7602 25.3675 17.9575C25.2043 18.0613 25.0874 18.2241 25.0414 18.412C24.9954 18.5999 25.0237 18.7983 25.1205 18.9658C25.2173 19.1332 25.3751 19.2568 25.5609 19.3107C25.7467 19.3646 25.9461 19.3447 26.1175 19.255C26.6901 18.9262 27.1657 18.452 27.4962 17.8805C27.8268 17.3089 28.0005 16.6603 28 16V13.75C28 13.3522 27.842 12.9706 27.5607 12.6893C27.2794 12.408 26.8978 12.25 26.5 12.25ZM21.31 17.7025C21.3405 17.7788 21.3467 17.8626 21.3276 17.9425C21.3086 18.0224 21.2652 18.0944 21.2036 18.1487C21.1419 18.2029 21.065 18.2368 20.9833 18.2455C20.9016 18.2543 20.8193 18.2375 20.7475 18.1975L19.0975 17.2675C19.0699 17.2524 19.039 17.2445 19.0075 17.2445C18.976 17.2445 18.9451 17.2524 18.9175 17.2675L17.26 18.1975C17.1887 18.2398 17.1059 18.2584 17.0234 18.2504C16.9409 18.2425 16.8631 18.2084 16.8012 18.1533C16.7394 18.0981 16.6967 18.0247 16.6794 17.9436C16.6621 17.8626 16.6711 17.7781 16.705 17.7025L17.3725 16.2025C17.3864 16.1675 17.3903 16.1293 17.3836 16.0922C17.377 16.0551 17.3602 16.0205 17.335 15.9925L16.12 14.77C16.0618 14.7198 16.0208 14.6525 16.0028 14.5778C15.9849 14.503 15.9908 14.4245 16.0198 14.3533C16.0487 14.2821 16.0993 14.2217 16.1644 14.1808C16.2295 14.1398 16.3058 14.1203 16.3825 14.125H17.7625C17.7983 14.1258 17.8335 14.1163 17.8641 14.0977C17.8947 14.0791 17.9193 14.0521 17.935 14.02L18.685 12.4675C18.7186 12.403 18.7692 12.349 18.8314 12.3113C18.8935 12.2736 18.9648 12.2537 19.0375 12.2537C19.1102 12.2537 19.1815 12.2736 19.2436 12.3113C19.3058 12.349 19.3564 12.403 19.39 12.4675L20.14 14.02C20.155 14.0527 20.1794 14.0803 20.2101 14.099C20.2409 14.1177 20.2765 14.1268 20.3125 14.125H21.6925C21.7686 14.122 21.8437 14.1428 21.9075 14.1843C21.9713 14.2259 22.0207 14.2863 22.0487 14.3571C22.0766 14.4279 22.082 14.5057 22.0638 14.5797C22.0457 14.6536 22.0051 14.7201 21.9475 14.77L20.68 15.955C20.6519 15.9812 20.6325 16.0154 20.6245 16.0529C20.6164 16.0905 20.6201 16.1296 20.635 16.165L21.31 17.7025Z" fill="#132A3E"/>
<path d="M18.085 22.6825C18.0594 22.6783 18.0331 22.6801 18.0084 22.688C17.9836 22.6958 17.961 22.7093 17.9425 22.7275C17.9216 22.7449 17.9047 22.7667 17.893 22.7913C17.8814 22.8159 17.8752 22.8428 17.875 22.87V24.6925C15.355 25 13.75 26.335 13.75 27.25C13.75 27.4489 13.829 27.6397 13.9697 27.7803C14.1103 27.921 14.3011 28 14.5 28H23.5C23.6989 28 23.8897 27.921 24.0303 27.7803C24.171 27.6397 24.25 27.4489 24.25 27.25C24.25 26.335 22.645 25 20.125 24.6925V22.87C20.1248 22.8428 20.1186 22.8159 20.107 22.7913C20.0953 22.7667 20.0784 22.7449 20.0575 22.7275C20.039 22.7093 20.0164 22.6958 19.9916 22.688C19.9669 22.6801 19.9406 22.6783 19.915 22.6825C19.3083 22.7726 18.6917 22.7726 18.085 22.6825Z" fill="#132A3E"/>
<defs>
<linearGradient id="paint0_linear_1421_6077" x1="31.5472" y1="2.5094" x2="19" y2="38" gradientUnits="userSpaceOnUse">
<stop stop-color="#F952C1"/>
<stop offset="1" stop-color="#F8AF6F"/>
</linearGradient>
</defs>
</svg>
