<svg width="16" height="16" viewBox="0 0 16 16" fill="none" xmlns="http://www.w3.org/2000/svg">
<g clip-path="url(#clip0_1227_1596)">
<path d="M7.21333 13.2469C7.11036 13.1042 6.95517 13.008 6.78159 12.9793C6.608 12.9506 6.4301 12.9917 6.28667 13.0936C6.26011 13.1081 6.2303 13.1158 6.2 13.1158C6.1697 13.1158 6.13989 13.1081 6.11333 13.0936C6.08532 13.0857 6.05997 13.0704 6.04 13.0493C6.02003 13.0282 6.0062 13.002 6 12.9736V4.44022C6.00026 4.38687 6.01306 4.33433 6.03738 4.28685C6.0617 4.23936 6.09686 4.19827 6.14 4.16689L9.06667 2.07355C9.09322 2.05896 9.12303 2.05132 9.15333 2.05132C9.18363 2.05132 9.21344 2.05896 9.24 2.07355C9.26804 2.0864 9.29177 2.10708 9.30832 2.1331C9.32488 2.15913 9.33357 2.18938 9.33333 2.22022V6.00022C9.33333 6.17703 9.40357 6.3466 9.5286 6.47162C9.65362 6.59665 9.82319 6.66689 10 6.66689C10.1768 6.66689 10.3464 6.59665 10.4714 6.47162C10.5964 6.3466 10.6667 6.17703 10.6667 6.00022V2.20689C10.6664 2.17604 10.6751 2.14579 10.6917 2.11977C10.7082 2.09375 10.732 2.07307 10.76 2.06022C10.7866 2.04563 10.8164 2.03798 10.8467 2.03798C10.877 2.03798 10.9068 2.04563 10.9333 2.06022L13.86 4.15355C13.9031 4.18493 13.9383 4.22603 13.9626 4.27351C13.9869 4.321 13.9997 4.37354 14 4.42689V7.41355C14 7.59036 14.0702 7.75993 14.1953 7.88496C14.3203 8.00998 14.4899 8.08022 14.6667 8.08022C14.8435 8.08022 15.013 8.00998 15.1381 7.88496C15.2631 7.75993 15.3333 7.59036 15.3333 7.41355V4.08022C15.3337 3.92091 15.2957 3.76384 15.2226 3.62229C15.1495 3.48074 15.0434 3.35884 14.9133 3.26689L10.58 0.186886C10.4106 0.0663023 10.2079 0.00150295 10 0.00150295C9.7921 0.00150295 9.58936 0.0663023 9.42 0.186886L5.54667 2.94689C5.49046 2.99067 5.42125 3.01445 5.35 3.01445C5.27875 3.01445 5.20954 2.99067 5.15333 2.94689L1.62 0.213553C1.47129 0.0980419 1.29334 0.0262502 1.10611 0.00623158C0.918875 -0.013787 0.729768 0.0187594 0.56 0.10022C0.392187 0.183306 0.250875 0.311552 0.151947 0.470543C0.0530201 0.629533 0.000399323 0.812965 0 1.00022L0 10.9269C0.000513333 11.082 0.0368837 11.235 0.106271 11.3738C0.175659 11.5125 0.276185 11.6334 0.4 11.7269L4.74 14.9802C4.9131 15.11 5.12363 15.1802 5.34 15.1802C5.5477 15.1777 5.74982 15.1127 5.92 14.9936L7.06 14.1736C7.20267 14.0706 7.29885 13.9154 7.32757 13.7418C7.35629 13.5682 7.31523 13.3903 7.21333 13.2469ZM1.33333 2.00022C1.33333 1.96927 1.34195 1.93893 1.35822 1.9126C1.3745 1.88627 1.39778 1.86499 1.42546 1.85115C1.45315 1.83731 1.48414 1.83145 1.51497 1.83423C1.54579 1.83701 1.57524 1.84832 1.6 1.86689L4.54 4.13355C4.58246 4.16625 4.61623 4.2089 4.63832 4.25773C4.66041 4.30656 4.67014 4.36007 4.66667 4.41355V12.9269C4.6669 12.9577 4.65822 12.988 4.64166 13.014C4.6251 13.04 4.60137 13.0607 4.57333 13.0736C4.54678 13.0881 4.51697 13.0958 4.48667 13.0958C4.45637 13.0958 4.42656 13.0881 4.4 13.0736L1.46667 10.8736C1.42564 10.8422 1.39232 10.8018 1.36921 10.7556C1.34611 10.7094 1.33384 10.6585 1.33333 10.6069V2.00022Z" fill="white"/>
<path d="M15.8068 15.8068C15.8692 15.7448 15.9188 15.6711 15.9527 15.5898C15.9865 15.5086 16.004 15.4214 16.004 15.3334C16.004 15.2454 15.9865 15.1583 15.9527 15.077C15.9188 14.9958 15.8692 14.9221 15.8068 14.8601L14.2068 13.2668C14.1549 13.2138 14.1221 13.1451 14.1137 13.0714C14.1052 12.9978 14.1215 12.9234 14.1601 12.8601C14.6127 12.0912 14.7694 11.1836 14.6008 10.3075C14.4323 9.43134 13.95 8.64671 13.2445 8.1006C12.5389 7.55449 11.6585 7.28437 10.768 7.34086C9.87761 7.39734 9.03833 7.77655 8.40744 8.40744C7.77655 9.03833 7.39734 9.87761 7.34086 10.768C7.28437 11.6585 7.55449 12.5389 8.1006 13.2445C8.64671 13.95 9.43134 14.4323 10.3075 14.6008C11.1836 14.7694 12.0912 14.6127 12.8601 14.1601C12.9234 14.1215 12.9978 14.1052 13.0714 14.1137C13.1451 14.1221 13.2138 14.1549 13.2668 14.2068L14.8601 15.8068C14.9221 15.8692 14.9958 15.9188 15.077 15.9527C15.1583 15.9865 15.2454 16.004 15.3334 16.004C15.4214 16.004 15.5086 15.9865 15.5898 15.9527C15.6711 15.9188 15.7448 15.8692 15.8068 15.8068ZM8.66676 11.0001C8.66676 10.5386 8.80361 10.0875 9.06 9.70376C9.31639 9.32005 9.6808 9.02098 10.1072 8.84437C10.5335 8.66777 11.0027 8.62156 11.4553 8.71159C11.9079 8.80163 12.3237 9.02385 12.65 9.35018C12.9763 9.6765 13.1986 10.0923 13.2886 10.5449C13.3786 10.9975 13.3324 11.4667 13.1558 11.893C12.9792 12.3194 12.6801 12.6838 12.2964 12.9402C11.9127 13.1966 11.4616 13.3334 11.0001 13.3334C10.3813 13.3334 9.78776 13.0876 9.35018 12.65C8.91259 12.2124 8.66676 11.6189 8.66676 11.0001Z" fill="white"/>
</g>
<defs>
<clipPath id="clip0_1227_1596">
<rect width="16" height="16" fill="white"/>
</clipPath>
</defs>
</svg>
