<svg width="441" height="487" viewBox="0 0 441 487" fill="none" xmlns="http://www.w3.org/2000/svg">
<g opacity="0.5">
<path d="M43 331.492L-148.36 2H-308.808C-317.64 2 -325 9.35474 -325 18.1804C-325 19.6514 -325 22.5933 -323.528 24.0642L-322.056 27.0061L-82.12 435.93C-73.288 453.581 -61.512 465.349 -51.208 472.703C-43.848 478.587 -33.544 481.529 -23.24 483C-32.072 466.82 -18.824 441.813 -9.99203 422.691L43 331.492Z" fill="#46A5A5"/>
<path d="M267.496 1.4713L32.2368 410.492C20.4738 431.091 -16.2855 485.529 21.9441 487H108.696H111.637C135.163 487 154.278 482.586 167.511 473.758C179.274 466.402 189.566 454.631 198.389 436.976L438.059 25.0121L439.53 22.0695C439.53 20.5982 441 19.1269 441 16.1843C441 7.3565 433.648 0 424.826 0H267.496V1.4713Z" fill="#46A5A5"/>
</g>
</svg>
