<svg width="263" height="61" viewBox="0 0 263 61" fill="none" xmlns="http://www.w3.org/2000/svg">
<path d="M203.99 8.72918C203.504 8.85115 203.145 9.08346 202.914 9.42032C202.682 9.76298 202.566 10.2567 202.566 10.9013C202.566 11.3601 202.624 11.7493 202.746 12.0513C202.867 12.3591 203.07 12.6088 203.348 12.8121C203.631 13.0154 204.013 13.1722 204.494 13.2884L206.856 13.8401C207.255 13.933 207.579 14.0434 207.811 14.177C208.048 14.3105 208.164 14.5661 208.164 14.9436C208.164 15.2572 208.094 15.4895 207.95 15.6463C207.805 15.8032 207.562 15.9077 207.209 15.96C206.856 16.0122 206.375 16.0355 205.75 16.0355H204.679C204.332 16.0355 204.008 16.0297 203.695 16.0181C203.383 16.0064 203.099 15.9948 202.833 15.9832L202.711 17.1448C203.446 17.2726 204.123 17.3481 204.737 17.3713C205.351 17.3945 205.814 17.4061 206.126 17.4061C206.954 17.4061 207.637 17.3481 208.181 17.2261C208.72 17.1041 209.119 16.866 209.38 16.5175C209.64 16.1632 209.767 15.6463 209.767 14.9494C209.767 14.2234 209.605 13.6949 209.287 13.3581C208.963 13.0212 208.465 12.7715 207.788 12.5972L205.391 12.0455C204.992 11.9525 204.685 11.8422 204.488 11.7144C204.286 11.5867 204.187 11.3253 204.187 10.9187C204.187 10.5819 204.251 10.3496 204.378 10.2102C204.505 10.0708 204.714 9.98368 204.998 9.94883C205.287 9.91399 205.681 9.90237 206.19 9.91399C206.717 9.91399 207.249 9.9198 207.788 9.93722C208.32 9.95464 208.859 9.97207 209.403 9.9953L209.524 8.82211C209.177 8.76403 208.795 8.71757 208.378 8.68272C207.956 8.64787 207.539 8.61883 207.11 8.5956C206.688 8.57237 206.288 8.56076 205.918 8.56076C205.119 8.54914 204.477 8.60722 203.99 8.72918ZM195.313 8.72918C194.827 8.85115 194.468 9.08346 194.236 9.42032C194.005 9.76298 193.889 10.2567 193.889 10.9013C193.889 11.3601 193.947 11.7493 194.069 12.0513C194.19 12.3591 194.393 12.6088 194.671 12.8121C194.954 13.0154 195.336 13.1722 195.817 13.2884L198.179 13.8401C198.578 13.933 198.902 14.0434 199.134 14.177C199.371 14.3105 199.487 14.5661 199.487 14.9436C199.487 15.2572 199.417 15.4895 199.273 15.6463C199.128 15.8032 198.885 15.9077 198.532 15.96C198.179 16.0122 197.698 16.0355 197.073 16.0355H196.002C195.655 16.0355 195.331 16.0297 195.018 16.0181C194.705 16.0064 194.422 15.9948 194.155 15.9832L194.034 17.1448C194.769 17.2726 195.446 17.3481 196.06 17.3713C196.674 17.3945 197.137 17.4061 197.449 17.4061C198.277 17.4061 198.96 17.3481 199.504 17.2261C200.042 17.1041 200.442 16.866 200.702 16.5175C200.963 16.1632 201.09 15.6463 201.09 14.9494C201.09 14.2234 200.928 13.6949 200.61 13.3581C200.286 13.0212 199.788 12.7715 199.111 12.5972L196.714 12.0455C196.315 11.9525 196.008 11.8422 195.811 11.7144C195.608 11.5867 195.51 11.3253 195.51 10.9187C195.51 10.5819 195.574 10.3496 195.701 10.2102C195.828 10.0708 196.037 9.98368 196.32 9.94883C196.61 9.91399 197.003 9.90237 197.513 9.91399C198.04 9.91399 198.572 9.9198 199.111 9.93722C199.643 9.95464 200.181 9.97207 200.726 9.9953L200.847 8.82211C200.5 8.76403 200.118 8.71757 199.701 8.68272C199.284 8.64787 198.862 8.61883 198.433 8.5956C198.011 8.57237 197.611 8.56076 197.241 8.56076C196.442 8.54914 195.799 8.60722 195.313 8.72918ZM190.74 5.15735C190.404 5.15735 190.242 5.32578 190.242 5.65682V6.64416C190.242 6.98102 190.41 7.14364 190.74 7.14364H191.516C191.852 7.14364 192.014 6.97521 192.014 6.64416V5.65682C192.014 5.31997 191.846 5.15735 191.516 5.15735H190.74ZM190.312 17.2145H191.95V8.76984H190.312V17.2145ZM186.891 8.76984L185.253 14.8449C185.195 15.0772 185.148 15.2979 185.114 15.5012C185.079 15.7102 185.033 15.9251 184.975 16.14H184.749C184.703 15.9193 184.656 15.7044 184.61 15.4895C184.564 15.2746 184.517 15.0598 184.471 14.8391L183.18 9.30416C183.146 9.14154 183.076 9.01377 182.966 8.91504C182.856 8.8163 182.723 8.76984 182.561 8.76984H181.183C181.009 8.76984 180.871 8.8163 180.761 8.91504C180.651 9.01377 180.587 9.13573 180.564 9.28674L179.256 14.8391C179.209 15.0598 179.163 15.2746 179.111 15.4895C179.059 15.7044 179.012 15.9193 178.966 16.14H178.74C178.706 15.9193 178.665 15.7044 178.619 15.4895C178.572 15.2746 178.526 15.0598 178.48 14.8391L176.842 8.76403H175.117L177.513 16.7382C177.548 16.8776 177.623 16.988 177.739 17.0751C177.855 17.1622 177.988 17.2029 178.138 17.2029H179.551C179.724 17.2029 179.869 17.1564 179.979 17.0577C180.095 16.9589 180.17 16.837 180.205 16.686L181.478 11.1162C181.525 10.8955 181.571 10.6806 181.623 10.4599C181.675 10.2392 181.716 10.0127 181.75 9.76879H181.959C182.017 10.0127 182.063 10.2392 182.104 10.4599C182.144 10.6806 182.185 10.9013 182.231 11.1162L183.528 16.686C183.551 16.837 183.62 16.9589 183.742 17.0577C183.863 17.1564 183.996 17.2029 184.147 17.2029H185.594C185.745 17.2029 185.878 17.1622 185.988 17.0751C186.103 16.988 186.179 16.8776 186.213 16.7382L188.593 8.76403H186.891V8.76984ZM168.031 8.72918C167.545 8.85115 167.186 9.08346 166.955 9.42032C166.723 9.76298 166.607 10.2567 166.607 10.9013C166.607 11.3601 166.665 11.7493 166.787 12.0513C166.908 12.3591 167.111 12.6088 167.389 12.8121C167.673 13.0154 168.055 13.1722 168.535 13.2884L170.897 13.8401C171.296 13.933 171.62 14.0434 171.852 14.177C172.089 14.3105 172.205 14.5661 172.205 14.9436C172.205 15.2572 172.136 15.4895 171.991 15.6463C171.846 15.8032 171.603 15.9077 171.25 15.96C170.897 16.0122 170.416 16.0355 169.791 16.0355H168.72C168.373 16.0355 168.049 16.0297 167.736 16.0181C167.424 16.0064 167.14 15.9948 166.874 15.9832L166.752 17.1448C167.487 17.2726 168.165 17.3481 168.778 17.3713C169.392 17.3945 169.855 17.4061 170.167 17.4061C170.995 17.4061 171.678 17.3481 172.217 17.2261C172.755 17.1041 173.154 16.866 173.415 16.5175C173.675 16.1632 173.803 15.6463 173.803 14.9494C173.803 14.2234 173.641 13.6949 173.322 13.3581C172.998 13.0212 172.5 12.7715 171.823 12.5972L169.426 12.0455C169.021 11.9525 168.72 11.8422 168.523 11.7144C168.321 11.5867 168.222 11.3253 168.222 10.9187C168.222 10.5819 168.286 10.3496 168.413 10.2102C168.541 10.0708 168.749 9.98368 169.033 9.94883C169.322 9.91399 169.716 9.90237 170.225 9.91399C170.752 9.91399 171.285 9.9198 171.823 9.93722C172.356 9.95464 172.894 9.97207 173.438 9.9953L173.56 8.82211C173.212 8.76403 172.83 8.71757 172.413 8.68272C171.991 8.64787 171.568 8.61883 171.146 8.5956C170.723 8.57237 170.324 8.56076 169.953 8.56076C169.16 8.54914 168.523 8.60722 168.031 8.72918Z" fill="#46A5A5"/>
<path d="M176.952 25.7637C176.356 25.7637 175.771 25.8973 175.209 26.1644C174.694 26.4083 174.162 26.7742 173.612 27.2505C173.519 26.8846 173.363 26.5768 173.137 26.3445C172.755 25.9611 172.205 25.7637 171.482 25.7637C170.874 25.7637 170.283 25.8973 169.722 26.1644C169.189 26.4142 168.639 26.7917 168.078 27.2911L167.979 25.9728H166.619V34.4174H168.275V28.3656C168.639 28.11 168.964 27.8835 169.23 27.7209C169.548 27.5235 169.832 27.3841 170.081 27.2969C170.335 27.2098 170.596 27.1692 170.874 27.1692C171.285 27.1692 171.597 27.2737 171.806 27.4886C172.014 27.7035 172.118 28.0636 172.118 28.5689V34.4174H173.722V28.3772C174.081 28.1159 174.405 27.8952 174.671 27.7325C174.984 27.5409 175.262 27.4015 175.516 27.3086C175.771 27.2156 176.031 27.1692 176.309 27.1692C176.755 27.1692 177.073 27.2795 177.259 27.506C177.444 27.7325 177.542 28.0868 177.554 28.5689V34.4174H179.209V28.0868C179.209 27.326 179.018 26.751 178.631 26.3561C178.248 25.9611 177.693 25.7637 176.952 25.7637Z" fill="#46A5A5"/>
<path d="M194.208 26.1876C193.617 26.4548 193.033 26.8265 192.454 27.2969L192.286 25.9728H190.995V34.4174H192.651V28.3133C193.276 28.0113 193.814 27.7674 194.266 27.599C194.752 27.4131 195.232 27.3202 195.707 27.3202H196.234L196.407 25.7637H196.025C195.441 25.7637 194.833 25.9089 194.208 26.1876Z" fill="#46A5A5"/>
<path d="M202.271 29.9976C202.144 29.8524 202.04 29.7537 201.959 29.6956V29.6607C202.04 29.6027 202.144 29.5155 202.271 29.3936C202.399 29.2716 202.503 29.1555 202.584 29.0393L205.154 25.9786H203.221L200.68 29.0741H199.597C199.614 28.9348 199.649 28.7838 199.661 28.6502C199.69 28.3307 199.707 27.9881 199.707 27.6222L199.69 22.308H198.034V34.4174H199.69V31.5831C199.69 31.2811 199.678 30.9675 199.655 30.6307C199.643 30.5029 199.632 30.3751 199.614 30.2473H200.697L203.499 34.4174H205.432L202.59 30.4216C202.497 30.2822 202.399 30.1428 202.271 29.9976Z" fill="#46A5A5"/>
<path d="M261.125 33.1803C260.581 33.221 260.088 33.2384 259.649 33.2384C259.029 33.2384 258.531 33.1513 258.155 32.977C257.779 32.8028 257.513 32.4892 257.345 32.0362C257.24 31.7516 257.171 31.3683 257.13 30.9211H260.853C261.611 30.9211 262.161 30.712 262.497 30.2996C262.832 29.8873 263 29.2949 262.989 28.534C262.989 27.6222 262.699 26.9311 262.12 26.4664C261.541 26.0018 260.598 25.7637 259.301 25.7637C258.381 25.7637 257.628 25.8973 257.044 26.1702C256.459 26.4432 256.025 26.902 255.753 27.5467C255.475 28.1914 255.342 29.0683 255.342 30.1776C255.342 31.2405 255.481 32.0942 255.753 32.7447C256.031 33.3952 256.465 33.8714 257.061 34.1735C257.657 34.4755 258.45 34.6207 259.44 34.6207C259.787 34.6207 260.164 34.6032 260.581 34.5684C260.991 34.5335 261.397 34.4813 261.79 34.4058C262.178 34.3303 262.514 34.2373 262.792 34.1212L262.618 33.0293C262.172 33.0874 261.675 33.1397 261.125 33.1803ZM257.999 27.355C258.335 27.1808 258.792 27.0995 259.376 27.1111C260.088 27.1111 260.592 27.2156 260.887 27.4305C261.183 27.6454 261.333 28.0113 261.345 28.5282C261.345 28.8418 261.287 29.1148 261.171 29.3587C261.055 29.6027 260.812 29.7246 260.43 29.7246H257.107C257.125 29.1148 257.188 28.6153 257.298 28.2552C257.431 27.8313 257.663 27.5293 257.999 27.355Z" fill="#46A5A5"/>
<path d="M187.302 26.0191C186.862 25.8507 186.318 25.7694 185.675 25.7694C185.264 25.7694 184.807 25.7868 184.315 25.8217C183.823 25.8565 183.337 25.903 182.856 25.9611C182.381 26.0191 181.947 26.083 181.554 26.1527L181.71 27.3491C182.353 27.3027 183.007 27.2562 183.667 27.2098C184.326 27.1633 184.876 27.1401 185.311 27.1401C185.953 27.1401 186.387 27.2504 186.613 27.4711C186.839 27.6918 186.954 28.0461 186.966 28.5456V29.2193H183.533C182.787 29.2193 182.202 29.4051 181.785 29.771C181.363 30.1427 181.154 30.6538 181.154 31.3101V32.2278C181.154 32.733 181.264 33.1628 181.484 33.5171C181.704 33.8714 182.005 34.1327 182.387 34.3128C182.769 34.4928 183.215 34.5799 183.724 34.5799C184.193 34.5799 184.627 34.5102 185.027 34.3709C185.426 34.2315 185.785 34.0572 186.115 33.854C186.445 33.6449 186.723 33.43 186.954 33.2035C187.024 33.1338 187.076 33.0757 187.134 33.0176L187.331 34.4231H188.639V28.534C188.639 27.8312 188.529 27.2795 188.303 26.8729C188.077 26.4722 187.748 26.1818 187.302 26.0191ZM186.381 32.4717C185.976 32.7214 185.577 32.9015 185.183 33.0234C184.79 33.1454 184.425 33.2035 184.106 33.2035C183.672 33.2035 183.354 33.1105 183.151 32.9189C182.949 32.7272 182.85 32.4252 182.85 32.0129V31.496C182.85 31.1591 182.931 30.8978 183.082 30.7119C183.238 30.5202 183.51 30.4215 183.898 30.4099L186.966 30.3983V32.0419C186.781 32.1987 186.584 32.3439 186.381 32.4717Z" fill="#46A5A5"/>
<path d="M252.974 33.1512C252.65 33.1744 252.354 33.1918 252.076 33.2034C251.799 33.2151 251.579 33.2209 251.405 33.2209C250.762 33.2209 250.253 33.1337 249.877 32.9595C249.501 32.7853 249.234 32.4775 249.072 32.0244C248.91 31.5714 248.829 30.9558 248.829 30.1717C248.829 29.3877 248.91 28.7779 249.072 28.3365C249.234 27.9009 249.501 27.593 249.877 27.4188C250.247 27.2446 250.757 27.1575 251.405 27.1575C251.706 27.1575 252.065 27.1633 252.482 27.1749C252.904 27.1865 253.309 27.2097 253.715 27.2446L253.923 26.1701C253.634 26.054 253.321 25.9668 252.985 25.9088C252.644 25.8507 252.32 25.81 252.001 25.7868C251.683 25.7636 251.393 25.752 251.133 25.752C250.143 25.752 249.356 25.8913 248.76 26.1759C248.169 26.4605 247.735 26.9251 247.469 27.5698C247.197 28.2145 247.063 29.0799 247.063 30.1659C247.063 31.2636 247.197 32.1348 247.457 32.7795C247.723 33.4241 248.152 33.8946 248.742 34.1792C249.333 34.4696 250.126 34.6089 251.116 34.6089C251.619 34.6089 252.134 34.5741 252.65 34.4986C253.165 34.4231 253.639 34.3069 254.062 34.1443L253.906 33.035C253.605 33.0931 253.298 33.1279 252.974 33.1512Z" fill="#46A5A5"/>
<path d="M227.631 25.7637C227.22 25.7637 226.792 25.8334 226.357 25.9611C225.918 26.0947 225.512 26.2806 225.124 26.5245C224.766 26.751 224.453 27.0124 224.181 27.3086L224.048 25.9728H222.688V37.8556H224.343V35.486C224.355 35.1376 224.355 34.8123 224.343 34.4987C224.331 34.249 224.314 33.9934 224.285 33.7321C224.742 34.0166 225.217 34.2432 225.709 34.3825C226.242 34.5394 226.792 34.6149 227.353 34.6149C228.077 34.6149 228.673 34.4813 229.136 34.2083C229.599 33.9353 229.952 33.4823 230.178 32.8435C230.409 32.2046 230.525 31.3334 230.525 30.2415C230.525 28.778 230.299 27.6628 229.854 26.902C229.408 26.147 228.667 25.7637 227.631 25.7637ZM228.627 32.1001C228.493 32.5356 228.291 32.8376 228.013 33.0003C227.735 33.1629 227.365 33.2442 226.89 33.2442C226.444 33.2442 226.022 33.1977 225.622 33.1048C225.246 33.0177 224.812 32.9015 224.337 32.7621V28.3772C224.87 27.9707 225.339 27.6687 225.75 27.4712C226.172 27.2679 226.606 27.1692 227.041 27.1692C227.463 27.1692 227.81 27.2621 228.065 27.4538C228.326 27.6454 228.517 27.959 228.632 28.4062C228.754 28.8476 228.812 29.4633 228.812 30.2473C228.823 31.043 228.754 31.6587 228.627 32.1001Z" fill="#46A5A5"/>
<path d="M213.339 30.2996C213.675 29.8873 213.843 29.2949 213.831 28.534C213.831 27.6222 213.542 26.9311 212.963 26.4664C212.384 26.0018 211.441 25.7637 210.144 25.7637C209.224 25.7637 208.471 25.8973 207.886 26.1702C207.302 26.4432 206.868 26.902 206.596 27.5467C206.318 28.1914 206.185 29.0683 206.185 30.1776C206.185 31.2405 206.323 32.0942 206.596 32.7447C206.868 33.3952 207.308 33.8714 207.904 34.1735C208.5 34.4755 209.293 34.6207 210.283 34.6207C210.63 34.6207 211.006 34.6032 211.423 34.5684C211.834 34.5335 212.239 34.4813 212.633 34.4058C213.021 34.3303 213.357 34.2373 213.634 34.1212L213.461 33.0293C213.015 33.0874 212.517 33.1338 211.967 33.1745C211.417 33.2152 210.931 33.2326 210.491 33.2326C209.872 33.2326 209.374 33.1455 208.998 32.9712C208.627 32.797 208.355 32.4834 208.187 32.0304C208.083 31.7458 208.014 31.3625 207.973 30.9152H211.695C212.454 30.9211 212.998 30.712 213.339 30.2996ZM207.939 29.7304C207.956 29.1206 208.02 28.6211 208.13 28.2611C208.263 27.8371 208.494 27.5351 208.83 27.3608C209.166 27.1866 209.623 27.1053 210.208 27.1169C210.92 27.1169 211.423 27.2214 211.718 27.4363C212.014 27.6512 212.164 28.0171 212.176 28.534C212.176 28.8476 212.118 29.1206 212.002 29.3645C211.886 29.6085 211.643 29.7304 211.261 29.7304H207.939Z" fill="#46A5A5"/>
<path d="M235.382 33.0989C235.023 33.0989 234.745 33.006 234.543 32.8202C234.34 32.6343 234.242 32.3671 234.242 32.0071L234.259 22.3021H232.604V32.4078C232.604 33.1106 232.795 33.6507 233.182 34.0166C233.564 34.3883 234.08 34.5683 234.728 34.5683C234.878 34.5683 235.058 34.5625 235.272 34.5451C235.486 34.5277 235.695 34.5044 235.891 34.4696C236.094 34.4347 236.25 34.3883 236.366 34.3302L236.175 33.0989H235.382Z" fill="#46A5A5"/>
<path d="M218.381 23.4985H216.708V25.9785L215.191 26.0598V27.2214H216.708V32.2916C216.708 33.0292 216.899 33.5926 217.275 33.9875C217.657 34.3767 218.201 34.5741 218.913 34.5741C219.064 34.5741 219.261 34.5683 219.51 34.5509C219.759 34.5335 220.002 34.5103 220.251 34.4754C220.5 34.4406 220.72 34.3941 220.916 34.336L220.725 33.1106H219.481C219.076 33.1106 218.792 33.0292 218.63 32.8608C218.462 32.6924 218.381 32.4136 218.381 32.0245V27.233H221.003V25.9843H218.381V23.4985Z" fill="#46A5A5"/>
<path d="M243.718 26.0191C243.278 25.8507 242.734 25.7694 242.085 25.7694C241.674 25.7694 241.217 25.7868 240.725 25.8217C240.233 25.8565 239.747 25.903 239.266 25.9611C238.792 26.0191 238.358 26.083 237.964 26.1527L238.12 27.3491C238.763 27.3027 239.417 27.2562 240.077 27.2098C240.737 27.1633 241.287 27.1401 241.727 27.1401C242.369 27.1401 242.803 27.2504 243.029 27.4711C243.255 27.6918 243.371 28.0461 243.382 28.5456V29.2193H239.949C239.203 29.2193 238.618 29.4051 238.201 29.771C237.779 30.1427 237.57 30.6538 237.57 31.3101V32.2278C237.57 32.733 237.68 33.1628 237.9 33.5171C238.12 33.8714 238.421 34.1327 238.803 34.3128C239.191 34.4928 239.631 34.5799 240.14 34.5799C240.609 34.5799 241.043 34.5102 241.443 34.3709C241.842 34.2315 242.201 34.0572 242.531 33.854C242.861 33.6449 243.139 33.43 243.37 33.2035C243.44 33.1338 243.492 33.0757 243.55 33.0176L243.747 34.4231H245.055V28.534C245.055 27.8312 244.945 27.2795 244.719 26.8729C244.488 26.4722 244.158 26.1818 243.718 26.0191ZM242.792 32.4717C242.392 32.7214 241.987 32.9015 241.593 33.0234C241.194 33.1454 240.835 33.2035 240.517 33.2035C240.077 33.2035 239.758 33.1105 239.562 32.9189C239.359 32.7272 239.261 32.4252 239.261 32.0129V31.496C239.261 31.1591 239.336 30.8978 239.492 30.7119C239.648 30.5202 239.92 30.4215 240.314 30.4099L243.382 30.3983V32.0419C243.191 32.1987 243 32.3439 242.792 32.4717Z" fill="#46A5A5"/>
<path d="M170.202 42.9673C169.282 42.9673 168.553 43.0544 168.014 43.2344C167.476 43.4145 167.088 43.6991 166.857 44.0998C166.625 44.4948 166.509 45.0175 166.509 45.6679C166.509 46.2778 166.625 46.783 166.857 47.1722C167.03 47.4684 167.291 47.7065 167.644 47.8865C167.482 47.9911 167.337 48.1189 167.227 48.2931C167.082 48.5254 166.99 48.7693 166.949 49.0307C166.909 49.292 166.932 49.5476 167.019 49.8089C167.106 50.0703 167.256 50.291 167.476 50.4827C167.488 50.4943 167.511 50.5001 167.528 50.5117C167.273 50.6453 167.036 50.7847 166.857 50.9241C166.602 51.1215 166.422 51.348 166.312 51.5978C166.202 51.8533 166.15 52.1611 166.15 52.5328C166.15 53.0033 166.22 53.404 166.359 53.7234C166.498 54.0487 166.723 54.31 167.042 54.5133C167.36 54.7166 167.783 54.8618 168.31 54.9431C168.836 55.0302 169.502 55.0709 170.289 55.0709C171.302 55.0709 172.107 54.9896 172.703 54.8269C173.299 54.6643 173.728 54.3972 173.988 54.0138C174.249 53.6305 174.376 53.102 174.376 52.4225C174.376 51.7081 174.214 51.1564 173.896 50.7672C173.571 50.3839 173.01 50.1342 172.205 50.0296L169.068 49.5418C168.709 49.4837 168.483 49.3559 168.379 49.1643C168.275 48.9668 168.257 48.7519 168.327 48.508C168.362 48.3802 168.414 48.2699 168.483 48.1653C168.952 48.2699 169.519 48.3163 170.191 48.3163C171.1 48.3163 171.823 48.2234 172.362 48.0317C172.9 47.8401 173.288 47.5497 173.519 47.1489C173.751 46.7482 173.867 46.2487 173.867 45.6331C173.867 45.0233 173.757 44.5238 173.542 44.1289L174.764 44.0243L174.851 43.1589H172.153C171.632 43.037 170.995 42.9673 170.202 42.9673ZM172.223 51.4177C172.431 51.4932 172.57 51.6036 172.645 51.7488C172.72 51.894 172.755 52.1031 172.755 52.3818C172.755 52.7419 172.686 53.0149 172.541 53.2007C172.396 53.3924 172.147 53.526 171.789 53.6015C171.43 53.677 170.926 53.7118 170.272 53.7118C169.618 53.7118 169.103 53.677 168.738 53.6073C168.367 53.5376 168.113 53.404 167.974 53.2065C167.829 53.0091 167.76 52.7303 167.76 52.3586C167.76 52.1031 167.8 51.8882 167.881 51.7081C167.962 51.5281 168.078 51.3538 168.234 51.1912C168.333 51.0809 168.46 50.9763 168.593 50.866L171.325 51.2203C171.713 51.2783 172.014 51.3422 172.223 51.4177ZM171.852 46.7889C171.545 47.0212 170.995 47.1373 170.185 47.1373C169.38 47.1373 168.825 47.0212 168.512 46.7889C168.2 46.5565 168.049 46.179 168.049 45.6447C168.049 45.1046 168.205 44.7213 168.512 44.4948C168.825 44.2682 169.38 44.1579 170.185 44.1579C170.99 44.1579 171.545 44.2682 171.852 44.4948C172.159 44.7213 172.309 45.1046 172.309 45.6447C172.309 46.179 172.153 46.5623 171.852 46.7889Z" fill="#46A5A5"/>
<path d="M210.051 44.1108C209.6 43.35 208.859 42.9667 207.828 42.9667C207.417 42.9667 206.989 43.0364 206.555 43.1641C206.121 43.2977 205.71 43.4836 205.322 43.7275C204.963 43.954 204.65 44.2154 204.378 44.5116L204.245 43.1758H202.885V55.0586H204.54V52.689C204.552 52.3406 204.552 52.0153 204.54 51.7017C204.529 51.452 204.511 51.1964 204.482 50.9351C204.94 51.2196 205.414 51.4462 205.906 51.5855C206.439 51.7424 206.989 51.8179 207.556 51.8179C208.28 51.8179 208.876 51.6843 209.339 51.4113C209.802 51.1383 210.155 50.6853 210.381 50.0465C210.607 49.4076 210.728 48.5364 210.728 47.4445C210.728 45.981 210.503 44.8717 210.051 44.1108ZM208.818 49.2972C208.685 49.7328 208.482 50.0348 208.205 50.1975C207.927 50.3601 207.556 50.4414 207.082 50.4414C206.636 50.4414 206.213 50.3949 205.814 50.302C205.438 50.2149 205.003 50.0987 204.529 49.9593V45.5744C205.061 45.1679 205.53 44.8658 205.941 44.6684C206.364 44.4651 206.798 44.3664 207.232 44.3664C207.655 44.3664 208.002 44.4593 208.257 44.651C208.517 44.8426 208.702 45.1562 208.824 45.6034C208.945 46.0448 209.003 46.6605 209.003 47.4445C209.021 48.2402 208.951 48.8617 208.818 49.2972Z" fill="#46A5A5"/>
<path d="M198.833 49.2855C198.277 49.634 197.791 49.907 197.391 50.0928C196.951 50.3019 196.505 50.4065 196.054 50.4065C195.591 50.4065 195.267 50.3019 195.07 50.0928C194.873 49.8837 194.775 49.5295 194.775 49.0184V43.1757H193.119V49.5237C193.119 51.0685 193.889 51.841 195.429 51.841C196.06 51.841 196.685 51.7074 197.299 51.4403C197.866 51.1963 198.445 50.842 199.035 50.3832L199.157 51.6145H200.5V43.1757H198.827V49.2855H198.833Z" fill="#46A5A5"/>
<path d="M179.702 43.3906C179.111 43.6578 178.527 44.0295 177.948 44.4999L177.78 43.1757H176.483V51.6203H178.139V45.5105C178.764 45.2085 179.302 44.9645 179.754 44.7961C180.24 44.6102 180.721 44.5173 181.195 44.5173H181.728L181.902 42.9608H181.519C180.935 42.9666 180.327 43.106 179.702 43.3906Z" fill="#46A5A5"/>
<path d="M189.432 43.3965C188.842 43.1061 188.049 42.9667 187.059 42.9667C186.081 42.9667 185.299 43.1119 184.703 43.3965C184.107 43.681 183.684 44.1573 183.418 44.8078C183.152 45.4582 183.024 46.3236 183.024 47.3923C183.024 48.4783 183.158 49.3437 183.418 49.9942C183.684 50.6447 184.113 51.1151 184.703 51.4055C185.294 51.6959 186.081 51.8353 187.059 51.8353C188.049 51.8353 188.836 51.6901 189.432 51.4055C190.029 51.1209 190.451 50.6447 190.706 49.9942C190.966 49.3437 191.094 48.4725 191.094 47.3923C191.094 46.3178 190.966 45.4582 190.706 44.8078C190.451 44.1573 190.023 43.6868 189.432 43.3965ZM189.149 49.2624C189.01 49.7096 188.773 50.029 188.431 50.2033C188.089 50.3833 187.632 50.4704 187.059 50.4704C186.486 50.4704 186.029 50.3833 185.699 50.2033C185.363 50.0232 185.131 49.7096 184.993 49.2624C184.854 48.8152 184.784 48.1879 184.784 47.3923C184.784 46.5966 184.854 45.9751 184.993 45.5337C185.131 45.0924 185.363 44.7729 185.699 44.5929C186.034 44.407 186.486 44.3141 187.059 44.3141C187.632 44.3141 188.089 44.407 188.431 44.5929C188.767 44.7787 189.01 45.0924 189.149 45.5337C189.288 45.9751 189.357 46.5966 189.357 47.3923C189.357 48.1879 189.288 48.8152 189.149 49.2624Z" fill="#46A5A5"/>
<path d="M155.031 0H154.053V61H155.031V0Z" fill="#46A5A5"/>
<path d="M93.5963 42.5251V21.4774C93.5963 12.876 86.6384 5.8717 78.0886 5.8717C73.2204 5.8717 68.8673 8.14258 66.0193 11.6854C63.1713 8.14258 58.8241 5.8717 53.9501 5.8717C45.4003 5.8717 38.4424 12.8702 38.4424 21.4774V42.5251H45.354V21.4774C45.354 16.6976 49.2092 12.8063 53.9501 12.8063C58.691 12.8063 62.5751 16.6976 62.5751 21.4774L62.5693 42.6064C67.4781 42.6064 69.4867 41.1196 69.4867 37.3619V21.4774C69.4867 16.6976 73.3419 12.8063 78.0828 12.8063C82.8237 12.8063 86.6789 16.6976 86.6789 21.4774V42.5251H93.5963Z" fill="#46A5A5"/>
<path d="M136.357 40.2078V24.5789C136.357 15.2805 129.712 7.56762 120.849 6.12727C120.039 5.95884 119.061 5.86011 117.892 5.86011C117.886 5.86011 117.88 5.86011 117.874 5.86011C117.868 5.86011 117.863 5.86011 117.857 5.86011C117.272 5.86011 116.687 5.88915 116.103 5.94723C106.245 6.79517 99.6689 14.6068 99.6689 24.12C99.6689 34.1967 107.842 41.7295 117.886 41.7295C120.051 41.7295 122.169 41.1196 124.184 40.3762C124.184 40.3762 123.715 38.5468 122.569 35.9739C121.648 33.9121 120.815 34.5742 117.868 34.58C111.634 34.5858 106.557 30.3751 106.557 24.12C106.557 20.856 107.976 17.9172 110.181 15.8438L110.187 15.8496C112.3 13.9737 115.026 12.8121 117.857 12.8121C124.242 12.8121 129.434 18.167 129.434 24.5672V40.2601C129.434 47.6012 124.242 51.9107 117.857 51.9107C114.447 51.9107 111.379 50.4238 109.261 48.0659C108.994 47.7697 108.717 47.4502 108.479 47.1308L102.627 50.9698C106.007 55.7671 111.657 58.8859 117.944 58.8859C128.971 58.9033 136.357 51.3183 136.357 40.2078Z" fill="#46A5A5"/>
<path d="M31.1428 26.4374C30.2108 25.1538 28.7057 24.0504 26.9171 23.2547C23.7044 21.8201 18.4657 21.3439 16.1618 20.9838C12.4513 20.3972 7.28787 20.3972 7.65255 16.5001C7.97093 13.0793 12.4513 11.7086 18.9982 12.2836C21.771 12.5275 25.2673 13.904 25.2673 13.904C26.7145 14.4093 27.4901 14.7926 28.6073 15.3734C30.4713 11.5576 31.4322 9.59457 31.4322 9.59457C31.4264 9.59457 31.4148 9.58296 31.409 9.58296C30.3208 9.0196 29.273 8.46785 28.1558 7.97999C27.0271 7.4689 25.4699 6.91715 23.6523 6.48156C23.305 6.40025 21.551 6.01112 19.3745 5.85431C14.9809 5.53488 10.3906 6.01693 7.02738 7.79994C5.28501 8.72339 3.91889 9.93143 2.83063 11.3137C2.81327 11.3602 2.78432 11.4124 2.73802 11.4763C1.36611 13.3232 0.677268 15.6406 0.995642 18.0392C1.41821 21.2684 2.88852 23.5218 6.29223 25.1538C9.26179 26.5768 12.596 26.8672 16.5902 27.355C20.9027 27.8777 26.0951 28.5631 26.0025 32.0362C25.9272 34.8994 21.551 36.8915 14.5815 36.4908C8.90289 36.1888 5.42972 32.5821 4.7293 31.8213C3.14322 33.2558 1.5745 34.6962 0 36.1307C0.515187 36.8102 1.09405 37.4549 1.75395 38.0473C4.75245 40.7422 9.14601 42.5077 14.0374 42.9375C18.4252 43.3208 23.3397 42.6471 26.6971 40.8699C30.4365 38.8836 32.3757 36.0959 32.6767 32.3324C32.833 30.3751 32.2426 27.9532 31.1428 26.4374Z" fill="#46A5A5"/>
</svg>
