<svg width="66" height="32" viewBox="0 0 66 32" fill="none" xmlns="http://www.w3.org/2000/svg">
<path d="M0.0371094 13.3637V17.305H65.2242V13.3637H0.0371094Z" fill="white"/>
<path d="M0.0375977 0.0510864V15.0278H65.2247V0.0510864H0.0375977Z" fill="#1C3664"/>
<path d="M0.0371094 31.0556H57.5238C61.7887 31.0556 65.1946 27.6106 65.1946 23.5526V16.0788H0.0371094V31.0556Z" fill="#F27421"/>
<path d="M5.98979 27.8734H5.87132C4.56816 27.8734 3.41309 26.9683 3.41309 25.4502C3.41309 24.516 4.83471 24.516 4.83471 25.4502C4.83471 26.0925 5.24935 26.472 5.87132 26.472H5.98979C6.58213 26.472 7.05601 26.1509 7.05601 25.567C7.05601 24.0781 3.50194 23.9321 3.50194 21.7134C3.50194 21.5674 3.50194 21.6258 3.50194 21.4506C3.50194 20.166 4.8051 19.3778 5.90094 19.3778H6.0194C7.26333 19.3778 8.4184 20.1369 8.4184 21.3338C8.4184 22.2097 7.02639 22.2389 7.02639 21.363C7.02639 21.0419 6.64137 20.7791 6.04902 20.7791H5.93055C5.39744 20.7791 4.9828 21.0711 4.9828 21.509C4.9828 21.655 4.9828 21.5382 4.9828 21.6842C4.9828 22.6184 8.53687 23.0563 8.53687 25.5378C8.47764 26.9391 7.41141 27.8734 5.98979 27.8734Z" fill="#1C3664"/>
<path d="M12.1504 27.8734H12.0319C10.6992 27.8734 9.57373 26.8516 9.57373 25.5086V21.7425C9.57373 20.3996 10.6695 19.3778 12.0319 19.3778H12.1504C13.3647 19.3778 14.4309 20.1952 14.579 21.4214C14.579 21.4506 14.579 21.4798 14.579 21.5382C14.579 21.9761 14.2236 22.2097 13.8682 22.2097C13.5424 22.2097 13.2462 22.0053 13.187 21.5966C13.1277 21.1003 12.6835 20.7791 12.18 20.7791H12.0319C11.4692 20.7791 10.9953 21.1879 10.9953 21.7425V25.5086C10.9953 26.0633 11.4692 26.472 12.0319 26.472H12.1504C12.6835 26.472 13.0981 26.1509 13.1574 25.6546C13.2166 25.2459 13.5424 25.0415 13.8385 25.0415C14.1939 25.0415 14.5493 25.2751 14.5493 25.713C14.5493 25.7714 14.5493 25.8006 14.5493 25.8298C14.4013 27.0267 13.3647 27.8734 12.1504 27.8734Z" fill="#1C3664"/>
<path d="M18.1333 27.8734H18.0149C16.6821 27.8734 15.5566 26.8516 15.5566 25.5086V21.7425C15.5566 20.3996 16.6525 19.3778 18.0149 19.3778H18.1333C19.4957 19.3778 20.5916 20.3996 20.5916 21.7425V25.4794C20.6212 26.8516 19.5253 27.8734 18.1333 27.8734ZM19.1996 21.7717C19.1996 21.2171 18.7553 20.8083 18.1926 20.8083H18.0741C17.5114 20.8083 17.0671 21.2171 17.0671 21.7717V25.5086C17.0671 26.0633 17.541 26.5012 18.0741 26.5012H18.1926C18.7553 26.5012 19.1996 26.0925 19.1996 25.5378V21.7717Z" fill="#1C3664"/>
<path d="M24.6187 27.8733H24.5002C23.1674 27.8733 22.042 26.7932 22.042 25.4502V20.0492C22.042 19.5821 22.3974 19.3485 22.7528 19.3485C23.1082 19.3485 23.4636 19.5821 23.4636 20.0492V25.4502C23.4636 26.0049 23.9375 26.472 24.4706 26.472H24.5891C25.1518 26.472 25.6257 26.0049 25.6257 25.4502V20.0492C25.6257 19.5821 25.9811 19.3485 26.3365 19.3485C26.6919 19.3485 27.0473 19.5821 27.0473 20.0492V25.4502C27.1065 26.7932 26.0107 27.8733 24.6187 27.8733Z" fill="#1C3664"/>
<path d="M32.1126 20.8375H31.1352V27.1727C31.1352 27.6398 30.7798 27.8733 30.4244 27.8733C30.069 27.8733 29.7136 27.6398 29.7136 27.1727V20.8375H28.7362C28.2623 20.8375 28.0254 20.4872 28.0254 20.1368C28.0254 19.8157 28.2623 19.4654 28.7362 19.4654H32.1126C32.5864 19.4654 32.8234 19.8157 32.8234 20.1368C32.853 20.4872 32.5864 20.8375 32.1126 20.8375Z" fill="#1C3664"/>
<path d="M38.7171 27.815H35.5184C35.0742 27.815 34.8076 27.4063 34.8076 26.9976C34.8076 26.8516 34.8372 26.7056 34.9261 26.5597L37.7101 22.1513C37.8582 21.9177 37.8582 21.7717 37.8582 21.5966V21.509C37.8582 21.1586 37.5324 20.8375 37.1178 20.8375H37.0882C36.6735 20.8375 36.3773 21.1586 36.3773 21.509V21.655C36.3773 22.1221 36.0219 22.3264 35.6665 22.3264C35.3111 22.3264 34.9557 22.0929 34.9557 21.655V21.4506C34.9557 20.2828 35.9035 19.407 37.0882 19.407H37.1178C38.2432 19.407 39.2799 20.2536 39.2799 21.4506V21.5674C39.2799 22.0345 39.1022 22.3848 38.8652 22.8227L36.6143 26.4429H38.7467C39.2206 26.4429 39.4576 26.7932 39.4576 27.1144C39.428 27.4647 39.191 27.815 38.7171 27.815Z" fill="#1C3664"/>
<path d="M44.3446 26.1509H44.078V27.1727C44.078 27.6398 43.7226 27.8734 43.3672 27.8734C43.0118 27.8734 42.6564 27.6398 42.6564 27.1727V26.1509H40.7313C40.2574 26.1509 39.9316 25.8882 39.9316 25.421C39.9316 25.3043 39.9613 25.1583 39.9909 25.0415L42.301 19.8449C42.4491 19.553 42.686 19.4362 42.923 19.4362C43.2784 19.4362 43.6634 19.699 43.6634 20.1077C43.6634 20.1953 43.6634 20.312 43.6041 20.3996L41.5606 24.7788H42.6268V24.0781C42.6268 23.611 42.9822 23.3774 43.3376 23.3774C43.693 23.3774 44.0484 23.611 44.0484 24.0781V24.7788H44.315C44.7888 24.7788 45.0258 25.0999 45.0258 25.4502C45.0258 25.8006 44.8184 26.1509 44.3446 26.1509Z" fill="#1C3664"/>
<path d="M8.06355 4.86813H5.19067V6.85332H7.1158C7.58968 6.85332 7.82662 7.20365 7.82662 7.55398C7.82662 7.87512 7.58968 8.22544 7.1158 8.22544H5.19067V11.2032C5.19067 11.6703 4.83527 11.9039 4.47986 11.9039C4.12445 11.9039 3.76904 11.6703 3.76904 11.2032V4.19667C3.76904 3.81714 4.09483 3.496 4.47986 3.496H8.06355C8.53743 3.496 8.77437 3.84633 8.77437 4.16746C8.77437 4.51779 8.53743 4.86813 8.06355 4.86813Z" fill="white"/>
<path d="M10.5219 11.9039C10.1664 11.9039 9.81104 11.6703 9.81104 11.2032V4.109C9.81104 3.64189 10.1664 3.40833 10.5219 3.40833C10.8773 3.40833 11.2327 3.64189 11.2327 4.109V11.2032C11.2623 11.6703 10.8773 11.9039 10.5219 11.9039Z" fill="white"/>
<path d="M17.6297 11.9039H17.4817C17.0374 11.9039 16.8597 11.6119 16.7116 11.2908L14.7273 6.79486V11.2032C14.7273 11.6703 14.3719 11.9039 14.0165 11.9039C13.6611 11.9039 13.3057 11.6703 13.3057 11.2032V4.109C13.3057 3.72947 13.6314 3.40833 14.0165 3.40833H14.1646C14.6088 3.40833 14.7865 3.70027 14.9346 3.99221L16.8893 8.34218V4.07979C16.8893 3.61268 17.2447 3.40833 17.6001 3.40833C17.9555 3.40833 18.3109 3.64188 18.3109 4.07979V11.174C18.3702 11.5827 18.0148 11.9039 17.6297 11.9039Z" fill="white"/>
<path d="M25.0043 11.9039C24.7377 11.9039 24.4711 11.7579 24.3527 11.4076L23.9084 9.94789H21.4798L21.0356 11.4076C20.9171 11.7579 20.6505 11.9039 20.384 11.9039C20.0286 11.9039 19.6436 11.6411 19.6436 11.2324C19.6436 11.174 19.6436 11.0865 19.6732 10.9989L21.9241 4.02147C22.1018 3.46679 22.3979 3.43759 22.6941 3.43759C22.9903 3.43759 23.2865 3.49598 23.4642 4.02147L25.7151 10.9989C25.7447 11.0865 25.7447 11.1448 25.7447 11.2324C25.7743 11.6411 25.4189 11.9039 25.0043 11.9039ZM22.7237 6.00669L21.9537 8.57577H23.4938L22.7237 6.00669Z" fill="white"/>
<path d="M31.3424 11.9039H31.2239C30.7796 11.9039 30.6019 11.6119 30.4538 11.2908L28.4695 6.79486V11.2032C28.4695 11.6703 28.1141 11.9039 27.7587 11.9039C27.4033 11.9039 27.0479 11.6703 27.0479 11.2032V4.109C27.0479 3.72947 27.3736 3.40833 27.7587 3.40833H27.9068C28.351 3.40833 28.5287 3.70027 28.6768 3.99221L30.6315 8.34218V4.07979C30.6315 3.61268 30.987 3.40833 31.3424 3.40833C31.6978 3.40833 32.0532 3.64188 32.0532 4.07979V11.174C32.0236 11.5827 31.6978 11.9039 31.3424 11.9039Z" fill="white"/>
<path d="M36.4068 11.9039H36.2883C34.9555 11.9039 33.8301 10.8821 33.8301 9.53914V5.77306C33.8301 4.43012 34.9259 3.40833 36.2883 3.40833H36.4068C37.6211 3.40833 38.6873 4.22577 38.8354 5.45193C38.8354 5.48112 38.8354 5.51033 38.8354 5.56871C38.8354 6.00663 38.48 6.24018 38.1246 6.24018C37.7988 6.24018 37.5026 6.03581 37.4434 5.62709C37.3842 5.13078 36.9399 4.80965 36.4068 4.80965H36.2883C35.7256 4.80965 35.2517 5.21837 35.2517 5.77306V9.53914C35.2517 10.0938 35.7256 10.5026 36.2883 10.5026H36.4068C36.9399 10.5026 37.3545 10.1814 37.4434 9.68511C37.5026 9.27639 37.8284 9.07204 38.1246 9.07204C38.48 9.07204 38.8354 9.30559 38.8354 9.7435C38.8354 9.80189 38.8354 9.83109 38.8354 9.88948C38.6577 11.0572 37.6507 11.9039 36.4068 11.9039Z" fill="white"/>
<path d="M44.7881 11.8455H41.2045C40.8194 11.8455 40.4937 11.5243 40.4937 11.1448V4.19666C40.4937 3.81714 40.8194 3.496 41.2045 3.496H44.7881C45.2619 3.496 45.4989 3.84633 45.4989 4.16746C45.4989 4.51779 45.2619 4.86812 44.7881 4.86812H41.9153V6.8533H43.8403C44.3142 6.8533 44.5511 7.20364 44.5511 7.55396C44.5511 7.8751 44.3142 8.22542 43.8403 8.22542H41.9153V10.4442H44.7881C45.2619 10.4442 45.4989 10.7945 45.4989 11.1448C45.4989 11.4951 45.2619 11.8455 44.7881 11.8455Z" fill="white"/>
</svg>
