<svg width="29" height="29" viewBox="0 0 29 29" fill="none" xmlns="http://www.w3.org/2000/svg">
<path d="M16.2793 9.88356L22.3652 2.2994H16.3493V0.490356H24.8834V2.2994L18.7276 9.88356H24.9534V11.6926H16.2793V9.88356Z" fill="white"/>
<path d="M26.8418 0.490356H28.8704V11.623H26.8418V0.490356Z" fill="white"/>
<path d="M8.72435 19.4159C7.88493 18.5809 7.11545 18.3026 6.34598 18.3026C3.9676 18.3026 2.42865 20.0421 2.42865 22.2686C2.42865 24.6343 3.9676 26.4434 6.34598 26.4434C7.25536 26.4434 8.16473 26.0259 8.9342 25.1213L10.6131 26.3042C9.56377 27.6958 8.02483 28.322 6.34598 28.322C2.84836 28.322 0.330078 26.0259 0.330078 22.5469C0.330078 18.9984 2.84836 16.6327 6.34598 16.6327C7.88493 16.6327 9.21401 17.1197 10.3332 18.3722L8.72435 19.4159Z" fill="white"/>
<path d="M12.2222 16.7719H14.2508V27.9045H12.2222V16.7719Z" fill="white"/>
<path d="M17.3984 16.7719H24.7434V18.5809H19.427V21.5033H24.4636V23.3123H19.427V27.9741H17.3984V16.7719Z" fill="white"/>
<path d="M26.9121 16.7719H28.9407V27.9045H26.9121V16.7719Z" fill="white"/>
<path d="M1.16943 0.490356H3.19807V11.623H1.16943V0.490356Z" fill="white"/>
<path d="M9.07404 0.490356H10.8228L15.7195 11.623H13.4111L12.3618 9.0486H7.39519L6.3459 11.623H4.10742L9.07404 0.490356ZM11.6623 7.44829L9.91346 2.92563L8.09471 7.44829H11.6623Z" fill="white"/>
</svg>
