<svg width="140" height="24" viewBox="0 0 140 24" fill="none" xmlns="http://www.w3.org/2000/svg">
<g clip-path="url(#clip0_1265_2600)">
<path d="M5.92334 11.937L11.8418 6.02417L17.7602 11.9365L11.8418 17.8499L5.92334 11.937Z" fill="#E6007E"/>
<path d="M11.8452 17.8546L17.7647 11.9396L23.6842 17.8546L17.7647 23.7685L11.8452 17.8546Z" fill="#A71680"/>
<path d="M0 17.8546L5.91842 11.9396L11.8389 17.8546L5.91895 23.768L0 17.8546Z" fill="#8DA6D6"/>
<path d="M0 6.01943L5.91895 0.106567L11.8389 6.01943L5.91895 11.9344L0 6.01943Z" fill="#F39200"/>
<path d="M11.8452 6.01943L17.7647 0.106567L23.6842 6.01943L17.7647 11.9344L11.8452 6.01943Z" fill="#F39DAA"/>
<path d="M33.7433 7.11947H32.3575V5.54568H35.5475V10.6288C36.3054 9.62291 37.4444 9.22591 38.5265 9.22591C41.0891 9.22591 42.3607 11.0084 42.3607 13.5298V16.7925H43.7844V18.3663H39.4949V16.7925H40.596V13.5497C40.596 11.8813 39.7033 10.8933 38.2233 10.9127C36.6091 10.9327 35.5659 12.1458 35.5659 13.6823V16.7925H36.9691V18.3663H32.2817V16.7925H33.7433V7.11947ZM49.1181 10.7608C47.3723 10.7608 46.1959 12.0317 46.1959 13.8715C46.1959 15.5589 47.3533 16.8487 49.0991 16.8487C50.8844 16.8487 52.0238 15.5589 52.0417 13.8715C52.0607 12.0317 50.8086 10.7608 49.1181 10.7608ZM49.0991 9.11128C51.947 9.11128 53.8454 11.1031 53.8454 13.8715C53.8454 16.5453 51.9281 18.5561 49.0991 18.5561C46.3107 18.5561 44.3728 16.5453 44.3728 13.8715C44.3933 11.122 46.347 9.11128 49.0991 9.11128ZM55.0038 18.3663V16.7341H56.4649V10.9127H55.0602V9.31951H58.1733L58.3244 10.5147C58.8375 9.56612 59.8817 9.1686 60.8128 9.1686C62.2549 9.1686 63.2417 9.68022 63.6975 11.0084C64.3996 9.69968 65.577 9.1686 66.7917 9.1686C69.4491 9.1686 70.6065 10.7608 70.6065 13.3026V16.7341H72.0496V18.3663H67.4949V16.7341H68.8223V13.3026C68.8223 11.9176 68.2723 10.8933 66.7344 10.8933C65.368 10.8933 64.4749 12.0317 64.4749 13.3405V16.7341H65.8428V18.3663H61.287V16.7341H62.6728V13.3221C62.6728 11.937 61.9896 10.8749 60.4707 10.8749C59.1033 10.8565 58.2491 11.9933 58.2491 13.3221V16.7157H59.6349V18.3473H55.0038V18.3663ZM80.2702 13.0381C80.1544 11.539 79.0733 10.7245 77.5359 10.7245C76.1502 10.7245 74.8596 11.5569 74.5738 13.0381H80.2702ZM81.4833 17.0007C80.5538 18.0429 78.978 18.5561 77.5938 18.5561C74.6702 18.5561 72.7523 16.6405 72.7523 13.7769C72.7523 11.0647 74.7259 9.07447 77.5175 9.07447C80.3828 9.07447 82.377 10.8749 82.0344 14.5167H74.6117C74.7644 15.8639 75.9802 16.8487 77.6691 16.8487C78.5991 16.8487 79.7565 16.508 80.3254 15.8639L81.4833 17.0007ZM88.2802 16.5264C90.0065 16.5264 91.2791 15.276 91.2791 13.6439C91.2791 11.8056 89.8754 10.7608 88.2428 10.7608C86.7423 10.7608 85.2038 11.7088 85.2038 13.6055C85.2617 15.4842 86.6096 16.5264 88.2802 16.5264ZM85.2238 19.7508C85.2617 21.4397 86.6854 22.0649 88.2044 22.0823C89.647 22.0823 91.1459 21.6095 91.1459 20.1304C91.1459 18.8979 89.9128 18.1013 88.2428 18.1013C85.3565 18.1013 83.4007 16.4128 83.4007 13.6055C83.4007 10.6093 85.8686 9.09235 88.2428 9.09235C89.0007 9.09235 90.0644 9.28217 90.7107 9.71861L91.6965 8.52394L92.9681 9.54771L91.9059 10.7986C92.6644 11.6536 93.0259 12.4687 93.0259 13.6055C93.0259 15.1798 92.2844 16.5453 90.6717 17.1716C92.4749 17.7595 92.9875 18.9741 92.9875 20.0925C92.9875 22.4819 90.6528 23.7339 88.1849 23.7339C85.2986 23.7339 83.4007 22.2163 83.4586 19.7508H85.2238ZM96.387 13.9089C96.387 15.7298 97.6759 16.9629 99.3659 16.9629C101.302 16.9629 102.441 15.5978 102.518 14.0419C102.593 12.3167 101.492 10.8933 99.3659 10.8933C97.7144 10.8933 96.387 12.1064 96.387 13.9089ZM105.649 16.7541V18.3663H102.631C102.631 18.6129 102.403 16.8866 102.403 17.1343C101.682 18.2711 100.429 18.5945 99.2723 18.6129C96.5949 18.6129 94.5823 16.8298 94.5823 13.8326C94.5823 10.8749 96.6707 9.13021 99.3102 9.13021C100.581 9.13021 101.776 9.66129 102.46 10.6866L102.479 9.30163H105.592V10.9501H104.244V16.7541H105.649ZM110.471 6.73983V9.33949H113.128V10.8933H110.452V15.2944C110.452 16.2614 110.831 16.8487 111.742 16.8487C112.123 16.8487 112.503 16.7341 112.881 16.5648L113.394 18.0629C112.768 18.3295 112.275 18.4604 111.647 18.4804C109.711 18.5366 108.649 17.3619 108.649 15.2944V10.8933H106.883V9.33949H108.649V6.95015L110.471 6.73983ZM121.955 13.0381C121.842 11.539 120.759 10.7245 119.222 10.7245C117.836 10.7245 116.545 11.5569 116.26 13.0381H121.955ZM123.17 17.0007C122.24 18.0429 120.664 18.5561 119.278 18.5561C116.354 18.5561 114.438 16.6405 114.438 13.7769C114.438 11.0647 116.413 9.07447 119.203 9.07447C122.071 9.07447 124.062 10.8749 123.72 14.5167H116.299C116.451 15.8639 117.665 16.8487 119.354 16.8487C120.285 16.8487 121.442 16.508 122.013 15.8639L123.17 17.0007ZM125.316 13.9667C125.316 13.5114 125.637 13.3026 125.98 13.3026C126.321 13.3026 126.644 13.5298 126.644 13.9667C126.644 14.4026 126.301 14.6298 125.98 14.6298C125.637 14.6298 125.316 14.4026 125.316 13.9667ZM132.434 13.7958C131.865 14.3832 131.124 14.6298 130.365 14.6298C128.883 14.6298 127.46 13.6628 127.46 11.8608C127.46 9.85164 128.845 9.07447 130.308 9.07447C130.99 9.07447 131.638 9.24326 132.244 9.54771L132.186 11.0084H131.238V10.1556C130.99 10.0588 130.573 10.0409 130.345 10.0409C129.244 10.0588 128.562 10.8565 128.562 11.8813C128.562 13.0187 129.51 13.6439 130.402 13.6439C130.877 13.6439 131.408 13.4919 131.75 13.0944L132.434 13.7958ZM133.895 7.87876H133.079V6.92912H134.958V9.94524C135.415 9.35842 136.079 9.11128 136.723 9.11128C138.242 9.11128 139.002 10.1729 139.002 11.6536V13.5876H139.856V14.5167H137.312V13.5876H137.958V11.6904C137.958 10.704 137.426 10.1167 136.552 10.1356C135.603 10.1556 134.977 10.8565 134.977 11.7672V13.6055H135.813V14.5357H133.041V13.6055H133.915V7.87876H133.895Z" fill="white"/>
</g>
<defs>
<clipPath id="clip0_1265_2600">
<rect width="140" height="23.662" fill="white" transform="translate(0 0.106567)"/>
</clipPath>
</defs>
</svg>
