<svg width="68" height="34" viewBox="0 0 68 34" fill="none" xmlns="http://www.w3.org/2000/svg">
<path d="M1.03711 14.4703V18.4408H66.2242V14.4703H1.03711Z" fill="white"/>
<path d="M0 0.106567V33.2132H58.5529C63.3805 33.2132 67.2899 29.3887 67.2899 24.6592V0.106567H0Z" fill="white"/>
<path d="M1.03711 1.15765V16.1345H66.2242V1.15765H1.03711Z" fill="#003468"/>
<path d="M1.03711 32.1915H58.5534C62.8183 32.1915 66.2242 28.7173 66.2242 24.6885V17.2147H1.03711V32.1915Z" fill="#FF7500"/>
<path d="M6.98977 29.0093H6.8713C5.53853 29.0093 4.41309 28.1042 4.41309 26.5861C4.41309 25.6519 5.8347 25.6519 5.8347 26.5861C5.8347 27.2284 6.24934 27.6079 6.8713 27.6079H6.98977C7.61173 27.6079 8.05598 27.2868 8.05598 26.7029C8.05598 25.1848 4.50194 25.0388 4.50194 22.8492C4.50194 22.7032 4.50194 22.7616 4.50194 22.5864C4.50194 21.3019 5.80509 20.5136 6.8713 20.5136H6.98977C8.2633 20.5136 9.38875 21.2727 9.38875 22.4405C9.38875 23.3455 7.96713 23.3455 7.96713 22.4697C7.96713 22.1485 7.58211 21.8858 6.98977 21.8858H6.90092C6.36781 21.8858 5.95317 22.1777 5.95317 22.6448C5.95317 22.7908 5.95317 22.674 5.95317 22.82C5.95317 23.7834 9.50722 24.1921 9.50722 26.6737C9.4776 28.075 8.41139 29.0093 6.98977 29.0093Z" fill="#003468"/>
<path d="M13.1499 29.0093H13.0315C11.6691 29.0093 10.5732 27.9875 10.5732 26.6445V22.8784C10.5732 21.5354 11.6691 20.5136 13.0315 20.5136H13.1499C14.3938 20.5136 15.4304 21.3603 15.5785 22.5281C15.6081 22.5572 15.6081 22.5864 15.6081 22.6448C15.6081 23.0827 15.2527 23.3163 14.8973 23.3163C14.5715 23.3163 14.2754 23.1119 14.2161 22.7032C14.1273 22.2069 13.7127 21.8858 13.1795 21.8858H13.0611C12.4984 21.8858 12.0245 22.2945 12.0245 22.8492V26.6153C12.0245 27.17 12.4984 27.6079 13.0611 27.6079H13.1795C13.7127 27.6079 14.1273 27.2868 14.2161 26.7905C14.2754 26.3817 14.6012 26.1774 14.8973 26.1774C15.2527 26.1774 15.6081 26.4109 15.6081 26.8489C15.6081 26.9073 15.6081 26.9364 15.6081 26.9656C15.4008 28.1626 14.3938 29.0093 13.1499 29.0093Z" fill="#003468"/>
<path d="M19.1621 29.0093H19.0437C17.6813 29.0093 16.5854 27.9583 16.5854 26.6445V22.8784C16.5854 21.5354 17.6813 20.5136 19.0437 20.5136H19.1621C20.5245 20.5136 21.6204 21.5354 21.6204 22.8784V26.6153C21.6204 27.9583 20.5245 29.0093 19.1621 29.0093ZM20.1987 22.8784C20.1987 22.3237 19.7545 21.8858 19.1621 21.8858H19.0437C18.4809 21.8858 18.0071 22.2945 18.0071 22.8784V26.6153C18.0071 27.17 18.4809 27.6079 19.0437 27.6079H19.1621C19.7249 27.6079 20.1987 27.1992 20.1987 26.6153V22.8784Z" fill="#003468"/>
<path d="M25.6485 29.0093H25.53C24.1676 29.0093 23.0718 27.9291 23.0718 26.5861V21.2143C23.0718 20.7472 23.4272 20.5136 23.7826 20.5136C24.138 20.5136 24.4934 20.7472 24.4934 21.2143V26.5861C24.4934 27.1408 24.9673 27.6079 25.53 27.6079H25.6485C26.2112 27.6079 26.6851 27.1408 26.6851 26.5861V21.2143C26.6851 20.7472 27.0405 20.5136 27.3959 20.5136C27.7513 20.5136 28.1067 20.7472 28.1067 21.2143V26.5861C28.1067 27.9291 27.0109 29.0093 25.6485 29.0093Z" fill="#003468"/>
<path d="M33.1121 21.9734H32.1347V28.3086C32.1347 28.7757 31.7793 29.0093 31.4239 29.0093C31.0685 29.0093 30.7131 28.7757 30.7131 28.3086V21.9734H29.7357C29.2618 21.9734 29.0249 21.623 29.0249 21.2727C29.0249 20.9223 29.2618 20.572 29.7357 20.572H33.1121C33.5859 20.572 33.8229 20.9223 33.8229 21.2727C33.8525 21.623 33.6155 21.9734 33.1121 21.9734Z" fill="#003468"/>
<path d="M39.7459 28.9216H36.5472C36.103 28.9216 35.8364 28.5129 35.8364 28.075C35.8364 27.929 35.866 27.783 35.9549 27.6371L38.7389 23.2287C38.887 22.9951 38.887 22.8492 38.887 22.674V22.5864C38.887 22.2361 38.5612 21.8857 38.1466 21.8857H38.1169C37.7023 21.8857 37.4061 22.2069 37.4061 22.5864V22.7324C37.4061 23.1995 37.0507 23.4331 36.6953 23.4331C36.3399 23.4331 35.9845 23.1995 35.9845 22.7324V22.5572C35.9845 21.3894 36.9619 20.5428 38.1169 20.5428H38.1466C39.3016 20.5428 40.3086 21.3894 40.3086 22.5572V22.674C40.3086 23.1411 40.1309 23.5206 39.894 23.9294L37.6431 27.5495H39.7755C40.2494 27.5495 40.4863 27.8998 40.4863 28.2501C40.4567 28.5713 40.2197 28.9216 39.7459 28.9216Z" fill="#003468"/>
<path d="M45.3436 27.2868H45.077V28.3086C45.077 28.7757 44.7216 29.0093 44.3662 29.0093C44.0108 29.0093 43.6554 28.7757 43.6554 28.3086V27.2868H41.7303C41.2268 27.2868 40.9307 27.024 40.9307 26.5569C40.9307 26.4402 40.9603 26.2942 40.9899 26.1774L43.2704 20.9515C43.3889 20.6596 43.6554 20.5428 43.8924 20.5428C44.2478 20.5428 44.6328 20.8056 44.6328 21.2143C44.6328 21.3019 44.6328 21.4186 44.5736 21.5062L42.5596 25.9146H43.6258V25.214C43.6258 24.7468 43.9812 24.5133 44.3366 24.5133C44.692 24.5133 45.0474 24.7468 45.0474 25.214V25.9146H45.314C45.7879 25.9146 46.0248 26.265 46.0248 26.6153C46.0544 26.9365 45.8175 27.2868 45.3436 27.2868Z" fill="#003468"/>
<path d="M10.4251 13.0984C10.0697 13.0984 9.71428 12.8648 9.71428 12.3977V7.96011L8.67769 10.3249C8.49998 10.7336 8.1742 10.792 7.96688 10.792C7.72994 10.792 7.40415 10.7336 7.25607 10.3249L6.21947 7.96011V12.3977C6.21947 12.8648 5.86407 13.0984 5.50866 13.0984C5.15326 13.0984 4.79785 12.8648 4.79785 12.3977V5.3034C4.79785 4.92387 5.12364 4.60272 5.50866 4.60272H5.68636C6.13062 4.60272 6.30832 4.89466 6.45641 5.2158L7.96688 8.6024L9.47734 5.2158C9.59581 4.89466 9.80313 4.60272 10.2474 4.60272H10.4251C10.8101 4.60272 11.1359 4.92387 11.1359 5.3034V12.3977C11.1359 12.8648 10.7805 13.0984 10.4251 13.0984Z" fill="white"/>
<path d="M16.674 6.96776C16.674 6.41306 16.2297 5.97515 15.6374 5.97515H15.5485C14.9858 5.97515 14.5119 6.38387 14.5119 6.96776V10.7047C14.5119 11.2594 14.9858 11.6973 15.5485 11.6973H15.667C16.2297 11.6973 16.7036 11.2886 16.7036 10.7047L16.674 6.96776ZM15.6374 13.0986H15.5485C14.1862 13.0986 13.0903 12.0476 13.0903 10.7339V6.96776C13.0903 5.6248 14.1862 4.603 15.5485 4.603H15.667C17.0294 4.603 18.1252 5.6248 18.1252 6.96776V10.7047C18.0956 12.0477 16.9998 13.0986 15.6374 13.0986Z" fill="white"/>
<path d="M23.1008 5.97473H22.1235V12.31C22.1235 12.7771 21.7681 13.0106 21.4127 13.0106C21.0572 13.0106 20.7018 12.7771 20.7018 12.31V5.97473H19.7245C19.2506 5.97473 19.0137 5.62439 19.0137 5.27406C19.0137 4.92372 19.2506 4.57339 19.7245 4.57339H23.1008C23.5747 4.57339 23.8116 4.92372 23.8116 5.27406C23.8116 5.62439 23.5747 5.97473 23.1008 5.97473Z" fill="white"/>
<path d="M28.2549 6.96776C28.2549 6.41306 27.8106 5.97515 27.2183 5.97515H27.0998C26.5371 5.97515 26.0632 6.38387 26.0632 6.96776V10.7047C26.0632 11.2594 26.5371 11.6973 27.0998 11.6973H27.2183C27.781 11.6973 28.2549 11.2886 28.2549 10.7047V6.96776ZM27.2183 13.0986H27.0998C25.7374 13.0986 24.6416 12.0476 24.6416 10.7339V6.96776C24.6416 5.6248 25.7374 4.603 27.0998 4.603H27.2183C28.5807 4.603 29.6765 5.6248 29.6765 6.96776V10.7047C29.6765 12.0477 28.5807 13.0986 27.2183 13.0986Z" fill="white"/>
</svg>
