<svg width="84" height="18" viewBox="0 0 84 18" fill="none" xmlns="http://www.w3.org/2000/svg">
<path d="M15.6787 17.7231V7.07412C15.6787 6.50769 15.8553 6.10489 16.1958 5.87832C16.5881 5.64625 17.0393 5.53258 17.4949 5.55104C18.0895 5.5505 18.6702 5.73049 19.1598 6.06713V17.7231H15.6787Z" fill="white"/>
<path d="M37.5782 12.2174L37.5605 12.2274C36.9556 12.5182 36.5726 13.1308 36.5767 13.8008C36.5767 14.8204 37.384 15.6386 39.2254 15.689H39.3515C40.139 15.709 40.9268 15.6618 41.7063 15.548L41.6937 13.5V13.3955C41.6937 13.2697 41.3784 12.7032 40.6721 12.3382C39.5357 11.7667 38.1811 11.909 37.5782 12.2174ZM41.3431 5.37483C43.5124 5.99162 45.1407 7.41022 45.1407 10.4941V17.7822C45.1407 17.7697 42.7796 17.9421 40.4312 17.9698H40.2193C37.9238 17.9862 36.0079 17.8087 34.7101 16.7727C33.8123 16.0732 33.2867 15.0005 33.2849 13.8638V13.8273C33.2723 12.4175 33.865 11.3853 35.0759 10.6301C37.2074 9.3084 40.575 9.64826 41.7101 10.6301V9.9063C41.7101 9.10071 41.1425 7.66574 38.456 7.66574C38.0551 7.66683 37.6557 7.71628 37.2667 7.81302C36.5104 7.96826 35.7792 8.22662 35.0935 8.58085L35.0645 8.5519C34.7127 8.18882 34.5137 7.70504 34.5083 7.20001C34.513 6.8367 34.6513 6.48776 34.8968 6.21945C36.0168 5.17469 38.6452 4.60826 41.3431 5.37483Z" fill="white"/>
<path d="M62.7805 8.00559C61.9607 8.00559 61.2519 8.2737 60.7246 8.87034L60.6994 8.89929C60.1319 9.54125 59.8796 10.221 59.8796 11.5049C59.8796 12.9273 60.5733 13.9091 60.876 14.2238C61.8093 15.1804 62.9445 15.2056 63.5751 15.2056H63.6747C64.2239 15.2098 64.7724 15.1677 65.3144 15.0797H65.3232V9.70489L65.3156 9.68097C65.25 9.4758 64.68 8.00559 62.7805 8.00559ZM67.1319 0.944049C67.7172 0.943806 68.2899 1.1135 68.7803 1.43244L68.7677 17.7709L68.325 17.8024C67.49 17.859 65.6335 17.9723 64.1389 17.9723C61.5785 17.9723 59.6362 17.4814 58.3497 16.2478C56.9926 14.9413 56.4225 13.4484 56.4111 11.2909V11.2254C56.4111 10.1543 56.7441 8.29258 58.1706 6.82615L58.2147 6.78209C59.2397 5.7346 60.645 5.14454 62.112 5.14573C64.0872 5.14573 65.081 6.16531 65.2879 6.39692L65.3283 6.44223V2.46713C65.3283 1.90069 65.5048 1.4979 65.8454 1.27132C66.233 1.03919 66.6802 0.925416 67.1319 0.944049Z" fill="white"/>
<path d="M52.9175 5.16085C53.5803 5.14061 54.2405 5.25185 54.8598 5.48812L54.8977 5.50574C55.2256 5.65427 55.8903 6.0256 55.966 6.80351V6.83497C56.0401 7.42707 55.8219 8.01827 55.3807 8.42099C54.5298 8.0249 53.4897 7.92127 52.2604 8.11008L52.1998 8.11889C51.7923 8.16933 51.4004 8.3067 51.0508 8.52169V17.786H47.5571V6.41959L47.5849 6.40197C47.8296 6.25595 49.6912 5.16085 52.9175 5.16085Z" fill="white"/>
<path d="M77.3356 7.85454C76.8734 7.84493 76.4154 7.94411 75.9987 8.14405C75.6214 8.32989 75.2866 8.59126 75.0149 8.91188C74.7372 9.25338 74.5313 9.64723 74.4095 10.0699C74.2755 10.5451 74.2076 11.0364 74.2077 11.5301C74.2013 12.0241 74.2694 12.5163 74.4095 12.9902C74.5313 13.4129 74.7372 13.8068 75.0149 14.1482C75.2683 14.4673 75.5903 14.7254 75.9571 14.9035L75.9987 14.9224C76.4164 15.1194 76.8737 15.2185 77.3356 15.2119C77.7841 15.218 78.2282 15.1229 78.6347 14.9337L78.6688 14.9161C79.046 14.7302 79.3809 14.4689 79.6526 14.1482C79.9303 13.8068 80.1362 13.4129 80.258 12.9902C80.3981 12.5163 80.4661 12.0241 80.4598 11.5301C80.4653 11.0361 80.3972 10.544 80.258 10.0699C80.1362 9.64723 79.9303 9.25338 79.6526 8.91188C79.3891 8.58287 79.0522 8.31992 78.6688 8.14405C78.2544 7.9415 77.7969 7.84217 77.3356 7.85454ZM77.3482 5.08531C78.2886 5.07635 79.2219 5.24726 80.0978 5.58881C80.8758 5.91092 81.5861 6.37637 82.1915 6.96083C82.7865 7.53786 83.2472 8.23828 83.541 9.01258C83.8465 9.82104 84.0004 10.6786 83.9952 11.5427C83.9965 12.4063 83.8427 13.2632 83.541 14.0727C82.9169 15.6399 81.6704 16.8793 80.0978 17.4965C78.3265 18.1678 76.37 18.1678 74.5987 17.4965C73.8408 17.1823 73.1466 16.7327 72.5504 16.1698L72.505 16.1245C71.9073 15.5497 71.4462 14.8486 71.1555 14.0727C70.8429 13.2662 70.6887 12.4073 70.7014 11.5427C70.7 10.679 70.8538 9.82207 71.1555 9.01258C71.4618 8.24472 71.9209 7.54677 72.505 6.96083C73.0875 6.38149 73.7794 5.92326 74.5407 5.61272L74.5987 5.58881C75.4729 5.24126 76.4074 5.07013 77.3482 5.08531Z" fill="white"/>
<path d="M25.0546 5.58879C27.1521 4.85369 29.2748 5.20362 30.0278 5.45537L30.0492 5.46292C31.0456 5.80278 31.651 6.21816 31.9663 6.72166C32.4204 7.46432 32.1681 8.3832 31.7015 8.89928C31.6082 8.99588 31.5083 9.08588 31.4026 9.16865L31.3925 9.1611C30.597 8.59718 29.8138 8.24474 29.0427 8.10376C28.6808 8.03127 28.312 7.99835 27.9429 8.00558C26.7952 8.01816 26.051 8.40837 25.5213 8.92446C24.9033 9.52865 24.588 10.4224 24.588 11.5552C24.588 12.9273 25.0925 13.6951 25.5087 14.186L25.5377 14.22C25.8379 14.5535 26.5858 15.1301 27.8168 15.1301H27.8862C28.5741 15.1305 29.2532 14.9755 29.8726 14.6769C30.2045 14.5246 30.5118 14.324 30.7845 14.0815L30.7934 14.0727L32.3826 16.3888L32.3611 16.4089C31.8585 16.8311 31.2856 17.1622 30.6685 17.387L30.3456 17.499C29.4531 17.8071 28.5152 17.9636 27.5708 17.9622H27.5191C26.6489 17.9622 24.4543 17.7608 23.0038 16.3133C22.4183 15.7352 21.9476 15.0519 21.6164 14.2993C21.2636 13.4282 21.0919 12.4946 21.1119 11.5552C21.1002 10.637 21.2717 9.72557 21.6164 8.87411C21.9399 8.11727 22.4116 7.43255 23.0038 6.86012C23.5898 6.29659 24.2887 5.8633 25.0546 5.58879Z" fill="white"/>
<path d="M17.4178 4.35524C18.6229 4.35524 19.5998 3.38029 19.5998 2.17762C19.5998 0.974955 18.6229 0 17.4178 0C16.2127 0 15.2358 0.974955 15.2358 2.17762C15.2358 3.38029 16.2127 4.35524 17.4178 4.35524Z" fill="white"/>
<path d="M13.609 17.5922C13.6014 16.1207 13.4261 12.8304 10.7472 10.9133C11.2769 10.5357 13.2319 9.50979 13.1184 6.53916C12.9292 2.73777 9.67514 1.1077 5.47387 1.3091C1.77838 1.48532 0 2.59301 0 2.7063V17.7105H3.49369L3.51892 11.593H3.60973C4.46984 11.5667 5.33052 11.6219 6.18018 11.7579C6.82342 11.8712 7.46667 12.0222 8.08468 12.4628C9.98919 13.8197 10.1241 16.205 10.1279 17.6387V17.7243H13.609V17.5922ZM8.10991 8.87413C6.94829 9.34616 4.47243 9.10951 3.60595 9L3.50631 8.98742L3.49369 4.59441L3.5227 4.57805C4.13441 4.23693 5.22667 4.07455 6.34414 4.07455C9.47333 4.07455 9.67513 6.15147 9.67513 6.59203C9.68775 7.41399 9.39135 8.35805 8.10991 8.87413Z" fill="white"/>
</svg>
