<svg width="100" height="26" viewBox="0 0 100 26" fill="none" xmlns="http://www.w3.org/2000/svg">
<g clip-path="url(#clip0_1265_2576)">
<path d="M39.1474 17.8218C39.1311 17.7404 39.0769 17.6645 39.001 17.6266C38.9576 17.6049 38.9142 17.594 38.8654 17.594C38.8275 17.594 38.795 17.5995 38.757 17.6157C38.5618 17.6916 38.2962 17.7784 37.9654 17.8705C37.6456 17.9573 37.2769 18.0007 36.8594 18.0007C36.301 18.0007 35.9269 17.8597 35.7155 17.5724C35.4824 17.2579 35.3685 16.7049 35.3685 15.9188V11.896H38.8492C39.0064 11.896 39.1365 11.7658 39.1365 11.6086V9.56467C39.1365 9.40745 39.0064 9.27733 38.8492 9.27733H35.3685V6.36594C35.3685 6.27919 35.3306 6.20329 35.2655 6.14907C35.2113 6.1057 35.1462 6.07859 35.0812 6.07859C35.0649 6.07859 35.0486 6.07859 35.0324 6.08401L32.5818 6.49063C32.4409 6.51232 32.3433 6.6316 32.3433 6.77256V15.9405C32.3433 16.6615 32.4083 17.3121 32.533 17.876C32.6631 18.4615 32.8908 18.9711 33.2161 19.3886C33.5414 19.8115 33.9914 20.1422 34.539 20.3591C35.0757 20.5759 35.748 20.6844 36.5396 20.6844C37.1847 20.6844 37.754 20.6139 38.2365 20.4838C38.7028 20.3536 39.0931 20.2235 39.3859 20.0988C39.5106 20.0446 39.5811 19.9091 39.554 19.7735L39.1474 17.8218ZM50.0935 9.27191H47.643C47.4858 9.27191 47.3556 9.40203 47.3556 9.55925V17.8868C47.2255 17.9085 47.0683 17.9248 46.8785 17.941C46.5587 17.9681 46.2496 17.979 45.9623 17.979C45.2358 17.979 44.7424 17.7838 44.4714 17.3772C44.1732 16.9435 44.0268 16.179 44.0268 15.111V9.55925C44.0268 9.40203 43.8967 9.27191 43.7394 9.27191H41.2889C41.1317 9.27191 41.0015 9.40203 41.0015 9.55925V15.4905C41.0015 16.2278 41.0774 16.9163 41.2347 17.5344C41.3919 18.1742 41.6576 18.7326 42.0262 19.1934C42.4003 19.6597 42.8991 20.0283 43.5172 20.294C44.1244 20.5488 44.878 20.6789 45.7671 20.6789C46.6834 20.6789 47.5346 20.6139 48.3044 20.4838C49.0634 20.3536 49.6923 20.2289 50.1694 20.1042C50.2941 20.0717 50.3863 19.9579 50.3863 19.8277V9.55925C50.3809 9.40203 50.2508 9.27191 50.0935 9.27191ZM59.0337 17.8218C59.0175 17.7404 58.9633 17.6645 58.8874 17.6266C58.844 17.6049 58.8006 17.594 58.7518 17.594C58.7139 17.594 58.6813 17.5995 58.6434 17.6157C58.4482 17.6916 58.1826 17.7784 57.8518 17.8705C57.532 17.9573 57.1633 18.0007 56.7458 18.0007C56.1874 18.0007 55.8133 17.8597 55.6019 17.5724C55.3687 17.2579 55.2549 16.7049 55.2549 15.9188V11.896H58.7356C58.8928 11.896 59.0229 11.7658 59.0229 11.6086V9.56467C59.0229 9.40745 58.8928 9.27733 58.7356 9.27733H55.2549V6.36594C55.2549 6.27919 55.2169 6.20329 55.1519 6.14907C55.0977 6.1057 55.0326 6.07859 54.9675 6.07859C54.9513 6.07859 54.935 6.07859 54.9188 6.08401L52.4682 6.49063C52.3272 6.51232 52.2296 6.6316 52.2296 6.77256V15.9405C52.2296 16.6615 52.2947 17.3121 52.4194 17.876C52.5495 18.4615 52.7772 18.9711 53.1025 19.3886C53.4278 19.8115 53.8778 20.1422 54.4254 20.3591C54.9621 20.5759 55.6344 20.6844 56.426 20.6844C57.0711 20.6844 57.6404 20.6139 58.1229 20.4838C58.5892 20.3536 58.9795 20.2235 59.2723 20.0988C59.397 20.0446 59.4675 19.9091 59.4404 19.7735L59.0337 17.8218ZM67.5944 17.8218C67.5782 17.7404 67.5239 17.6645 67.448 17.6266C67.4047 17.6049 67.3613 17.594 67.3125 17.594C67.2746 17.594 67.242 17.5995 67.2041 17.6157C67.0089 17.6916 66.7432 17.7784 66.4125 17.8705C66.0927 17.9573 65.724 18.0007 65.3065 18.0007C64.7481 18.0007 64.374 17.8597 64.1626 17.5724C63.9294 17.2579 63.8156 16.7049 63.8156 15.9188V11.896H67.2962C67.4535 11.896 67.5836 11.7658 67.5836 11.6086V9.56467C67.5836 9.40745 67.4535 9.27733 67.2962 9.27733H63.8156V6.36594C63.8156 6.27919 63.7776 6.20329 63.7126 6.14907C63.6584 6.1057 63.5933 6.07859 63.5282 6.07859C63.512 6.07859 63.4957 6.07859 63.4794 6.08401L61.0289 6.49063C60.8879 6.51232 60.7903 6.6316 60.7903 6.77256V15.9405C60.7903 16.6615 60.8554 17.3121 60.9801 17.876C61.1102 18.4615 61.3379 18.9711 61.6632 19.3886C61.9885 19.8115 62.4385 20.1422 62.9861 20.3591C63.5228 20.5759 64.1951 20.6844 64.9866 20.6844C65.6318 20.6844 66.2011 20.6139 66.6836 20.4838C67.1499 20.3536 67.5402 20.2235 67.833 20.0988C67.9577 20.0446 68.0282 19.9091 68.001 19.7735L67.5944 17.8218ZM70.8962 4.65814C70.4082 4.65814 69.9799 4.82078 69.6275 5.13524C69.2697 5.46053 69.0854 5.9051 69.0854 6.46353C69.0854 7.00568 69.2643 7.44483 69.6275 7.77013C69.9745 8.09 70.4028 8.24723 70.8962 8.24723C71.3733 8.24723 71.7907 8.08458 72.1431 7.76471C72.501 7.43941 72.6853 7.00026 72.6853 6.4581C72.6853 5.9051 72.5064 5.45511 72.1486 5.12982C71.7907 4.81536 71.3733 4.65814 70.8962 4.65814ZM72.1323 9.27191H69.6817C69.5245 9.27191 69.3944 9.40203 69.3944 9.55925V20.1476C69.3944 20.3048 69.5245 20.435 69.6817 20.435H72.1323C72.2895 20.435 72.4196 20.3048 72.4196 20.1476V9.55925C72.4196 9.40203 72.2895 9.27191 72.1323 9.27191ZM75.9979 16.9055C75.4612 16.9055 75.0057 17.0844 74.6425 17.4422C74.2738 17.8001 74.0895 18.2609 74.0895 18.8139C74.0895 19.3669 74.2738 19.8223 74.6425 20.1747C75.0057 20.5217 75.4612 20.7006 75.9979 20.7006C76.5184 20.7006 76.9684 20.5271 77.337 20.1801C77.7111 19.8277 77.9063 19.3669 77.9063 18.8139C77.9063 18.2609 77.7165 17.8001 77.3424 17.4422C76.9684 17.0844 76.5184 16.9055 75.9979 16.9055ZM87.4103 17.8597C87.3941 17.773 87.3453 17.7025 87.2694 17.6591C87.226 17.6374 87.1772 17.6212 87.1338 17.6212C87.0959 17.6212 87.0634 17.6266 87.0254 17.6428C86.7489 17.7567 86.4182 17.8489 86.0441 17.9248C85.6646 18.0007 85.2742 18.0386 84.8839 18.0386C83.8809 18.0386 83.1652 17.773 82.7586 17.2416C82.3357 16.6941 82.1189 15.9242 82.1189 14.9537C82.1189 13.9507 82.3466 13.17 82.7911 12.6387C83.2303 12.1128 83.8592 11.8526 84.7212 11.8526C85.0953 11.8526 85.4531 11.8905 85.7839 11.9664C86.1146 12.0423 86.4182 12.1345 86.6784 12.2484C86.7164 12.2646 86.7543 12.27 86.7923 12.27C86.8356 12.27 86.879 12.2592 86.917 12.2429C86.9929 12.205 87.0471 12.1399 87.0688 12.0586L87.5838 10.0906C87.6218 9.95503 87.5513 9.80865 87.4158 9.75985C86.5103 9.39118 85.5345 9.20143 84.5206 9.20143C83.6911 9.20143 82.9267 9.34781 82.2598 9.64058C81.5875 9.93334 81.0129 10.3454 80.5412 10.8659C80.0749 11.3809 79.7117 11.999 79.4569 12.7038C79.2075 13.4032 79.0828 14.1622 79.0828 14.9592C79.0828 15.767 79.1966 16.5314 79.4135 17.2254C79.6358 17.9302 79.9828 18.5482 80.4382 19.0579C80.8936 19.5729 81.4791 19.9795 82.1731 20.2669C82.8616 20.5542 83.6803 20.6952 84.602 20.6952C85.1875 20.6952 85.7676 20.641 86.3206 20.5325C86.8899 20.4187 87.3073 20.294 87.5947 20.1476C87.7085 20.0934 87.7682 19.9687 87.7465 19.8494L87.4103 17.8597ZM98.2969 12.2917C98.1505 11.6683 97.8903 11.1261 97.5379 10.6815C97.18 10.2261 96.6975 9.8737 96.1011 9.61889C95.5156 9.37492 94.7783 9.25022 93.9108 9.25022C93.553 9.25022 93.1789 9.28275 92.8157 9.35323C92.6042 9.39118 92.409 9.43998 92.2247 9.48877V4.71777C92.2247 4.63645 92.1868 4.55513 92.1271 4.50091C92.0783 4.45754 92.0133 4.43585 91.9428 4.43585C91.9265 4.43585 91.9103 4.43585 91.894 4.44127L89.4868 4.83705C89.3513 4.85874 89.2483 4.97801 89.2483 5.11355V20.1585C89.2483 20.3157 89.3729 20.4404 89.5302 20.4404H91.9374C92.0946 20.4404 92.2193 20.3157 92.2193 20.1585V12.0911C92.3548 12.0586 92.5229 12.0152 92.7289 11.9773C93.0434 11.9122 93.3524 11.8851 93.6506 11.8851C94.0247 11.8851 94.3337 11.9339 94.5777 12.0315C94.8054 12.1237 94.9789 12.2646 95.1144 12.4652C95.2554 12.6767 95.3638 12.964 95.4289 13.3164C95.4993 13.6905 95.5319 14.1513 95.5319 14.6881V20.1639C95.5319 20.3211 95.6566 20.4458 95.8138 20.4458H98.221C98.3782 20.4458 98.5029 20.3211 98.5029 20.1639V14.3086C98.5138 13.5712 98.4433 12.8935 98.2969 12.2917Z" fill="white"/>
</g>
<path fill-rule="evenodd" clip-rule="evenodd" d="M8.4614 0.117929L23.2381 4.08079C25.1278 4.57997 26.2586 6.53593 25.7645 8.44605L21.7558 23.238C21.2516 25.1278 19.2803 26.2586 17.3906 25.7594L13.7977 24.7867C14.2477 24.6543 14.6309 24.5226 14.9331 24.3955C15.0928 24.3269 15.183 24.1554 15.1483 23.9838L14.6276 21.514C14.6068 21.4111 14.5373 21.315 14.4401 21.267C14.3846 21.2396 14.3291 21.2258 14.2666 21.2258C14.218 21.2258 14.1763 21.2327 14.1277 21.2533C13.8778 21.3493 13.5376 21.4591 13.1141 21.5757C12.7044 21.6855 12.2323 21.7404 11.6977 21.7404C10.9826 21.7404 10.5036 21.562 10.2328 21.1984C9.93425 20.8005 9.78845 20.1007 9.78845 19.1059V14.0153H14.2457C14.4471 14.0153 14.6137 13.8506 14.6137 13.6516V11.0652C14.6137 10.8662 14.4471 10.7016 14.2457 10.7016H9.78845V7.01736C9.78845 6.90759 9.73985 6.81154 9.65653 6.74294C9.5871 6.68805 9.50379 6.65375 9.42048 6.65375C9.39965 6.65375 9.37882 6.65375 9.35799 6.66061L6.21983 7.17516C6.03932 7.2026 5.91435 7.35354 5.91435 7.53192V19.1333C5.91435 20.0458 5.99766 20.8691 6.15735 21.5826C6.26025 22.0402 6.41082 22.4612 6.60905 22.8406L2.63935 21.766C0.749605 21.2464 -0.381187 19.2904 0.117992 17.4007L4.06557 2.65457C4.58003 0.749542 6.55637 -0.381249 8.4614 0.117929Z" fill="#EC2C28"/>
<defs>
<clipPath id="clip0_1265_2576">
<rect width="67.277" height="16.2648" fill="white" transform="translate(31.79 4.43585)"/>
</clipPath>
</defs>
</svg>
