<svg width="68" height="34" viewBox="0 0 68 34" fill="none" xmlns="http://www.w3.org/2000/svg">
<path d="M1.03711 14.3637V18.305H66.2538V14.3637H1.03711Z" fill="white"/>
<path d="M0 0V33.1066H58.5529C63.3805 33.1066 67.2899 29.2821 67.2899 24.5526V0H0Z" fill="white"/>
<path d="M1.03711 1.02173V16.0278H66.2538V1.02173H1.03711Z" fill="#003468"/>
<path d="M1.03711 32.0555H58.5534C62.8183 32.0555 66.2242 28.6105 66.2242 24.5525V17.0788H1.03711V32.0555Z" fill="#FF7500"/>
<path d="M6.98977 28.8734H6.8713C5.53853 28.8734 4.41309 27.9683 4.41309 26.4502C4.41309 25.516 5.8347 25.516 5.8347 26.4502C5.8347 27.0925 6.24934 27.472 6.8713 27.472H6.98977C7.61173 27.472 8.05598 27.1509 8.05598 26.567C8.05598 25.0489 4.50194 24.9029 4.50194 22.7134C4.50194 22.5674 4.50194 22.6258 4.50194 22.4506C4.50194 21.166 5.80509 20.3778 6.8713 20.3778H6.98977C8.2633 20.3778 9.38875 21.1369 9.38875 22.3046C9.38875 23.2097 7.96713 23.2097 7.96713 22.3338C7.96713 22.0127 7.58211 21.7499 6.98977 21.7499H6.8713C6.33819 21.7499 5.92356 22.0419 5.92356 22.509C5.92356 22.655 5.92356 22.5382 5.92356 22.6842C5.92356 23.6476 9.4776 24.0563 9.4776 26.5378C9.4776 27.9391 8.41139 28.8734 6.98977 28.8734Z" fill="#003468"/>
<path d="M13.1499 28.8734H13.0315C11.6691 28.8734 10.5732 27.8516 10.5732 26.5086V22.7425C10.5732 21.3996 11.6691 20.3778 13.0315 20.3778H13.1499C14.3938 20.3778 15.4304 21.2244 15.5785 22.3922C15.6081 22.4214 15.6081 22.4506 15.6081 22.509C15.6081 22.9469 15.2527 23.1805 14.8973 23.1805C14.5715 23.1805 14.2754 22.9761 14.2161 22.5674C14.1273 22.0711 13.7126 21.7499 13.1795 21.7499H13.0611C12.4983 21.7499 12.0245 22.1587 12.0245 22.7134V26.4794C12.0245 27.0341 12.4983 27.472 13.0611 27.472H13.1795C13.7126 27.472 14.1273 27.1509 14.2161 26.6546C14.2754 26.2459 14.6012 26.0415 14.8973 26.0415C15.2527 26.0415 15.6081 26.2751 15.6081 26.713C15.6081 26.7714 15.6081 26.8006 15.6081 26.8298C15.4008 28.0267 14.3938 28.8734 13.1499 28.8734Z" fill="#003468"/>
<path d="M19.1621 28.8734H19.0437C17.6813 28.8734 16.5854 27.8224 16.5854 26.5086V22.7425C16.5854 21.3996 17.6813 20.3778 19.0437 20.3778H19.1621C20.5245 20.3778 21.6203 21.3996 21.6203 22.7425V26.4794C21.6203 27.8516 20.5245 28.8734 19.1621 28.8734ZM20.1987 22.7425C20.1987 22.1879 19.7545 21.7499 19.1621 21.7499H19.0437C18.4809 21.7499 18.0071 22.1587 18.0071 22.7425V26.4794C18.0071 27.0341 18.4809 27.472 19.0437 27.472H19.1621C19.7248 27.472 20.1987 27.0633 20.1987 26.4794V22.7425Z" fill="#003468"/>
<path d="M25.6485 28.8734H25.53C24.1676 28.8734 23.0718 27.7932 23.0718 26.4502V21.0785C23.0718 20.6114 23.4272 20.3778 23.7826 20.3778C24.138 20.3778 24.4934 20.6114 24.4934 21.0785V26.4502C24.4934 27.0049 24.9673 27.472 25.53 27.472H25.6485C26.2112 27.472 26.6851 27.0049 26.6851 26.4502V21.0785C26.6851 20.6114 27.0405 20.3778 27.3959 20.3778C27.7513 20.3778 28.1067 20.6114 28.1067 21.0785V26.4502C28.1067 27.7932 27.0108 28.8734 25.6485 28.8734Z" fill="#003468"/>
<path d="M33.1121 21.8383H32.1347V28.1735C32.1347 28.6406 31.7793 28.8742 31.4239 28.8742C31.0685 28.8742 30.7131 28.6406 30.7131 28.1735V21.8383H29.7357C29.2618 21.8383 29.0249 21.488 29.0249 21.1377C29.0249 20.7873 29.2618 20.437 29.7357 20.437H33.1121C33.5859 20.437 33.8229 20.7873 33.8229 21.1377C33.8229 21.488 33.6155 21.8383 33.1121 21.8383Z" fill="#003468"/>
<path d="M39.7459 28.8154H36.5472C36.103 28.8154 35.8364 28.4067 35.8364 27.9688C35.8364 27.8228 35.866 27.6768 35.9549 27.5308L38.7389 23.1225C38.887 22.8889 38.887 22.743 38.887 22.5678V22.4802C38.887 22.1299 38.5612 21.7795 38.1466 21.7795H38.1169C37.7023 21.7795 37.4061 22.1007 37.4061 22.4802V22.6262C37.4061 23.0933 37.0507 23.3268 36.6953 23.3268C36.3399 23.3268 35.9845 23.0933 35.9845 22.6262V22.451C35.9845 21.2832 36.9619 20.4074 38.1169 20.4074H38.1466C39.3016 20.4074 40.3086 21.254 40.3086 22.451V22.5678C40.3086 23.0349 40.1309 23.4144 39.894 23.8231L37.6431 27.4433H39.7755C40.2494 27.4433 40.4863 27.7936 40.4863 28.1439C40.4567 28.4651 40.2197 28.8154 39.7459 28.8154Z" fill="#003468"/>
<path d="M45.3436 27.1513H45.0771V28.1731C45.0771 28.6402 44.7217 28.8738 44.3662 28.8738C44.0108 28.8738 43.6554 28.6402 43.6554 28.1731V27.1513H41.7303C41.2268 27.1513 40.9307 26.8886 40.9307 26.4215C40.9307 26.3047 40.9603 26.1587 41.0195 26.0419L43.3 20.8161C43.4185 20.5242 43.6851 20.4074 43.922 20.4074C44.2774 20.4074 44.6624 20.6701 44.6624 21.0789C44.6624 21.1664 44.6624 21.2832 44.6032 21.3708L42.5892 25.7792H43.6554V25.0785C43.6554 24.6114 44.0108 24.3779 44.3662 24.3779C44.7217 24.3779 45.0771 24.6114 45.0771 25.0785V25.7792H45.3436C45.8175 25.7792 46.0544 26.1295 46.0544 26.4798C46.0544 26.801 45.8175 27.1513 45.3436 27.1513Z" fill="#003468"/>
<path d="M10.0399 12.904C9.77334 12.904 9.47716 12.758 9.38831 12.4077L8.94406 10.9479H6.51546L6.0712 12.4077C5.95273 12.758 5.68618 12.904 5.41963 12.904C5.06422 12.904 4.6792 12.6412 4.6792 12.2325C4.6792 12.1449 4.6792 12.0865 4.70882 11.9989L6.95971 4.99222C7.13742 4.43752 7.43359 4.40833 7.72976 4.40833C8.02593 4.40833 8.3221 4.46671 8.4998 4.99222L10.7211 11.9989C10.7507 12.0865 10.7507 12.1449 10.7507 12.2325C10.7507 12.612 10.3953 12.904 10.0399 12.904ZM7.70014 7.00665L6.9301 9.54659H8.47018L7.70014 7.00665Z" fill="white"/>
<path d="M14.3345 12.904H14.216C12.8536 12.904 11.7578 11.8238 11.7578 10.4808V5.109C11.7578 4.64188 12.1132 4.40833 12.4686 4.40833C12.824 4.40833 13.1794 4.64188 13.1794 5.109V10.4808C13.1794 11.0355 13.6533 11.5026 14.216 11.5026H14.3345C14.8972 11.5026 15.3711 11.0355 15.3711 10.4808V5.109C15.3711 4.64188 15.7265 4.40833 16.0819 4.40833C16.4373 4.40833 16.7927 4.64188 16.7927 5.109V10.4808C16.7927 11.7946 15.6969 12.904 14.3345 12.904Z" fill="white"/>
<path d="M21.9163 5.86807H20.9389V12.2033C20.9389 12.6704 20.5835 12.904 20.2281 12.904C19.8727 12.904 19.5173 12.6704 19.5173 12.2033V5.86807H18.5399C18.066 5.86807 17.8291 5.51774 17.8291 5.1674C17.8291 4.81707 18.066 4.46674 18.5399 4.46674H21.9163C22.3901 4.46674 22.6271 4.81707 22.6271 5.1674C22.6271 5.51774 22.4197 5.86807 21.9163 5.86807Z" fill="white"/>
<path d="M26.063 12.904H25.9445C24.5822 12.904 23.4863 11.853 23.4863 10.5392V6.7731C23.4863 5.43014 24.5822 4.40833 25.9445 4.40833H26.063C27.4254 4.40833 28.5212 5.43014 28.5212 6.7731V10.51C28.4916 11.853 27.4254 12.904 26.063 12.904ZM27.07 6.7731C27.07 6.2184 26.6257 5.78048 26.0334 5.78048H25.9149C25.3522 5.78048 24.8783 6.1892 24.8783 6.7731V10.51C24.8783 11.0647 25.3522 11.5026 25.9149 11.5026H26.0334C26.5961 11.5026 27.07 11.0939 27.07 10.51V6.7731Z" fill="white"/>
</svg>
