<svg width="99" height="17" viewBox="0 0 99 17" fill="none" xmlns="http://www.w3.org/2000/svg">
<path d="M12.4242 13.2415V7.84681C12.4242 5.63988 10.3399 4.45471 6.57991 4.45471C3.02431 4.45471 0.85825 6.0077 0.85825 7.43812C0.85825 8.21463 1.55302 8.74596 2.45214 8.74596C3.10605 8.74596 3.47387 8.41898 3.88256 8.05115C4.45472 7.56073 5.06776 6.98857 6.53904 6.98857C7.56077 6.98857 8.66423 7.31552 8.66423 8.21464C8.66423 9.03202 8.1738 9.23635 7.23381 9.31808L5.06776 9.52243C2.57475 9.76764 0 10.4216 0 13.3233C0 15.4485 2.08432 16.7154 4.12777 16.7154C6.13035 16.7154 7.6425 16.1432 8.90944 14.958C9.03205 16.1024 9.80856 16.7154 11.0755 16.7154C12.0155 16.7154 12.792 16.1432 12.792 15.4076C12.792 15.2032 12.7511 15.0397 12.6694 14.8354C12.5877 14.4676 12.4242 14.0589 12.4242 13.2415ZM8.7051 12.1789C8.7051 13.2824 7.6425 14.4267 5.68079 14.4267C4.57733 14.4267 3.80082 13.9363 3.80082 13.2006C3.80082 12.3424 4.45472 11.8929 6.00774 11.6885L7.31555 11.525H7.35642C7.72424 11.4842 8.33728 11.3615 8.74597 11.1163L8.7051 12.1789Z" fill="white"/>
<path d="M22.3552 4.41382C20.5979 4.41382 19.2492 5.02688 18.1049 6.33469V6.13035C18.1049 5.02688 17.4918 4.41382 16.3884 4.41382C15.2849 4.41382 14.6719 5.02688 14.6719 6.13035V15.0398C14.6719 16.1432 15.3258 16.7563 16.5519 16.7563C17.7779 16.7563 18.4318 16.1841 18.4318 15.0398V9.72679C18.4318 8.21464 19.7805 7.27465 21.0474 7.27465C22.3961 7.27465 23.1726 8.05119 23.1726 9.39987V15.0398C23.1726 16.1432 23.8265 16.7563 25.0526 16.7563C26.2787 16.7563 26.9326 16.1841 26.9326 15.0398V8.78683C26.9326 4.86341 23.7448 4.41382 22.3552 4.41382Z" fill="white"/>
<path d="M31.0198 0C29.9572 0 29.0581 0.776506 29.0581 1.75736C29.0581 2.73822 29.9164 3.51472 31.0198 3.51472C32.0824 3.51472 32.9815 2.73822 32.9815 1.75736C32.9815 0.776506 32.0824 0 31.0198 0Z" fill="white"/>
<path d="M31.0196 4.41382C29.7935 4.41382 29.1396 4.98601 29.1396 6.13035V15.0398C29.1396 16.1432 29.7935 16.7563 31.0196 16.7563C32.2457 16.7563 32.8996 16.1841 32.8996 15.0398V6.17121C32.8996 5.02687 32.2457 4.41382 31.0196 4.41382Z" fill="white"/>
<path d="M42.2994 4.41386C40.8281 4.41386 39.602 4.94519 38.8664 5.88518V1.7574C38.8664 0.694803 38.1716 0.0408936 36.9864 0.0408936C35.8012 0.0408936 35.1064 0.694803 35.1064 1.7574V15.0807C35.1064 16.1433 35.6786 16.6746 36.8229 16.6746C37.9264 16.6746 38.5394 16.1024 38.5394 15.0807V14.9172C39.1933 16.0616 40.5012 16.7155 42.2177 16.7155C44.8333 16.7155 47.8984 15.0807 47.8984 10.5033C47.8576 7.47904 46.1411 4.41386 42.2994 4.41386ZM41.4003 14.0181C38.8664 14.0181 38.662 11.4025 38.662 10.5851C38.662 9.64513 38.8664 8.82773 39.2342 8.21469C39.7246 7.47905 40.4194 7.11125 41.3594 7.11125H41.4003C43.9342 7.11125 44.1385 9.76774 44.1385 10.5851C44.0976 12.2199 43.4029 13.9772 41.4003 14.0181Z" fill="white"/>
<path d="M51.4134 0C50.3508 0 49.4517 0.776506 49.4517 1.75736C49.4517 2.73822 50.3099 3.51472 51.4134 3.51472C52.5168 3.51472 53.3751 2.73822 53.3751 1.75736C53.3751 0.776506 52.476 0 51.4134 0Z" fill="white"/>
<path d="M51.4132 4.41382C50.1871 4.41382 49.5332 4.98601 49.5332 6.13035V15.0398C49.5332 16.1432 50.1871 16.7563 51.4132 16.7563C52.6393 16.7563 53.2932 16.1841 53.2932 15.0398V6.17121C53.2932 5.02687 52.6393 4.41382 51.4132 4.41382Z" fill="white"/>
<path d="M61.9984 9.27724L60.5271 8.95032C59.3827 8.7051 58.7288 8.54159 58.7288 7.88768C58.7288 7.11117 59.9549 6.98859 60.6906 6.98859C61.9166 6.98859 62.4479 7.43813 62.9384 7.84682C63.347 8.17378 63.7149 8.45986 64.3688 8.45986C65.4314 8.45986 65.9627 7.68337 65.9627 6.94773C65.9627 5.3947 63.1018 4.41382 60.4453 4.41382C57.748 4.41382 55.0098 5.55815 55.0098 8.09203C55.0098 10.4216 56.8897 11.1572 58.7697 11.5659L61.0584 12.0564C62.2027 12.3016 62.8566 12.465 62.8566 13.1598C62.8566 13.8137 62.0392 14.2224 60.8949 14.2224C59.4645 14.2224 58.7697 13.6094 58.1975 13.0781C57.748 12.6694 57.2984 12.2607 56.6037 12.2607C55.4593 12.2607 55.0506 13.0372 55.0506 13.6911C55.0506 15.3259 57.748 16.6745 61.0175 16.6745C63.7149 16.6745 66.5757 15.4485 66.5757 12.7511C66.494 10.5033 64.0827 9.68593 61.9984 9.27724Z" fill="white"/>
<path d="M69.5179 12.792C68.3736 12.792 67.4336 13.6503 67.4336 14.672C67.4336 15.7346 68.3736 16.5928 69.5179 16.5928C70.6622 16.5928 71.6022 15.7346 71.6022 14.672C71.6022 13.6503 70.6622 12.792 69.5179 12.792Z" fill="white"/>
<path d="M78.7953 7.1112C80.144 7.1112 80.5527 7.64248 80.9613 8.17378C81.2883 8.62334 81.6153 9.03202 82.3918 9.03202C83.4544 9.03202 84.1491 8.45986 84.1491 7.56075C84.1491 6.08946 81.9831 4.45471 78.877 4.45471C74.7084 4.45471 72.0928 6.90684 72.0928 10.8303C72.0928 14.5493 74.5449 16.7563 78.6318 16.7563C82.3918 16.7563 84.1491 14.7128 84.1491 13.3233C84.1491 12.6694 83.577 12.0155 82.5552 12.0155C81.6152 12.0155 81.2474 12.5059 80.8796 12.9963C80.4709 13.5276 80.0214 14.0998 78.7544 14.0998C76.9562 14.0998 75.8527 12.9146 75.8527 10.8711C75.8936 7.39726 78.1005 7.1112 78.7953 7.1112Z" fill="white"/>
<path d="M93.4265 4.41377C91.424 4.41377 90.1979 5.23116 89.5031 6.00767V1.79817C89.5031 0.735574 88.8083 0.081665 87.6231 0.081665C86.4379 0.081665 85.7432 0.735574 85.7432 1.79817V15.0397C85.7432 16.1432 86.3971 16.7562 87.6231 16.7562C88.8492 16.7562 89.5031 16.184 89.5031 15.0397V9.72674C89.5031 8.21459 90.8518 7.2746 92.1187 7.2746C93.4674 7.2746 94.2439 8.05114 94.2439 9.39982V15.0397C94.2439 16.1432 94.8978 16.7562 96.1239 16.7562C97.35 16.7562 98.0039 16.184 98.0039 15.0397V8.78678C98.0039 4.86336 94.8161 4.41377 93.4265 4.41377Z" fill="white"/>
</svg>
