<svg width="68" height="34" viewBox="0 0 68 34" fill="none" xmlns="http://www.w3.org/2000/svg">
<path d="M1.03711 14.3637V18.3051H66.2242V14.3637H1.03711Z" fill="white"/>
<path d="M0 0V33.1066H58.5529C63.3805 33.1066 67.2899 29.2821 67.2899 24.5526V0H0Z" fill="white"/>
<path d="M1.03711 1.02173V16.0278H66.2242V1.02173H1.03711Z" fill="#003468"/>
<path d="M1.03711 32.0556H58.5534C62.8183 32.0556 66.2242 28.6106 66.2242 24.5525V17.0787H1.03711V32.0556Z" fill="#FF7500"/>
<path d="M6.98976 28.8734H6.87129C5.53853 28.8734 4.41309 27.9683 4.41309 26.4502C4.41309 25.516 5.8347 25.516 5.8347 26.4502C5.8347 27.0925 6.24934 27.472 6.87129 27.472H6.98976C7.61172 27.472 8.05597 27.1509 8.05597 26.567C8.05597 25.0489 4.50194 24.9029 4.50194 22.7134C4.50194 22.5674 4.50194 22.6258 4.50194 22.4506C4.50194 21.1661 5.80508 20.3778 6.87129 20.3778H6.98976C8.26329 20.3778 9.38874 21.1369 9.38874 22.3046C9.38874 23.2097 7.96712 23.2097 7.96712 22.3338C7.96712 22.0127 7.5821 21.7499 6.98976 21.7499H6.87129C6.33819 21.7499 5.92355 22.0419 5.92355 22.509C5.92355 22.655 5.92355 22.5382 5.92355 22.6842C5.92355 23.6476 9.47759 24.0563 9.47759 26.5378C9.47759 27.9391 8.41138 28.8734 6.98976 28.8734Z" fill="#003468"/>
<path d="M13.1499 28.8734H13.0315C11.6691 28.8734 10.5732 27.8515 10.5732 26.5086V22.7426C10.5732 21.3996 11.6691 20.3778 13.0315 20.3778H13.1499C14.3938 20.3778 15.4304 21.2244 15.5785 22.3922C15.6081 22.4214 15.6081 22.4506 15.6081 22.509C15.6081 22.9469 15.2527 23.1805 14.8973 23.1805C14.5715 23.1805 14.2754 22.9761 14.2161 22.5674C14.1273 22.0711 13.7126 21.7499 13.1795 21.7499H13.0611C12.4983 21.7499 12.0245 22.1587 12.0245 22.7134V26.4794C12.0245 27.0341 12.4983 27.472 13.0611 27.472H13.1795C13.7126 27.472 14.1273 27.1509 14.2161 26.6546C14.2754 26.2459 14.6012 26.0415 14.8973 26.0415C15.2527 26.0415 15.6081 26.2751 15.6081 26.713C15.6081 26.7714 15.6081 26.8006 15.6081 26.8298C15.4008 28.0267 14.3938 28.8734 13.1499 28.8734Z" fill="#003468"/>
<path d="M19.1621 28.8733H19.0437C17.6813 28.8733 16.5854 27.8223 16.5854 26.5086V22.7717C16.5854 21.4288 17.6813 20.407 19.0437 20.407H19.1621C20.5245 20.407 21.6203 21.4288 21.6203 22.7717V26.5086C21.6203 27.8515 20.5245 28.8733 19.1621 28.8733ZM20.1987 22.7717C20.1987 22.217 19.7545 21.7791 19.1621 21.7791H19.0437C18.4809 21.7791 18.0071 22.1878 18.0071 22.7717V26.5086C18.0071 27.0633 18.4809 27.5012 19.0437 27.5012H19.1621C19.7248 27.5012 20.1987 27.0925 20.1987 26.5086V22.7717Z" fill="#003468"/>
<path d="M25.6485 28.8734H25.53C24.1676 28.8734 23.0718 27.7932 23.0718 26.4502V21.0785C23.0718 20.6114 23.4272 20.3778 23.7826 20.3778C24.138 20.3778 24.4934 20.6114 24.4934 21.0785V26.4502C24.4934 27.0049 24.9673 27.472 25.53 27.472H25.6485C26.2112 27.472 26.6851 27.0049 26.6851 26.4502V21.0785C26.6851 20.6114 27.0405 20.3778 27.3959 20.3778C27.7513 20.3778 28.1067 20.6114 28.1067 21.0785V26.4502C28.1067 27.7932 27.0109 28.8734 25.6485 28.8734Z" fill="#003468"/>
<path d="M33.1121 21.8666H32.1347V28.2019C32.1347 28.669 31.7793 28.9026 31.4239 28.9026C31.0685 28.9026 30.7131 28.669 30.7131 28.2019V21.8666H29.7357C29.2618 21.8666 29.0249 21.5163 29.0249 21.166C29.0249 20.8156 29.2618 20.4653 29.7357 20.4653H33.1121C33.5859 20.4653 33.8229 20.8156 33.8229 21.166C33.8525 21.5163 33.6155 21.8666 33.1121 21.8666Z" fill="#003468"/>
<path d="M39.7459 28.8151H36.5472C36.103 28.8151 35.8364 28.4063 35.8364 27.9684C35.8364 27.8224 35.866 27.6765 35.9549 27.5305L38.7389 23.1221C38.887 22.8885 38.887 22.7426 38.887 22.5674V22.4798C38.887 22.1295 38.5612 21.7791 38.1466 21.7791H38.1169C37.7023 21.7791 37.4061 22.1003 37.4061 22.4798V22.5966C37.4061 23.0637 37.0507 23.2973 36.6953 23.2973C36.3399 23.2973 35.9845 23.0637 35.9845 22.5966V22.4214C35.9845 21.2536 36.9619 20.3778 38.1169 20.3778H38.1466C39.3016 20.3778 40.3086 21.2245 40.3086 22.4214V22.5382C40.3086 23.0053 40.1309 23.3849 39.894 23.7936L37.6431 27.4137H39.7755C40.2494 27.4137 40.4863 27.764 40.4863 28.1144C40.4567 28.4647 40.2198 28.8151 39.7459 28.8151Z" fill="#003468"/>
<path d="M45.3436 27.1509H45.0771V28.1727C45.0771 28.6398 44.7217 28.8733 44.3663 28.8733C44.0109 28.8733 43.6554 28.6398 43.6554 28.1727V27.1509H41.7303C41.2268 27.1509 40.9307 26.8881 40.9307 26.421C40.9307 26.3042 40.9603 26.1583 40.9899 26.0415L43.2704 20.8157C43.3889 20.5237 43.6554 20.407 43.8924 20.407C44.2478 20.407 44.6328 20.6697 44.6328 21.0784C44.6328 21.166 44.6328 21.2828 44.5736 21.3704L42.5596 25.7787H43.6258V25.0781C43.6258 24.611 43.9812 24.3774 44.3366 24.3774C44.692 24.3774 45.0475 24.611 45.0475 25.0781V25.7787H45.314C45.7879 25.7787 46.0248 26.1291 46.0248 26.4794C46.0544 26.8005 45.8175 27.1509 45.3436 27.1509Z" fill="#003468"/>
<path d="M5.47937 12.904C5.12396 12.904 4.76855 12.6704 4.76855 12.2033V5.109C4.76855 4.64189 5.12396 4.40833 5.47937 4.40833C5.83478 4.40833 6.19018 4.64189 6.19018 5.109V12.2033C6.19018 12.6704 5.83478 12.904 5.47937 12.904Z" fill="white"/>
<path d="M13.7723 12.904C13.4169 12.904 13.0615 12.6704 13.0615 12.2033V7.79491L12.0249 10.1597C11.8472 10.5684 11.551 10.6268 11.3141 10.6268C11.0771 10.6268 10.7513 10.5392 10.6032 10.1597L9.56664 7.79491V12.2033C9.56664 12.6704 9.21124 12.904 8.85583 12.904C8.50043 12.904 8.14502 12.6704 8.14502 12.2033V5.109C8.14502 4.72947 8.47081 4.40833 8.85583 4.40833H9.03353C9.47779 4.40833 9.65549 4.70028 9.80358 5.02142L11.3141 8.408L12.8245 5.02142C12.943 4.70028 13.1503 4.40833 13.5946 4.40833H13.7723C14.1573 4.40833 14.4831 4.72947 14.4831 5.109V12.2033C14.5127 12.6704 14.1573 12.904 13.7723 12.904Z" fill="white"/>
<path d="M22.0945 12.904C21.7391 12.904 21.3837 12.6704 21.3837 12.2033V7.79491L20.3471 10.1597C20.1694 10.5684 19.8436 10.6268 19.6363 10.6268C19.429 10.6268 19.0736 10.5392 18.9255 10.1597L17.8889 7.79491V12.2033C17.8889 12.6704 17.5335 12.904 17.1781 12.904C16.8227 12.904 16.4673 12.6704 16.4673 12.2033V5.109C16.4673 4.72947 16.7931 4.40833 17.1781 4.40833H17.3558C17.8 4.40833 17.9778 4.70028 18.1258 5.02142L19.6363 8.408L21.1468 5.02142C21.2652 4.70028 21.4726 4.40833 21.9168 4.40833H22.0945C22.4795 4.40833 22.8053 4.72947 22.8053 5.109V12.2033C22.8053 12.6704 22.4499 12.904 22.0945 12.904Z" fill="white"/>
<path d="M27.1294 12.904H27.0109C25.6486 12.904 24.5527 11.853 24.5527 10.5392V6.7731C24.5527 5.43015 25.6486 4.40833 27.0109 4.40833H27.1294C28.4918 4.40833 29.5876 5.43015 29.5876 6.7731V10.51C29.558 11.853 28.4918 12.904 27.1294 12.904ZM28.1364 6.7731C28.1364 6.2184 27.6921 5.78048 27.0998 5.78048H26.9813C26.4186 5.78048 25.9447 6.18921 25.9447 6.7731V10.51C25.9447 11.0647 26.4186 11.5026 26.9813 11.5026H27.0998C27.6625 11.5026 28.1364 11.0939 28.1364 10.51V6.7731Z" fill="white"/>
</svg>
