<svg width="130" height="18" viewBox="0 0 130 18" fill="none" xmlns="http://www.w3.org/2000/svg">
<g clip-path="url(#clip0_1265_2607)">
<path d="M14.6987 15.8451C14.6987 15.8451 12.8642 17.9715 8.83299 17.9715C3.40754 17.9715 0 13.9519 0 8.98573C0 4.01956 3.40754 0 8.83299 0C12.8734 0 14.6987 2.12156 14.6987 2.12156L12.7909 4.79493C11.6674 3.89949 10.3038 3.38759 8.88803 3.32981C5.70521 3.32981 3.46257 5.70825 3.46257 8.98573C3.46257 12.2632 5.70521 14.694 8.88803 14.694C10.3248 14.729 11.7204 14.1949 12.7909 13.2003L14.6987 15.8451Z" fill="white"/>
<path d="M23.972 0.371033H24.5499L33.0985 17.5957H29.3149L28.2326 15.2172H20.2893L19.2391 17.5957H15.4463L23.972 0.371033ZM24.3572 6.65962H24.1371L21.6331 12.287L21.4358 12.658H27.0723L26.8751 12.287L24.3572 6.65962Z" fill="white"/>
<path d="M35.8501 13.1195C37.2972 14.1457 38.9961 14.7232 40.7481 14.7844C42.7707 14.7844 43.5732 13.9519 43.5732 12.8578C43.5732 11.7637 42.8486 11.1644 39.9777 10.3319C36.2124 9.2426 34.2495 7.86311 34.2495 5.09937C34.2403 2.01691 36.4555 0 40.716 0C45.1738 0 46.9991 1.77907 46.9991 1.77907L45.2013 4.63319C43.8818 3.69365 42.3165 3.19565 40.716 3.20613C38.8816 3.20613 38.0056 3.86258 38.0056 4.92812C38.0056 5.99366 38.8632 6.42178 41.4636 7.16385C45.5315 8.28647 47.3844 9.78013 47.3844 12.5629C47.3844 15.5788 45.3664 17.9905 40.8261 17.9905C36.2858 17.9905 34.0156 15.7595 34.0156 15.7595L35.8501 13.1195Z" fill="white"/>
<path d="M56.7403 0.371033H57.3227L65.876 17.5957H62.0832L61.0054 15.2172H53.0622L52.0073 17.5957H48.2329L56.7403 0.371033ZM57.1301 6.65962H56.9054L54.3876 12.287L54.195 12.658H59.8405L59.6479 12.287L57.1301 6.65962Z" fill="white"/>
<path d="M68.7242 15.0698C68.7242 15.0698 70.5265 16.7918 73.8745 16.7918C77.3324 16.7918 78.855 15.3647 78.855 13.2907C78.855 11.1073 77.0206 10.2463 73.8745 9.32822C70.4715 8.29598 68.0913 7.29228 68.0913 4.50476C68.0913 1.65063 70.499 0 74.0533 0C78.0387 0 79.7264 1.57928 79.7264 1.57928L79.0614 2.64006C79.0614 2.64006 77.4012 1.213 74.0533 1.213C71.4805 1.213 69.3479 2.33562 69.3479 4.48573C69.3479 6.46934 71.1824 7.21617 74.301 8.13425C77.9011 9.16649 80.1162 10.3985 80.1162 13.3002C80.1162 15.9688 78.2588 17.981 73.8882 17.981C69.9854 17.981 68.0454 16.0782 68.0454 16.0782L68.7242 15.0698Z" fill="white"/>
<path d="M82.6294 9.04282C82.6294 3.9054 85.9498 0.00476074 91.1001 0.00476074C96.2504 0.00476074 99.5983 3.91967 99.5983 9.04282C99.5983 14.0946 96.2504 18 91.1047 18C85.959 18 82.6294 14.0946 82.6294 9.04282ZM98.3509 9.04282C98.3509 4.79493 95.6909 1.20349 91.1001 1.20349C86.5093 1.20349 83.8677 4.79493 83.8677 9.04282C83.8677 13.2051 86.5506 16.7918 91.1184 16.7918C95.6863 16.7918 98.3692 13.2051 98.3692 9.04282H98.3509Z" fill="white"/>
<path d="M102.964 0.371033H114.783V1.54122H104.184V8.48626H113.65V9.67547H104.184V17.5957H102.969L102.964 0.371033Z" fill="white"/>
<path d="M116.718 0.371033H130.018V1.54122H123.969V17.5957H122.754V1.54122H116.718V0.371033Z" fill="white"/>
</g>
<defs>
<clipPath id="clip0_1265_2607">
<rect width="130" height="18" fill="white"/>
</clipPath>
</defs>
</svg>
