<svg width="155" height="49" viewBox="0 0 155 49" fill="none" xmlns="http://www.w3.org/2000/svg">
<path d="M17.4016 31.0784C19.1936 31.0784 21.28 29.4784 23.6608 26.2784C24.5056 21.3888 25.12 18.3296 25.504 17.1008C26.2976 14.4128 27.3984 13.0688 28.8064 13.0688C29.728 13.0688 30.1888 13.6192 30.1888 14.72C30.1888 15.3344 30.048 16.1024 29.7664 17.024C29.0752 19.3792 27.808 21.9648 25.9648 24.7808C25.248 30.6688 24.2752 35.1232 23.0464 38.144C21.7408 41.344 20.1536 43.6992 18.2848 45.2096C17.2608 46.0544 16.0192 46.7456 14.56 47.2832C13.1008 47.8208 11.5008 48.0896 9.76 48.0896C5.9456 48.0896 3.2704 46.7712 1.7344 44.1344C0.992004 42.8544 0.620804 41.6256 0.620804 40.448C0.620804 39.296 0.761604 38.2592 1.0432 37.3376C1.7088 35.0336 2.976 33.408 4.8448 32.4608C5.7408 32.0256 6.7008 31.808 7.7248 31.808C10.4384 31.808 12.2944 32.8576 13.2928 34.9568C13.728 35.8784 13.9456 36.7616 13.9456 37.6064C13.9456 38.4512 13.792 39.2576 13.4848 40.0256C12.8192 41.792 11.7312 42.6752 10.2208 42.6752C9.9904 42.6752 9.7856 42.6112 9.6064 42.4832C9.4272 42.3552 9.2864 42.176 9.184 41.9456C10.336 41.9456 11.232 41.1648 11.872 39.6032C12.1792 38.8352 12.3328 38.0544 12.3328 37.2608C12.3328 36.4928 12.1536 35.6992 11.7952 34.88C11.104 33.3184 9.7088 32.5376 7.6096 32.5376C5.5104 32.5376 3.8592 33.5488 2.656 35.5712C1.8368 36.928 1.4272 38.3488 1.4272 39.8336C1.4272 40.448 1.504 41.0752 1.6576 41.7152C2.1952 44.1216 3.5776 45.7472 5.8048 46.592C6.8032 46.976 7.9424 47.168 9.2224 47.168C10.528 47.168 11.744 46.9632 12.8704 46.5536C14.0224 46.1696 15.0208 45.6576 15.8656 45.0176C16.736 44.3776 17.5296 43.5584 18.2464 42.56C18.9632 41.5616 19.5648 40.5504 20.0512 39.5264C20.5632 38.5024 21.0368 37.312 21.472 35.9552C22.112 33.856 22.7264 31.2832 23.3152 28.2368C21.0368 30.7712 19.0784 32.0384 17.44 32.0384C14.2656 32.0384 12.6784 30.3232 12.6784 26.8928C12.6784 25.4592 12.96 23.8464 13.5232 22.0544C14.112 20.2624 14.7392 18.6496 15.4048 17.216C16.096 15.7568 16.7232 14.1056 17.2864 12.2624C17.8752 10.3936 18.1696 8.64 18.1696 7.0016C18.1696 5.3632 17.696 4.0448 16.7488 3.0464C15.8016 2.048 14.496 1.5488 12.832 1.5488C10.272 1.5488 8.1856 2.8544 6.5728 5.4656C5.3184 7.5392 4.6912 9.728 4.6912 12.032C4.6912 14.9504 5.5488 16.8064 7.264 17.6C7.776 17.8304 8.3264 17.9456 8.9152 17.9456C10.8864 17.9456 12.384 16.8448 13.408 14.6432C13.4592 14.5408 13.536 14.4896 13.6384 14.4896C13.7664 14.464 13.8688 14.4896 13.9456 14.5664C14.048 14.6432 14.0736 14.7328 14.0224 14.8352C13.536 16.0384 12.8576 17.0112 11.9872 17.7536C11.1168 18.4704 10.0928 18.8288 8.9152 18.8288C6.6112 18.8288 5.0496 17.664 4.2304 15.3344C3.8976 14.336 3.7312 13.2096 3.7312 11.9552C3.7312 10.7008 4 9.2928 4.5376 7.7312C5.536 4.7872 7.136 2.7136 9.3376 1.5104C10.4384 0.921601 11.6032 0.627201 12.832 0.627201C15.1872 0.627201 16.992 1.4336 18.2464 3.0464C19.5008 4.6336 20.128 6.7456 20.128 9.3824C20.128 11.3024 19.7056 13.4656 18.8608 15.872C18.0416 18.2528 17.2096 20.544 16.3648 22.7456C15.5456 24.9472 15.136 26.7648 15.136 28.1984C15.136 30.1184 15.8912 31.0784 17.4016 31.0784ZM28.6144 14.2976C27.9744 14.2976 27.5008 14.9248 27.1936 16.1792C26.8864 17.4336 26.5664 19.4816 26.2336 22.3232C28.0768 19.072 29.0368 16.6912 29.1136 15.1808C29.1136 14.6176 28.9472 14.3232 28.6144 14.2976Z" fill="#FFB761"/>
<path d="M34.5082 26.9312C34.5082 29.6192 35.225 30.9632 36.6586 30.9632C37.6314 30.9632 38.5402 30.3616 39.385 29.1584C40.9978 26.9056 41.9834 23.936 42.3418 20.2496C41.4458 19.8656 40.8186 19.2384 40.4602 18.368C40.2298 17.8304 40.1146 17.3824 40.1146 17.024C40.1146 16.64 40.1658 16.3072 40.2682 16.0256C40.4986 15.3344 40.921 14.9888 41.5354 14.9888C42.1498 14.9888 42.6106 15.3856 42.9178 16.1792C43.2506 16.9472 43.417 17.9328 43.417 19.136C43.417 19.2128 43.417 19.3024 43.417 19.4048C43.7242 19.5072 44.1722 19.5584 44.761 19.5584C45.3754 19.5584 45.913 19.3152 46.3738 18.8288C46.8346 18.3424 47.065 17.8944 47.065 17.4848C47.065 17.3824 47.129 17.3184 47.257 17.2928C47.385 17.2416 47.5002 17.2416 47.6026 17.2928C47.7306 17.344 47.7946 17.4208 47.7946 17.5232C47.7946 18.2656 47.4746 18.9696 46.8346 19.6352C46.2202 20.3008 45.3882 20.6336 44.3386 20.6336C44.0826 20.6336 43.7498 20.608 43.3402 20.5568C43.1866 22.2976 42.8154 24.0256 42.2266 25.7408C41.6634 27.4304 40.8698 28.9024 39.8458 30.1568C38.8218 31.3856 37.721 32 36.5434 32C34.3162 32 32.9466 30.8096 32.4346 28.4288C32.3066 27.7376 32.2426 27.0336 32.2426 26.3168C32.2426 24.704 32.6138 22.976 33.3562 21.1328C34.329 18.7264 35.5322 17.2288 36.9658 16.64C37.7082 16.384 38.2202 16.3456 38.5018 16.5248C38.7834 16.704 38.9626 16.9088 39.0394 17.1392C37.8618 17.1392 36.8122 18.24 35.8906 20.4416C34.969 22.6432 34.5082 24.8064 34.5082 26.9312Z" fill="#FFB761"/>
<path d="M59.4324 31.0784C60.098 31.0784 61.0324 30.1952 62.2356 28.4288C63.4388 26.6624 64.4756 24.896 65.346 23.1296L66.6516 20.48H67.6884C67.5348 20.7872 67.33 21.2096 67.074 21.7472C66.8436 22.2592 66.37 23.1936 65.6532 24.5504C64.9364 25.8816 64.2452 27.0592 63.5796 28.0832C62.9396 29.1072 62.21 30.0416 61.3908 30.8864C60.5972 31.7056 59.842 32.1152 59.1252 32.1152C58.4084 32.1152 57.8196 31.8976 57.3588 31.4624C56.7956 30.8992 56.514 29.9136 56.514 28.5056C56.514 27.0976 56.7572 25.2416 57.2436 22.9376H56.9748C54.0308 28.9792 51.586 32 49.6404 32C47.9252 32 47.0676 30.8864 47.0676 28.6592C47.0676 27.0464 47.7588 23.8336 49.1412 19.0208C49.4484 17.92 49.6788 17.1008 49.8324 16.5632C49.986 16 50.2292 15.7184 50.562 15.7184C51.0228 15.7184 51.3556 16.0512 51.5604 16.7168C51.6628 16.9984 51.714 17.3568 51.714 17.792C51.714 18.2016 51.65 18.6624 51.522 19.1744C51.394 19.6608 51.1252 20.608 50.7156 22.016C49.6148 25.8048 49.0644 28.352 49.0644 29.6576C49.0644 30.5024 49.3204 30.9248 49.8324 30.9248C50.4724 30.9248 51.2276 30.3488 52.098 29.1968C53.0196 27.9936 53.7748 26.8288 54.3636 25.7024C54.9524 24.576 55.426 23.6544 55.7844 22.9376C56.1428 22.2208 56.5012 21.4784 56.8596 20.7104C57.218 19.9168 57.4996 19.264 57.7044 18.752C57.9348 18.24 58.1524 17.7536 58.3572 17.2928C58.562 16.8064 58.6644 16.5504 58.6644 16.5248C58.8948 15.9872 59.1508 15.7184 59.4324 15.7184C59.8932 15.7184 60.226 16.0512 60.4308 16.7168C60.5332 17.024 60.5844 17.3952 60.5844 17.8304C60.5844 18.2656 60.5332 18.7264 60.4308 19.2128C60.3284 19.6736 60.162 20.3648 59.9316 21.2864C59.7012 22.208 59.522 22.9632 59.394 23.552C59.266 24.1408 59.1124 24.8576 58.9332 25.7024C58.6772 27.1104 58.5492 28.3648 58.5492 29.4656C58.5492 30.5408 58.8436 31.0784 59.4324 31.0784Z" fill="#FFB761"/>
<path d="M66.0959 32C65.3791 32 65.0207 31.4496 65.0207 30.3488C65.0207 29.76 65.7375 25.472 67.1711 17.4848C67.2479 16.9472 67.4783 16.6784 67.8623 16.6784C68.3231 16.6784 68.6687 17.0112 68.8991 17.6768C69.0271 18.0352 69.0911 18.432 69.0911 18.8672C69.0911 19.2768 69.0399 19.7248 68.9375 20.2112L68.3231 23.2832H68.5535C70.8575 18.112 73.0591 15.5264 75.1583 15.5264C75.9775 15.5264 76.6047 15.7824 77.0399 16.2944C77.4751 16.7808 77.6927 17.4592 77.6927 18.3296C77.6927 19.2 77.3471 21.0816 76.6559 23.9744C75.9647 26.8672 75.6191 28.8768 75.6191 30.0032C75.6191 31.6672 75.9263 32.4992 76.5407 32.4992C76.5407 32.6784 76.4255 32.8576 76.1951 33.0368C75.9647 33.216 75.6959 33.3056 75.3887 33.3056C73.9039 33.3056 73.1615 32.1408 73.1615 29.8112C73.1615 28.3776 73.5455 26.2144 74.3135 23.3216C75.1071 20.4032 75.5039 18.5472 75.5039 17.7536C75.5039 16.9344 75.1839 16.5248 74.5439 16.5248C73.6223 16.5248 72.5087 17.728 71.2031 20.1344C69.9231 22.5408 68.8863 24.8448 68.0927 27.0464C67.3247 29.2224 66.8767 30.592 66.7487 31.1552C66.6463 31.7184 66.4287 32 66.0959 32Z" fill="#FFB761"/>
<path d="M92.5725 17.984C93.2125 17.984 93.5325 18.5216 93.5325 19.5968C93.5325 20.3648 93.1101 22.592 92.2653 26.2784C91.4205 29.9392 90.6653 32.9728 89.9997 35.3792C89.3341 37.7856 88.7069 39.5648 88.1181 40.7168C87.5293 41.8944 86.8125 43.072 85.9677 44.2496C85.1485 45.4272 84.2397 46.2336 83.2413 46.6688C82.2429 47.104 81.0909 47.3216 79.7853 47.3216C77.3533 47.3216 76.1373 46.08 76.1373 43.5968C76.1373 42.1376 76.6877 40.5632 77.7885 38.8736C79.3757 36.3904 81.5005 34.752 84.1629 33.9584C85.1101 33.6768 86.0957 33.536 87.1197 33.536C87.2989 33.536 87.3885 33.7152 87.3885 34.0736C87.3885 34.432 87.2989 34.6112 87.1197 34.6112C84.0989 34.6112 81.5645 35.8016 79.5165 38.1824C78.0061 39.9744 77.2509 41.7024 77.2509 43.3664C77.2509 45.0304 77.8909 45.9904 79.1709 46.2464L79.7853 46.2848C81.8845 46.2848 83.5485 45.4144 84.7773 43.6736C86.0317 41.9072 87.0173 39.68 87.7341 36.992C88.4509 34.2784 89.3725 30.0288 90.4989 24.2432H90.1917C87.4269 29.44 85.1485 32.0384 83.3565 32.0384C81.3341 32.0384 80.3229 30.5152 80.3229 27.4688C80.3229 25.7024 80.7837 23.7696 81.7053 21.6704C82.9853 18.8288 84.6109 16.9728 86.5821 16.1024C87.2733 15.8208 87.9645 15.68 88.6557 15.68C89.3725 15.68 89.9357 15.8848 90.3453 16.2944C90.7549 16.704 90.9597 17.1648 90.9597 17.6768C90.9597 17.9072 90.8317 18.0224 90.5757 18.0224C90.3453 17.9968 90.2301 17.8688 90.2301 17.6384C90.2301 17.408 90.1021 17.2032 89.8461 17.024C89.6157 16.8192 89.2701 16.7168 88.8092 16.7168C87.1964 16.7168 85.7373 18.1632 84.4317 21.056C83.2029 23.744 82.5885 26.2912 82.5885 28.6976C82.5885 30.1824 82.9085 30.9248 83.5485 30.9248C84.3933 30.9248 85.4941 29.9264 86.8509 27.9296C88.8989 24.9088 90.4989 21.952 91.6509 19.0592C91.9581 18.3424 92.2653 17.984 92.5725 17.984Z" fill="#FFB761"/>
<path d="M98.1475 26.3936C98.1475 29.4912 99.2483 31.04 101.45 31.04C102.269 31.04 103.127 30.6816 104.023 29.9648C104.944 29.2224 105.776 28.3392 106.519 27.3152C108.157 24.96 109.309 23.04 109.975 21.5552L110.474 20.48H111.511C111.076 21.504 110.436 22.7712 109.591 24.2816C108.746 25.7664 107.94 27.0208 107.172 28.0448C106.404 29.0688 105.495 30.0032 104.445 30.848C103.396 31.6672 102.397 32.0768 101.45 32.0768C97.6611 32.0768 95.7667 29.952 95.7667 25.7024C95.7667 23.7312 96.3427 21.76 97.4947 19.7888C99.0819 17.0496 101.04 15.68 103.37 15.68C105.008 15.68 105.828 16.576 105.828 18.368C105.828 19.6992 105.316 21.0816 104.292 22.5152C102.858 24.4608 101.181 25.4464 99.2611 25.472C98.9795 25.472 98.8003 25.344 98.7235 25.088L98.6851 24.9344C100.016 24.9344 101.284 24.064 102.487 22.3232C103.716 20.5568 104.33 19.0848 104.33 17.9072C104.33 17.1136 104.023 16.7168 103.408 16.7168C102.052 16.7168 100.784 17.9072 99.6067 20.288C98.6339 22.3104 98.1475 24.3456 98.1475 26.3936Z" fill="#FFB761"/>
<path d="M109.916 32C109.199 32 108.84 31.4496 108.84 30.3488C108.84 29.76 109.557 25.472 110.991 17.4848C111.093 16.9472 111.324 16.6784 111.682 16.6784C112.143 16.6784 112.488 17.0112 112.719 17.6768C112.847 18.0352 112.911 18.432 112.911 18.8672C112.911 19.2768 112.86 19.7248 112.757 20.2112L112.143 23.36H112.335C114.536 18.24 116.559 15.68 118.402 15.68C119.426 15.68 120.104 16.1792 120.437 17.1776C120.565 17.5616 120.629 18.0096 120.629 18.5216C120.629 19.008 120.488 19.5456 120.207 20.1344C119.72 21.1328 118.991 21.632 118.018 21.632C117.813 21.632 117.647 21.5808 117.519 21.4784C117.416 21.376 117.352 21.2352 117.327 21.056C117.532 21.056 117.8 20.6848 118.133 19.9424C118.466 19.1744 118.658 18.4704 118.709 17.8304C118.76 17.1904 118.543 16.8192 118.056 16.7168C117.16 16.7168 116.098 17.8816 114.869 20.2112C113.64 22.5408 112.655 24.768 111.912 26.8928C111.17 29.0176 110.735 30.4 110.607 31.04C110.479 31.68 110.248 32 109.916 32Z" fill="#FFB761"/>
<path d="M126.937 8.9984C127.526 8.9984 127.82 9.3952 127.82 10.1888C127.82 10.9824 127.436 11.6224 126.668 12.1088C126.284 12.3648 125.951 12.4928 125.67 12.4928C125.26 12.4928 125.017 12.3648 124.94 12.1088L124.902 11.9936C125.132 11.9936 125.299 11.7504 125.401 11.264C125.503 10.752 125.657 10.2528 125.862 9.7664C126.092 9.2544 126.451 8.9984 126.937 8.9984ZM124.479 31.0784C125.145 31.0784 126.079 30.1952 127.283 28.4288C128.486 26.6624 129.523 24.896 130.393 23.1296L131.699 20.48H132.735C132.582 20.7872 132.377 21.2096 132.121 21.7472C131.891 22.2592 131.417 23.1936 130.7 24.5504C129.983 25.8816 129.292 27.0592 128.627 28.0832C127.987 29.1072 127.257 30.0416 126.438 30.8864C125.644 31.7056 124.953 32.1152 124.364 32.1152C122.47 32.1152 121.523 30.8864 121.523 28.4288C121.523 26.5856 122.047 23.5904 123.097 19.4432C123.199 19.008 123.276 18.6752 123.327 18.4448C123.404 18.2144 123.481 17.92 123.558 17.5616C123.635 17.1776 123.711 16.832 123.788 16.5248C123.916 15.9872 124.147 15.7184 124.479 15.7184C124.94 15.7184 125.273 16.0512 125.478 16.7168C125.58 17.024 125.631 17.3952 125.631 17.8304C125.631 18.2656 125.58 18.7264 125.478 19.2128C125.375 19.6736 125.209 20.3648 124.979 21.2864C124.748 22.208 124.569 22.9632 124.441 23.552C124.313 24.1408 124.172 24.8576 124.019 25.7024C123.737 27.1104 123.596 28.3648 123.596 29.4656C123.596 30.5408 123.891 31.0784 124.479 31.0784Z" fill="#FFB761"/>
<path d="M136.364 11.4944H136.441C136.671 11.52 136.85 11.6224 136.978 11.8016C137.106 11.9808 137.17 12.1728 137.17 12.3776C137.17 12.5568 136.991 12.9536 136.633 13.568C136.3 14.1824 136.133 14.6816 136.133 15.0656C136.133 15.424 136.185 15.7696 136.287 16.1024C136.389 16.4096 136.709 17.1776 137.247 18.4064C138.425 21.0944 139.013 23.5008 139.013 25.6256C139.013 27.7248 138.437 29.4656 137.285 30.848C136.159 32.2304 134.802 32.9216 133.215 32.9216C131.653 32.9216 130.873 31.9744 130.873 30.08C130.873 28.16 131.551 26.112 132.908 23.936C133.701 22.6816 134.559 21.7344 135.481 21.0944C135.737 20.9152 135.903 20.9536 135.98 21.2096C136.082 21.4656 136.031 21.6704 135.826 21.824C134.341 22.8992 133.189 24.6016 132.37 26.9312C131.628 29.0304 131.551 30.4896 132.14 31.3088C132.345 31.616 132.639 31.7696 133.023 31.7696C134.149 31.7696 135.033 31.0144 135.673 29.504C136.313 27.9936 136.633 26.112 136.633 23.8592C136.633 21.9136 136.402 20.1088 135.941 18.4448C135.481 16.7808 135.225 15.8208 135.173 15.5648C134.405 17.024 133.573 18.6624 132.677 20.48H131.641C133.1 17.5872 134.226 15.4112 135.02 13.952C135.122 12.3136 135.57 11.4944 136.364 11.4944Z" fill="#FFB761"/>
<path d="M142.753 15.2192C142.753 14.9376 142.932 14.7968 143.291 14.7968H145.287C145.415 14.2848 145.582 13.6448 145.787 12.8768L146.324 10.88C146.478 10.2912 146.606 9.7536 146.708 9.2672C146.836 8.7808 147.067 8.5376 147.399 8.5376C147.835 8.5376 148.142 8.8704 148.321 9.536C148.398 9.8176 148.436 10.1632 148.436 10.5728C148.436 10.9824 148.359 11.5072 148.206 12.1472L147.476 14.7968H149.857C150.087 14.7968 150.241 14.8736 150.318 15.0272C150.42 15.1808 150.42 15.3344 150.318 15.488C150.241 15.616 150.087 15.68 149.857 15.68H147.246C145.659 21.6448 144.865 25.8688 144.865 28.352C144.865 30.1696 145.275 31.0784 146.094 31.0784C146.759 31.0784 147.694 30.1952 148.897 28.4288C150.1 26.6624 151.137 24.896 152.007 23.1296L153.313 20.48H154.35C154.196 20.7872 153.991 21.2096 153.735 21.7472C153.505 22.2592 153.031 23.1936 152.315 24.5504C151.598 25.8816 150.907 27.0592 150.241 28.0832C149.601 29.1072 148.871 30.0416 148.052 30.8864C147.259 31.7056 146.516 32.1152 145.825 32.1152C145.134 32.1152 144.532 31.8976 144.02 31.4624C143.534 31.0016 143.227 30.3616 143.099 29.5424C142.945 28.6976 142.868 27.84 142.868 26.9696C142.868 24.9472 143.585 21.184 145.019 15.68H143.291C143.086 15.68 142.945 15.6288 142.868 15.5264C142.791 15.3984 142.753 15.296 142.753 15.2192Z" fill="#FFB761"/>
</svg>
